<?xml version="1.0" encoding="utf-8"?>
<!-- Generator: Adobe Illustrator 19.2.1, SVG Export Plug-In . SVG Version: 6.00 Build 0)  -->
<svg version="1.1" id="layer" xmlns="http://www.w3.org/2000/svg" xmlns:xlink="http://www.w3.org/1999/xlink" x="0px" y="0px"
	 viewBox="0 0 652 652" style="enable-background:new 0 0 652 652;" xml:space="preserve">
<style type="text/css">
	.st0{fill:#54301A;}
</style>
<g>
	<g>
		<path class="st0" d="M174.8,445.1c0,1.6-0.3,4.7-4.2,4.7c-0.7,0-3.6-0.4-4.3-0.4c-1.8,0-3.6,0.5-5.3,0.5c-0.5,0-2,0-3.8-1.2
			c-1.5-0.9-2-2-2-4.7v-2.2c0.1-0.5,0.3-3.8,0.4-4.4c0.1-1.2,0.4-2.4,0.7-3.5c0.1-0.9,0.1-1.9,0.1-3.1c0-0.5,0.1-3.1,0.1-3.6
			s-0.7-3.8-0.7-4.4v-2.6c0-1.1-0.7-6.1-0.7-7.3v-0.5c0.1-2,0.8-4.2,1.1-6.2v-2c0-0.9-0.3-5.7-0.3-6.7v-6.3c0-1.5-1.1-2-1.5-2
			c-0.5,0-0.9,0.4-1.3,0.9c-0.5,0.8-0.8,1.6-1.5,2.4c-0.1,0-4,4.3-4.2,4.6c-0.7,0.8-1.1,1.8-1.6,2.6c-0.9,1.2-2.4,2.4-3.1,3.6
			c-0.4,0.8-0.5,1.5-0.8,2.3c-0.7,1.6-2.7,4-4.3,4.7c-0.9,0.5-4.6,0.9-5.1,0.9c-3.6,0-4.9-1.6-5.3-2.3c-0.4-0.4-1.8-3-2-3.4
			c-0.5-0.7-2-2.6-3.2-3.8c-2.4-2.3-2.6-2.6-5.3-6.7c-0.5-0.9-3.6-5.1-4.9-5.1c-0.5,0-1.6,0.5-1.6,1.9v1.9c0.1,0.3,0.4,2.2,0.4,2.6
			c0,0.7-0.1,1.5-0.1,2.3c0,0.5,0.1,2.8,0.1,3.4c0,0.7-0.3,3.5-0.3,4.2c0,0.4,0.1,2.4,0.1,2.8c0,0.5-0.1,2.8-0.1,3.4s0,1.1,0.1,1.6
			c0.1,0.3,0.5,1.9,0.5,2c0,0.5-0.5,3-0.5,3.5v3.4c0,0.5-0.1,3-0.1,3.5c0,0.5,0.4,3,0.4,3.5c0,0.8-0.8,4.9-0.8,5.4
			c0,0.4,0.5,2.4,0.7,2.8c0,0.7,0,1.3,0.1,2.2c0,0.5,0.3,1.1,0.4,1.8c0.1,0.4,0.4,1.5,0.4,3.2c0,5.3-2.4,5.5-5.5,5.5
			c-0.5,0-3.6-0.3-4.3-0.3c-0.3,0-1.2,0.1-2,0.1c-1.1,0.1-2.4,0.3-3.4,0.3c-4.6,0-4.9-5-4.9-5.4c0-0.9,0.1-1.8,0.4-2.6
			c0.4-1.5,1.1-3.1,1.1-4.6v-1.3c0-0.5,0.3-3.4,0.3-3.9c0-0.9-0.5-5.4-0.5-6.3c0-0.9,0-1.8,0.1-2.6c0.1-1.1,0.5-3.4,0.5-3.8
			c0-0.9-0.5-5.5-0.5-6.5c-0.1-2.3,0-4.6-0.1-6.7c-0.1-0.7-0.4-3.9-0.4-4.6c0-1.1,0.5-5.8,0.5-6.9c0-1.9-0.3-3.8-0.3-5.4
			c0-1.9,0.5-10.1,0.5-11.5c0-0.4-0.3-2.4-0.3-2.8c0-0.5,0.1-2.8,0.1-3.4c0-0.3,0-0.5-0.1-0.8c0-1.1-0.4-2.2-0.5-3.2
			c-0.1-0.7-0.1-1.3-0.3-2c-0.3-1.3-0.8-2.7-0.9-3.9c-0.1-0.7-0.1-1.2-0.1-1.8c0-1.8,0-5,4.4-5c0.9,0,3.1,0,3.9,0.1
			c0.1,0,1.3,0.1,1.2,0.1c0.7,0,2.8-0.3,3.4-0.3c3.9,0,5.7,0,8,3.1c1.5,1.9,1.9,3.9,2.8,5.5c0.7,1.2,1.3,2.3,2.3,3.5
			c0.4,0.5,3,3.1,3.4,3.8c0.7,0.9,1.1,1.9,1.6,2.8c0.8,1.5,2,2.6,3,3.9c0.3,0.4,0.7,1.1,0.9,1.6c0.1,0.4,0.3,0.7,0.5,1.1
			c0.4,0.8,1.1,1.3,1.6,2.2c1.5,2,3.1,4.6,3.8,6.6c0.3,0.5,0.7,1.6,1.6,1.6c1.1,0,3-3.2,3.4-3.9c0.7-1.1,1.1-2.3,1.9-3.5
			c0.8-1.1,1.9-2.3,2.4-3.5c0.4-0.7,0.7-1.3,1.1-2.2c0.5-0.5,3-3,3.5-3.5c0.4-0.7,2.4-4,3-4.6c2.2-2.7,3-4.7,4.3-7.7
			c1.5-3.5,2.4-4.9,3.8-5.7c0.5-0.3,3.1-0.9,4.9-0.9c0.8,0,1.6,0,2.4,0.1c0.8,0,1.8,0.1,2.6,0.1s5.1-0.5,5.9-0.5
			c3.5,0,3.5,2.8,3.5,5.8c0,1.1-1.1,6.1-1.3,7.1c-0.5,2.4-0.5,3-0.5,7.7c0,0.5,0.1,3.4,0.1,4c0,0.8-0.4,4.9-0.4,5.8
			c0,1.8,0.3,3.5,0.3,5.3v1.2c-0.1,1.3-0.5,2.6-0.7,3.9c-0.1,0.7-0.1,1.5-0.1,3.2c0,0.9,0,1.9,0.1,2.8c0.1,0.9,0.4,1.9,0.5,2.7
			c0,0.4,0.1,0.8,0.1,1.2c0,0.7-0.3,4.2-0.3,5c0,2,0.1,3,0.3,3.8c0.3,1.1,0.4,1.8,0.4,2c0,0.5,0,0.9-0.1,1.5c-0.3,1.8-0.7,6.2-0.7,8
			c0,0.7,0.3,4.2,0.3,5c0,0.5-0.3,3.1-0.3,3.8c0,0.9,0.1,1.9,0.3,3c0.4,2.3,0.9,4.7,1.1,6.9v-0.4H174.8z"/>
		<path class="st0" d="M227.1,433.3c-0.9,0.1-3.4,0.3-4.7,0.3c-0.7,0-1.5-0.1-2.3-0.1c-1.3-0.3-2.8-0.5-4.2-0.5
			c-1.5,0-2.4,0.4-4.2,1.3c-1.2,0.7-2.2,1.2-3,3.2c-0.9,1.9-0.9,2.2-0.9,5.9c0,3.1-1.5,5-1.8,5.3c-1.1,1.2-2,1.2-4.6,1.2
			c-0.5,0-0.8,0-3-0.3c-0.8-0.1-1.8-0.3-2.6-0.3c-0.9,0.1-5.4,0.4-6.3,0.4c-2.7,0-3.2-2.6-3.2-3.4c0-1.1,0.4-2,0.9-3.1
			c0.8-1.9,1.9-3.6,2.6-5.4c0.7-1.8,0.9-3.4,1.6-5c0.5-1.5,1.6-3,2.2-4.4c0.8-1.6,1.1-3.1,1.5-4.7c0.7-3.2,1.2-6.3,2.4-9.6
			c0.7-1.9,1.5-3.8,2.2-5.5c1.1-2.6,1.6-5.1,2.4-7.7c0.4-1.2,0.9-2.6,1.5-3.8c0.5-1.2,1.1-2.4,1.6-3.5c1.5-3.8,2-7.4,3.5-11.2
			c0.5-1.6,1.2-3.1,1.8-4.6c0.4-1.5,0.7-3.1,1.1-4.7c0.4-1.3,3.2-8.9,3.8-10.6c0.4-1.6,0.5-3.4,1.6-4.7c1.5-2,2.8-2.2,4.2-2.2
			c0.8,0,4.6,0.1,5.4,0.1c0.7,0,3.9-0.1,4.6-0.1c1.1,0,1.8,0.1,3,0.8c1.6,0.9,1.8,1.3,3,5.3c0.1,0.5,1.2,3.1,1.3,3.8
			c0.3,0.8,0.5,1.6,0.8,2.6c0.9,3.4,3.1,6.5,4.4,9.7c0.7,1.8,1.2,3.5,1.6,5.1c0.3,1.1,0.4,2.2,0.8,3.2c0.5,2,1.6,3.9,2.2,5.8
			c0.7,1.8,0.9,3.6,1.5,5.3c0.4,1.5,1.1,3,1.5,4.4c0.4,1.3,0.5,2.7,1.1,4c0.5,1.3,1.2,2.7,1.9,4c0.4,0.8,1.8,4.3,2.3,6.7
			c0.3,1.8,0.3,2,1.1,3.8c0.3,0.5,0.5,1.1,0.7,1.6c0.3,1.3,0.5,2.6,0.8,3.8c0.5,1.9,1.5,3.6,2.2,5.4c0.5,1.5,0.9,3,1.5,4.4
			c0.5,1.3,1.3,2.7,2,4c1.2,2.2,2.7,4.7,2.7,7.5c0,2.3-1.1,3.2-2.2,3.2c-0.3,0-2.4-0.1-2.7-0.1c-0.8,0-4.3-0.4-5.3-0.4
			c-1.1,0-6.5,0.5-7.3,0.5c-4.2,0-4.2-6.1-4.2-7.8c0-3.6-2.3-8.4-5.3-9.2h-2.3c-0.4,0-2.6,0.3-3.1,0.3c-0.4,0-2.6-0.1-3.1-0.1h-1.5
			L227.1,433.3z M227.4,417.1c0.3,0,1.8,0.3,2,0.3s2-0.4,2.3-0.4c0.7,0,1.2,0.1,1.8,0.1c0.8,0,3.2-0.7,3.2-2.7
			c0-1.2-0.8-2.4-1.3-3.6c-0.5-1.3-0.8-2.7-1.2-4.2c-0.3-1.2-0.7-2.4-1.1-3.6c-0.3-0.9-1.6-5.1-2.3-8.2c-0.3-1.2-0.5-2.6-0.9-3.8
			c-0.5-1.6-1.3-3.2-1.5-4.7c-0.1-0.5-0.1-0.9-0.1-1.3c-0.1-0.5-0.5-1.1-0.5-1.8c-0.3-0.9-0.4-1.8-1.1-1.8c-0.4,0-0.5,0.5-0.7,0.9
			c0,0.1,0.1,1.3,0.1,1.5c0,2-1.3,5.8-3.1,11.1c-0.7,2-1.6,5-2.3,7c-0.1,0.7-0.4,1.5-0.8,2.2c-0.5,1.3-1.2,2.6-1.6,3.9
			c-0.4,1.8-0.5,1.9-1.1,3c-0.5,1.1-0.9,2.2-0.9,3.2c0,0.8,0.3,1.8,0.9,2.2c0.4,0.3,1.1,0.4,1.6,0.5c0.5,0.3,0.9,0.5,1.3,0.7h0.4
			c0.4,0,2.6-0.4,3.1-0.4c0.5,0,0.9-0.1,1.5,0L227.4,417.1L227.4,417.1z"/>
		<path class="st0" d="M279.3,442.6c0.4-2.4,1.2-4.9,1.2-7.3c0-0.8-0.5-4.9-0.5-5.7c0-0.4,0.3-3,0.3-3.5c0-0.5-0.4-3.4-0.4-4
			c0-1.3,0.1-3.5,0.1-4.9c0-0.7,0.3-4,0.3-4.9c0-0.7,0-1.3-0.1-2c-0.3-1.9-0.4-2.6-0.4-5.3c0-0.7,0.1-1.5,0.1-2.2
			c0.3-3.1,0.7-6.7,0.7-9c0-0.8-0.4-4.9-0.4-5.7c0-0.4,0.3-2.8,0.3-3.4c0-0.7-0.4-4.3-0.4-5c0-0.4,0.1-2.7,0.1-3.2
			c0-1.6-0.7-5.9-1.1-7.7c-0.5-2.6-0.5-2.8-0.5-3.5c0-4.2,0.5-5.5,1.2-6.9c1.5-2.6,3-3.1,5.8-3.1c1.1,0,3,0,3.9,0.1
			c1.1,0.1,2,0.3,3,0.4c0.8,0.1,1.5,0.1,2.2,0.1s3.9-0.3,4.6-0.3s3.5,0.3,4.2,0.3c1.1,0,6.5-0.7,7.7-0.7c0.9,0,1.9,0,2.8,0.1
			c0.7,0.1,1.5,0.3,2.2,0.4c3.8,0.4,4,0.4,6.1,1.2c0.8,0.3,1.1,0.4,3.4,1.8c0.7,0.4,1.2,0.7,1.9,1.1c0.5,0.4,1.2,0.8,1.8,1.2
			c0.8,0.7,1.6,1.1,2.4,1.6c0.8,0.5,4.3,3.2,5.4,5.1c0.7,0.9,1.1,1.9,1.6,2.7c0.8,1.1,1.9,2,2.6,3.1c1.8,2.7,2.8,6.7,2.8,9.7v2.2
			c0,0.3,0.1,2,0.3,2.4c0,0.3,0.1,4,0.1,4.4v0.7c-0.1,1.3-0.7,2.8-1.1,4.3c-0.4,1.8-0.4,3.5-1.1,5c-0.3,0.9-2.3,4.7-2.7,5.5
			c-1.1,2.4-1.8,4-3.8,5.7c-0.5,0.5-1.2,0.9-1.9,1.5c-1.6,1.5-2.3,2.2-4.9,4c-1.9,1.5-3.6,2.3-5.4,2.8c-0.5,0.1-2.3,0.7-2.3,2
			c0,0.8,0.5,1.2,2.2,2.4c0.5,0.3,0.9,0.8,1.3,1.1c0.3,0.4,1.3,1.8,1.8,2c0.4,0.5,4.4,3.2,5.3,3.6c1.1,0.5,3.8,1.1,8.2,1.1
			c3.9,0,4.6,3.6,4.6,4.4c0,0.5-0.7,3.5-0.7,4.2c0,0.4,0.1,2.4,0.1,3c0,0.5,0,2.6-0.9,3.9c-1.3,1.9-4.2,2.3-5.3,2.3
			c-0.7,0-1.3-0.1-1.9-0.1h-1.6c-0.3,0-1.6-0.1-1.9-0.1h-1.9c-0.7,0-1.3-0.4-2-0.5c-0.8-0.3-1.6-0.3-2.4-0.5
			c-0.8-0.3-3.9-1.9-4.2-2.2c-0.8-0.4-4.7-3.9-6.5-5.4c-0.9-0.8-5.8-4.7-6.6-5.7c-0.5-0.7-1.1-1.5-1.8-2.2c-0.8-0.7-0.8-0.8-1.5-1.6
			c-0.4-0.7-1.1-1.2-1.6-1.9c-1.2-1.2-2.2-2.2-4.3-2.2c-2.3,0-2.7,3-2.7,5.4c0,1.8,0.3,3.2,0.4,4c0.3,1.3,0.8,2.8,1.1,4.3
			c0,0.7,0.1,1.2,0.1,1.9c0,2.2-0.3,5-3.6,5.3h-3.1c-0.4,0-2.7-0.1-3.1-0.1c-1.8,0-3.4,0.3-5,0.3c-4.6,0-4.6-3.4-4.6-5.1v-3.1H279.3
			z M327,388.4c-0.3-0.7-0.7-1.3-0.8-2c-0.1-0.5-0.1-0.9-0.3-1.5c-0.1-0.4-0.3-0.7-0.4-1.1c-2-4.6-2.7-5.1-5.5-7.3
			c-2.6-2-2.6-2.2-4.6-2.7c-0.4-0.1-0.8-0.3-1.2-0.5c-0.3-0.1-0.7-0.4-0.9-0.5c-0.7-0.1-1.3,0-2-0.3c-0.4,0-0.7-0.3-1.1-0.4
			c-0.4-0.1-0.9-0.1-1.3-0.3c-0.3,0-1.5-0.4-1.9-0.4c-0.1,0-1.5,0.3-1.8,0.3c-0.4,0-0.8-0.1-1.3-0.1c-0.4,0-3.4,0.9-3.5,1.1
			c-3.4,1.3-3.4,5.3-3.4,8.1c0,0.7-0.3,3.9-0.3,4.7c0,1.2,0.5,7,0.5,8.4c0,1.5-0.7,8-0.7,9.4c0,0.7,0.1,1.2,0.4,3.1
			c0.1,0.8,0.1,1.6,0.3,2.4c0.1,0.4,0.4,0.9,0.7,1.2c1.2,1.5,5,2,5.8,2c1.1,0,2-0.1,3-0.3c1.9-0.1,2.2-0.1,3.5-0.8s1.9-0.8,5.9-2.3
			c2.3-0.8,2.8-1.6,3.9-3.5c0.5-0.9,1.2-1.9,2-2.8c1.1-1.3,2.2-2.8,3.4-5.3c0.9-1.9,1.5-7.1,1.5-7.3
			C327.1,389.3,327.1,388.9,327,388.4z"/>
		<path class="st0" d="M360.2,431.4c0-0.8-0.5-4.3-0.5-5c0-0.9,0.4-5.3,0.4-6.1c0-0.5,0.1-3.4,0.1-4c0-0.5-0.1-3.5-0.1-4
			c0-0.3,0.1-1.9,0.1-2.3c0-0.9-0.7-5.4-0.7-6.5c0-2,0.5-4,0.8-6.2c0-0.3,0.1-5.3,0.1-5.7c0-0.5-0.3-3.1-0.4-3.8v-3
			c-0.1-1.6-0.4-3.2-0.4-4.9c0-0.7,0-0.8,0.3-2.6c0.1-1.5,0.1-3.2,0.1-3.9c0-0.8,0-1.5-0.1-2.2c-0.4-2.4-0.4-2.7-0.4-4.3
			c0-0.7,0-1.5-0.3-2.3c-0.4-1.5-0.4-1.6-0.4-2c0-0.5,0.4-3.2,0.5-3.8c0.7-2,2.4-3.6,4.7-3.6c0.7,0,3.9,0.4,4.7,0.4
			c0.3,0,1.2-0.1,2-0.1c0.9-0.1,1.9-0.1,2.2-0.1c2.7,0,5.4,1.3,5.4,4.6v0.5c-0.1,0.7-0.8,4.3-0.8,5c0,0.1,0.1,1.2,0.1,1.3
			c0,0.3-0.1,1.6-0.1,1.9c0,0.1,0,0.8,0.1,1.1c0.1,0.9,0.1,2.3,0.1,3.1c0,0.4-0.3,2.2-0.3,2.7c0,0.3,0.1,1.6,0.1,1.9
			c0,0.5-0.3,2.6-0.3,3.1c0,0.4,0.3,2.7,0.3,3.2c0,1.1-0.3,5.8-0.3,6.9c0,0.4,0.1,2.3,0.1,2.7c0.1,0.3,0,1.9,0,2.2
			c0,1.1,0.1,2,0.1,3c0,0.5-0.3,3.2-0.3,3.9c0,0.9,0.1,2,0.1,3.1c0,1.5-0.4,3-0.4,4.3c0,0.5,0.4,2.8,0.4,3.4v2.3
			c0,0.4,0.1,2.6,0.1,3c0,0.5-0.1,2.7-0.1,3.2c0,1.1,0.3,2.2,0.4,2.7c0.3,1.3,0.3,1.6,0.3,3.1c0.3,3.9,0.3,4,0.8,4.6
			c0.4,0.5,2.8,2.6,5.1,2.6c0.8,0,1.6-0.3,2.4-0.4c0.9-0.1,3.9-0.4,4.7-0.4c0.4,0,3,0.5,3.5,0.5c0.4,0,2.3-0.4,2.7-0.4
			c0.3,0,1.9,0,3.2,0.8c0.8,0.4,1.6,0.9,1.8,3.9c0,0.3-0.1,2.3-0.1,2.7c0,0.5,0.1,1.2,0.3,1.8c0.1,0.7,0.4,2,0.4,2.3
			c0,5.1-4.4,5.1-6.7,5.1c-0.8,0-1.6,0-2.4-0.1c-1.2-0.1-2.6-0.4-3.8-0.5c-0.9-0.1-1.8-0.1-2.7-0.1c-1.2,0-1.5,0-3.6,0.3
			c-1.3,0.3-2.6,0.4-3.8,0.4c-0.7,0-1.3-0.1-1.9-0.1l-3.2-0.4c-0.9-0.1-1.9-0.1-2.7-0.1c-1.8,0-4.2,0.1-5.7,0.3
			c-0.4,0-3,0.3-3.1,0.3c-2,0-3.2-1.9-3.5-2.6c-0.5-0.9-0.5-3.5-0.5-4c0-1.1,0.7-6.7,0.7-8.1v-4.3H360.2z"/>
		<path class="st0" d="M437.3,355.4c0.5,0,2.3,0.1,3.8,0.1c1.8,0.1,3.5,0.3,4,0.3h3.6c0.8,0,4.7,0.3,5.7,0.3h4.4
			c0.9,0,5.3-0.3,6.3-0.3c2.4,0,4.3,1.5,4.3,4.4c0,1.6-0.4,3-0.4,4.4c0,0.4,0.4,2.6,0.4,3.1c0,0.4,0.1,2.3,0.1,2.8
			c0,1.5-0.9,2.7-2.6,2.7c-0.8,0-1.1-0.1-2.6-0.5c-2.2-0.7-3-0.7-5.5-0.7c-0.5,0-3.4-0.3-4-0.4c-0.4,0-2.6,0.1-3.1,0.1
			c-0.4,0-2.7-0.4-3.2-0.4c-0.5,0-2.6,0.3-3.1,0.3s-2.8-0.1-3.4-0.1c-1.3,0-3.1,0.4-3.6,0.7c-2.6,1.2-3.2,4.6-3.2,7.1v0.9
			c0.1,0.8,0.5,3.1,0.8,3.8c0.8,2.3,4.4,2.8,5.8,2.8c1.1,0,2.2-0.1,3.1-0.1c0.4,0,0.8,0,1.2,0.1c0.9,0,1.9,0.3,2.8,0.4
			c0.9,0.1,5,0.4,4.6,0.4c0.9,0,3.5-0.3,4.2-0.3c0.8,0,5.9,0.4,6.5,0.5c3.2,0.5,3.4,3.1,3.4,3.2c0,0.8-0.3,1.5-0.5,2.2
			c-0.1,0.7-0.1,1.2-0.1,1.9c0,0.8,0.5,4.7,0.5,5.5c0,4-3.5,4-5.1,4c-0.5,0-0.7,0-2.4-0.5c0,0-4-0.9-5.3-0.9c-0.5,0-2.6,0.4-3.1,0.4
			c-0.4,0-2.2-0.3-2.7-0.3c-0.4,0-2.3,0.1-2.7,0.1c-1.5,0-3-0.3-4.4-0.3c-4.4,0-5.5,2.6-5.7,3.1c-0.5,0.9-0.5,3.5-0.5,4.9
			c0,1.1-0.3,6.6-0.3,7.8c0,2.2,1.1,9,1.6,10.2c1.5,3.1,5,4,6.7,4.3c0.9,0.1,7.4,0.1,8.6,0.1c7.5,0,8.2-0.3,10.4-0.9
			c0.9-0.4,2-0.8,3-0.8c1.6,0,3.6,1.3,3.6,3.5c0,0.7-0.7,3.8-0.7,4.4c0,0.4,0.4,2.6,0.5,3.2c0.3,1.1,0.4,2.2,0.4,3.1
			c0,3.9-3.6,4.2-5,4.2c-1.3,0-7.4-0.5-8.5-0.5c-0.4,0-2.4,0.1-3,0.1c-1.2,0-2.4-0.1-3.6-0.1c-0.5,0-3,0.1-3.5,0.1
			c-1.2,0-7.5-0.5-9-0.5c-1.8,0-3.6,0.3-5.5,0.4c-0.4,0-6.1,0.7-6.2,0.7c-1.8,0-4.3-1.2-5.1-1.9c-1.2-0.8-2.3-1.9-2.3-7.1
			c0-0.4,0-1.3,0.3-2.7c0.3-1.9,0.5-2.7,0.5-3.4s-0.7-6.7-0.7-8c0-0.1,0.3-6.7,0.3-6.9c0.1-1.2,0.4-2.4,0.5-3.6v-1.9
			c0-2-0.3-11.3-0.3-12.8c0-1.1,0.3-6.5,0.3-7.7c0-1.5-0.1-5.4-0.3-6.9c-0.1-0.8-0.4-4.6-0.4-5.7c0-1.2,0.4-7.1,0.4-8.5
			c0-1.9-0.9-11.2-0.9-11.7c0-3.8,2.3-5.9,6.1-5.9c0.9,0,6.2,0.1,7.3,0.1C432,355.7,436.3,355.4,437.3,355.4z"/>
		<path class="st0" d="M487.5,355.5c0.5,0,3.6,0.7,4.3,0.7c0.5,0,3-0.3,3.5-0.3c0.4,0,2.4,0,3.6,0.8c0.9,0.7,2.3,3,2.7,4.6
			c0.4,1.1,0.5,2.3,0.8,3.5c0.4,0.9,4,8.5,4.3,9c0.9,1.6,2.2,3.1,3,4.6c0.3,0.7,0.7,1.3,0.8,2c0.3,0.5,1.5,3.1,1.5,3.2
			c0.1,0.3,0,0.8,0.3,1.2c0.3,0.3,0.7,0.5,1.1,0.5c0.7,0,1.2-0.4,1.5-0.9c0.3-0.4,0.9-2,1.1-2.4c0.8-1.6,1.3-3.4,1.9-4.9
			c0.1-0.8,0.4-1.6,0.8-2.3c0.5-1.5,1.8-2.8,2.4-4.2c0.7-1.2,0.9-2.3,1.5-3.4c0.4-0.8,0.8-1.5,1.2-2.3s0.7-1.6,0.8-2.4
			c0.1-0.8,0.3-1.5,0.5-2.3c0.5-2,2.7-4.7,5.1-4.7c0.8,0,1.6,0.1,2.4,0.4c0.4,0,1.3,0.1,2.8,0.1c0.8,0,1.5,0,2.3-0.1
			c0.5-0.1,1.1-0.3,1.8-0.3c2.8,0,3.1,2.8,3.1,5.1c0,0.8,0,1.8-0.4,2.7c-0.4,1.1-1.1,2.2-1.6,3.2c-0.5,1.1-0.9,2.2-1.5,3.2
			c-0.4,0.9-0.9,1.8-1.2,2.6c-0.4,0.7-0.5,1.5-0.9,2.2c-0.3,0.8-0.7,1.6-1.1,2.4c-0.4,1.1-0.8,2-1.2,3.1c-0.3,0.5-2,3.6-2.4,4.3
			c-0.5,1.3-0.8,2.7-1.5,3.9c-0.4,1.1-1.1,2-1.5,3c-0.4,0.9-0.8,1.8-1.2,2.7c-0.7,1.6-2,4.2-2.7,5.8c-3.2,6.9-3.5,7.4-3.5,10.2
			c0,0.9,0.5,5,0.5,5.9c0,1.2-0.9,6.6-0.9,8c0,0.4,0.3,2.6,0.3,3.1v4.2c0,0.7-0.3,4.3-0.3,5.3c0,0.5,0,1.1,0.1,1.6
			c0.1,1.2,0.5,2.4,0.8,3.8c0.1,1.1,0.3,2.2,0.3,3.2c0,1.9-0.3,2.7-0.7,3.4c-0.1,0.1-1.2,1.9-3.5,1.9c-0.8,0-5.1-0.4-5.9-0.4
			c-0.8,0-5.1,0.3-5.9,0.3c-3.8,0-4-2.6-4-3.8c0-1.1,0.9-5.7,1.1-5.7c0.1-1.1,0.5-2,0.7-3.1c0.3-0.9,0.4-2.2,0.4-5.5
			c0-1.2,0-2.6-0.1-3.8c-0.1-1.6-0.4-3.1-0.5-4.4v-5.8c0-1.1,0-2.6,0.3-4c0.3-2.3,0.3-2.6,0.3-3.1c0-0.4-0.4-2.6-0.4-3
			c0-0.8,0.3-1.6,0.3-2.4c0-0.8-0.3-1.8-1.2-3.4c-0.9-1.6-1.1-1.8-1.3-3.5c-0.4-2-3.9-9.4-4.6-10.4c-1.1-1.6-2.6-3.2-3.5-4.7
			c-0.5-1.2-0.8-2.4-1.3-3.6c-0.7-1.2-1.6-2.6-2.3-3.9c-0.4-1.1-0.7-2.3-1.1-3.4c-0.3-0.5-1.6-3.4-1.8-3.9c-0.4-0.9-0.5-1.8-0.9-2.7
			c-0.3-0.7-0.7-1.3-0.9-2c-0.7-1.5-1.3-3.6-1.3-5.1C484,358.5,484,355.5,487.5,355.5z"/>
	</g>
	<g>
		<path class="st0" d="M95.2,500.3c0.8-1.6,1.5-3.4,2.3-4.9c3.2-6.5,9.4-13.2,15.9-15.9c0.5-0.3,6.9-2.8,7.5-3.1c0.4-0.1,7.5-2,10-2
			c1.9,0,6.9,0.8,8.2,1.5c2.7,1.3,2.7,2.8,2.8,5.3c0.1,0.9,0.5,5,0.5,6.1c0,1.6-0.3,2.6-0.7,3.9c-0.3,0.9-0.9,3.2-4.3,3.2
			c-1.5,0-2.2-0.1-6.5-1.2c-1.1-0.1-2.2-0.4-3.2-0.4c-1.3,0-7.7,1.1-11.5,6.5c-0.7,1.1-3.5,6.7-4,8.2c-0.3,0.4-2,6.2-2,6.6
			c-0.4,1.8-1.2,7.3-1.2,9v0.4c0,2,0.5,3.9,0.9,6.1c0.7,4.2,0.7,4.7,1.3,6.1c0.4,0.7,0.8,1.3,1.1,2.2c0.3,0.5,0.4,1.2,0.7,1.8
			c0.4,1.2,1.2,2.4,1.9,3.6c0.8,1.5,1.3,3,2.6,4.3c3.5,4.2,8.4,4.6,9.7,4.6h0.9c1.3-0.1,2.7-0.7,3.9-0.8c0.7-0.1,3.2-0.3,3.9-0.3
			c0.5,0,1.2,0.1,2.3,0.7c2.3,1.1,3.5,2.3,3.6,4.7c0.1,1.1,0.1,2,0.3,3.1c0.3,1.2,0.8,2.3,0.9,3.5v0.5c0,8-8,8.5-11.2,8.5
			c-2,0-14.4-1.6-20.6-5.7c-7.8-5.1-12.7-12.4-15.5-17.5c-2.4-4.4-4.4-13.1-4.7-15.4c-0.1-1.6-0.4-9.6-0.4-10.9
			C90.7,510.5,91,510,95.2,500.3z"/>
		<path class="st0" d="M213.8,572.2c-1.1,0.1-2,0-3.1,0.1c-0.3,0-1.9,0.1-2.3,0.1c-0.4,0-2.4-0.1-3-0.1c-0.9,0-2,0.1-3,0.1
			c-0.7,0-3.5-0.4-4-0.5c-2.4-0.3-2.7-0.3-4.7-0.8c-1.2-0.3-2.4-0.4-3.6-0.8c-0.3-0.1-8.1-3-8.9-3.4c-1.3-0.7-5.8-3.4-7-4.4
			c-0.9-0.8-5.7-6.1-6.5-7.1c-0.7-0.8-2.8-4.4-3.4-5.5c-1.2-2.3-1.6-4.3-2.3-6.5c-0.3-0.7-0.5-1.5-0.8-2.3c-0.4-1.2-0.5-2.4-0.8-3.8
			c-0.3-1.3-0.8-2.8-1.1-4.3c-0.1-0.9-0.4-9.2-0.4-10.1c0-9.4,3.2-20.1,5.8-24.5c0.3-0.7,2.2-3.2,2.6-3.8c0.7-1.1,1.1-2.2,1.8-3.1
			c0.7-0.9,1.6-1.9,2.3-2.7c0.5-0.7,0.9-1.2,1.3-1.9c1.3-1.8,1.8-2,5.1-4.3c5.8-3.8,6.1-4,11.6-5.8c4.7-1.6,7.7-2.4,14-2.4
			c5,0,5.9,0.1,6.7,0.1c2.3,0.1,2.4,0.1,3.5,0.1c1.3,0,1.6,0.1,3.8,0.7c1.3,0.3,2.7,0.4,4,0.8c1.1,0.4,2.2,0.9,3.4,1.3
			c2.4,1.1,5,1.8,7.3,3.2c1.2,0.8,1.5,1.1,3.8,3.2c0.5,0.5,3.6,3.1,4,3.8c2.8,2.6,7.4,9.7,8,10.5c0.7,1.3,1.6,3.6,2.2,5
			c0.4,0.8,0.9,1.6,1.3,2.4c0.3,0.8,0.9,5.1,1.2,5.9c0.1,0.7,0.4,1.5,0.4,2.2c0.1,0.5,0.1,3.1,0.1,3.6c0,1.1,0.5,5.8,0.5,6.9
			c0,0.5-0.3,3.5-0.3,4c-0.1,1.1-0.1,2-0.1,3.5c0,0.4,0,0.8-0.1,1.2c-0.1,0.8-0.5,1.6-0.7,2.3c-0.4,1.5-0.3,2.8-0.8,4.3
			c-0.1,0.8-0.5,1.5-0.9,2.3c-0.3,0.8-1.6,4.6-2.2,5.4c-0.3,0.8-0.8,1.5-1.1,2.3c-0.4,0.5-0.5,1.2-0.9,1.9c-0.5,1.1-1.2,2.3-1.6,3
			c-0.7,1.1-1.8,2-2.6,3l-1.2,1.6c-0.5,0.5-3.1,3.1-3.5,3.4c-0.7,0.4-1.5,0.7-2.2,1.2c-0.4,0.3-0.8,0.7-1.2,1.1
			c-0.7,0.5-8.5,5-9.7,5.5c-0.5,0.4-1.2,0.7-1.8,0.8c-0.7,0.1-1.2,0-1.9,0.1c-1.1,0.3-2.2,1.1-3.4,1.2c-0.4,0.1-0.5,0.1-1.6,0.1
			L213.8,572.2z M178.6,531.5c0,1.3,0.3,1.9,0.8,3.2c0.1,0.4,1.2,3.5,1.3,3.9c0.5,2,0.8,3,2.6,4.9c0.7,0.8,1.5,1.5,2.2,2.4
			c0.5,0.7,0.8,1.5,1.5,2.2c0.4,0.5,3,2.8,3.9,3.4c1.2,0.8,2.6,1.1,3.6,1.6c1.2,0.5,2.3,1.1,3.5,1.5c0.4,0.3,3.2,1.2,6.3,1.2
			c0.7,0,7.1-0.4,7-0.4c1.2-0.3,2.2-0.7,3.2-0.9c1.5-0.4,3.1-0.4,4.6-1.2c0.7-0.4,1.3-0.9,2-1.3c0.8-0.7,1.8-0.9,2.6-1.6
			c0.9-0.8,1.6-2,2.6-3c0.7-0.7,1.3-1.2,2-1.9c0.5-0.5,1.2-1.2,1.6-1.9c0.5-0.9,2.3-4.7,2.6-5.3c0.3-0.8,1.3-5,1.8-5.7
			c0.4-1.5,0.5-1.6,0.7-4.6c0-0.5-0.1-2.7-0.1-3.2c0-0.3,0.1-1.9,0.1-2.3V519c0-0.5,0-1.1-0.1-1.6c-0.3-1.5-0.8-3.1-1.2-4.6
			c-0.3-1.1-0.5-2.2-0.8-3.4c-1.3-4-3.6-6.9-4.9-8.4c-0.5-0.7-2.6-3.1-2.8-3.5c-0.5-0.4-1.2-0.7-1.8-1.1c-0.4-0.4-0.8-0.9-1.3-1.3
			c-0.4-0.3-0.8-0.4-1.2-0.5c-0.8-0.4-1.3-1.1-2-1.5c-0.8-0.4-3.8-1.1-5.4-1.5c-1.5-0.4-4.7-0.5-6.1-0.5c-0.4,0-2.7,0.1-3.2,0.3
			h-1.9c-0.8,0-1.8,0-2.6,0.3c-1.3,0.3-2.7,1.2-4,1.6c-1.2,0.4-2.3,0.7-3.5,1.2c-1.5,0.7-2.7,1.9-4.6,3.6c-0.7,0.7-0.9,0.8-2.3,2.8
			c-0.4,0.7-1.1,1.3-1.5,2c-0.3,0.4-2.8,5.4-3.1,6.2c-0.4,1.6-0.5,3.1-0.8,4.4c-0.3,1.1-0.7,2.2-0.8,3.2c-0.1,0.7-0.1,0.9-0.1,3.5
			v1.3c-0.3,1.5-0.7,2.8-0.7,4.2c0,0.4,0.4,3,0.4,3.5V531.5z"/>
		<path class="st0" d="M299.4,492.6c-2.2,0-2.3-0.7-4.6-0.7c-1.8,0-4.6,0.3-6.2,1.1c-1.1,0.5-2.7,1.3-2.7,7.5c0,0.9,0.3,4,0.7,4.7
			c1.2,2.6,5,2.7,5.9,2.7c0.4,0,2.3-0.1,2.7-0.1c1.1,0,5.9,0.7,7,0.7c0.5,0,1.2,0,1.6-0.1c0.3,0,3.4-0.4,3.2-0.4
			c2.6,0,6.7,1.5,6.7,4.6c0,0.5-0.4,3.1-0.4,3.8s0.1,4,0.1,4.9c0,2.2-2.2,3.9-5.4,3.9c-0.4,0-6.2-0.7-6.1-0.7
			c-0.4,0-2.2,0.3-2.6,0.3c-0.4,0-2.6-0.3-3-0.3c-0.5,0-2.8,0.3-3.4,0.3c-0.4,0-2-0.1-2.3-0.1c-2.3,0-3.8,1.8-4.3,2.7
			c-0.4,0.9-0.5,4.7-0.5,5.8c0,0.4,0.1,1.9,0.1,2.3c0,0.7-0.3,3.8-0.3,4.3v3.5c0,0.5,0.5,2.8,0.5,3.4c0,0.3-0.1,1.2-0.1,1.5
			c0,0.3,0.3,1.8,0.3,2.2c0,0.3-0.3,2.2-0.3,2.6c0,0.8,0.7,4.9,0.8,5.7c0,0.8,0.1,1.5,0.3,2.3s0.4,1.5,0.5,2.3
			c0.1,0.5,0.1,1.1,0.1,1.6c0,2.7-1.1,6.1-4.4,6.1h-2.8c-0.8-0.1-1.6-0.3-2.4-0.3c-0.5,0-3,0.4-3.6,0.4c-1.1,0-4.2,0-5.7-3.4
			c-0.3-0.5-0.9-3.2-0.9-4.3c0-0.7,0.7-4.7,0.8-5.4c0.1-1.2,0.1-1.5,0-4.3v-2.8c-0.1-0.7-0.4-1.3-0.5-2c-0.1-0.5-0.1-1.1-0.1-1.6
			c0-0.7,0.1-1.9,0.3-3.9c0.3-2.3,0.4-5.9,0.4-10.5v-3.8c-0.1-0.7-0.4-4.3-0.4-5.1c0-0.7,0.1-1.5,0.1-2.2v-1.3
			c0-0.5,0.1-3.4,0.1-3.9c0-1.2-0.1-5.3-0.1-6.1c-0.1-1.3-0.5-2.7-0.5-4v-4.7c0-0.9,0-2.4,0.1-4.4c0-0.5,0.4-3.8,0.4-4
			c0-1.1-0.3-2.2-0.4-3.2c-0.1-0.7,0-1.2-0.1-1.9c0,0-0.8-4.6-0.8-5.4c0-4.4,4-5.5,5.5-5.9c0.7-0.1,1.6-0.3,2.6-0.3
			c1.6,0,2.2,0.3,4.7,0.3c2.8,0,4-0.3,4.7-0.3l2,0.1c0.8,0,1.6,0.1,3,0.1c1.6,0,2.3,0,2.8,0.1c3.2,0.8,4.6-0.1,6.6-0.1
			c1.2,0,1.6,0.3,2.6,0.4c0.7,0.1,4.9-0.4,7-0.4c2.6,0,4.2,1.3,4.6,2.4c0,0,0.7,3.1,0.7,3.4c0,0.5-0.1,1.2-0.1,1.8
			c0,0.9,0.4,1.8,0.4,2.7c0,0.4-0.5,3-0.8,3.6c-0.9,2.3-3.2,3.2-6.6,3.2c-0.7,0-2.8-0.7-4.2-0.7h-3.4V492.6z"/>
		<path class="st0" d="M365.3,492.6c-2.2,0-2.3-0.7-4.4-0.7c-1.8,0-4.6,0.3-6.2,1.1c-1.1,0.5-2.7,1.3-2.7,7.5c0,0.9,0.3,4,0.7,4.7
			c1.2,2.6,5,2.7,5.9,2.7c0.4,0,2.3-0.1,2.7-0.1c1.1,0,5.9,0.7,7,0.7c0.5,0,1.2,0,1.6-0.1c0.3,0,3.4-0.4,3.2-0.4
			c2.6,0,6.7,1.5,6.7,4.6c0,0.5-0.4,3.1-0.4,3.8s0.1,4,0.1,4.9c0,2.2-2.2,3.9-5.4,3.9c-0.4,0-6.2-0.7-6.1-0.7
			c-0.4,0-2.2,0.3-2.6,0.3c-0.4,0-2.6-0.3-3-0.3c-0.5,0-2.8,0.3-3.4,0.3c-0.4,0-2-0.1-2.3-0.1c-2.3,0-3.8,1.8-4.3,2.7
			c-0.4,0.9-0.5,4.7-0.5,5.8c0,0.4,0.1,1.9,0.1,2.3c0,0.7-0.3,3.8-0.3,4.3v3.5c0,0.5,0.5,2.8,0.5,3.4c0,0.3-0.1,1.2-0.1,1.5
			c0,0.3,0.3,1.8,0.3,2.2c0,0.3-0.3,2.2-0.3,2.6c0,0.8,0.7,4.9,0.8,5.7c0,0.8,0.1,1.5,0.3,2.3c0.1,0.8,0.4,1.5,0.5,2.3
			c0.1,0.5,0.1,1.1,0.1,1.6c0,2.7-1.1,6.1-4.4,6.1h-2.8c-0.8-0.1-1.6-0.3-2.4-0.3c-0.5,0-3,0.4-3.6,0.4c-1.1,0-4.2,0-5.7-3.4
			c-0.3-0.5-0.9-3.2-0.9-4.3c0-0.7,0.7-4.7,0.8-5.4c0.1-1.2,0.1-1.5,0-4.3v-2.8c-0.1-0.7-0.4-1.3-0.5-2c-0.1-0.5-0.1-1.1-0.1-1.6
			c0-0.7,0.1-1.9,0.3-3.9c0.3-2.3,0.4-5.9,0.4-10.5v-3.8c-0.1-0.7-0.4-4.3-0.4-5.1c0-0.7,0.1-1.5,0.1-2.2v-1.3
			c0-0.5,0.1-3.4,0.1-3.9c0-1.2-0.1-5.3-0.1-6.1c-0.1-1.3-0.5-2.7-0.5-4v-4.7c0-0.9,0-2.4,0.1-4.4c0-0.5,0.4-3.8,0.4-4
			c0-1.1-0.3-2.2-0.4-3.2c-0.1-0.7,0-1.2-0.1-1.9c0,0-0.8-4.6-0.8-5.4c0-4.4,4-5.5,5.5-5.9c0.7-0.1,1.6-0.3,2.6-0.3
			c1.6,0,2.2,0.3,4.7,0.3c2.8,0,3.9-0.3,4.7-0.3l2,0.1c0.8,0,1.6,0.1,3,0.1c1.6,0,2.3,0,2.8,0.1c3.2,0.8,4.6-0.1,6.6-0.1
			c1.2,0,1.6,0.3,2.6,0.4c0.7,0.1,4.7-0.4,7-0.4c2.6,0,4.2,1.3,4.6,2.4c0,0,0.7,3.1,0.7,3.4c0,0.5-0.1,1.2-0.1,1.8
			c0,0.9,0.4,1.8,0.4,2.7c0,0.4-0.5,3-0.8,3.6c-0.9,2.3-3.2,3.2-6.6,3.2c-0.7,0-2.8-0.7-4-0.7h-3.6V492.6z"/>
		<path class="st0" d="M419.5,475.9c0.5,0,2.3,0.1,3.8,0.1c1.8,0.1,3.5,0.3,4,0.3h3.6c0.8,0,4.9,0.3,5.8,0.3h4.3
			c0.9,0,5.3-0.3,6.3-0.3c2.4,0,4.2,1.5,4.2,4.3c0,1.6-0.4,3-0.4,4.4c0,0.4,0.4,2.6,0.4,3.1c0,0.4,0.1,2.3,0.1,2.8
			c0,1.5-0.9,2.7-2.6,2.7c-0.8,0-1.1-0.1-2.6-0.5c-2.2-0.7-3-0.7-5.5-0.7c-0.5,0-3.4-0.3-4-0.4c-0.4,0-2.6,0.1-3.1,0.1
			c-0.4,0-2.7-0.4-3.2-0.4s-2.6,0.3-3.1,0.3c-0.5,0-2.8-0.1-3.4-0.1c-1.3,0-3.1,0.4-3.6,0.7c-2.6,1.2-3.2,4.6-3.2,7.1v0.9
			c0.1,0.8,0.5,3.1,0.8,3.8c0.8,2.3,4.3,2.8,5.8,2.8c1.1,0,2.2-0.1,3.1-0.1c0.4,0,0.8,0,1.2,0.1c0.9,0,1.9,0.3,2.8,0.4
			c0.9,0.1,5,0.4,4.6,0.4c0.9,0,3.5-0.3,4.2-0.3c0.8,0,5.9,0.4,6.5,0.5c3.2,0.5,3.4,3.1,3.4,3.2c0,0.8-0.3,1.5-0.5,2.2
			c-0.1,0.7-0.1,1.2-0.1,1.9c0,0.8,0.5,4.7,0.5,5.5c0,4-3.5,4-5.3,4c-0.5,0-0.7,0-2.4-0.5c0,0-4-0.9-5.1-0.9c-0.5,0-2.6,0.4-3.1,0.4
			c-0.4,0-2.2-0.3-2.7-0.3c-0.4,0-2.3,0.1-2.7,0.1c-1.5,0-3-0.3-4.4-0.3c-4.3,0-5.5,2.6-5.7,3.1c-0.5,0.9-0.5,3.5-0.5,4.7
			c0,1.1-0.3,6.6-0.3,7.8c0,2.2,1.1,9,1.6,10.2c1.5,3.1,5,4,6.7,4.2c0.9,0.1,7.4,0.1,8.6,0.1c7.5,0,8.2-0.3,10.4-0.9
			c0.9-0.4,2-0.8,3-0.8c1.6,0,3.6,1.3,3.6,3.5c0,0.7-0.7,3.8-0.7,4.4c0,0.4,0.4,2.6,0.5,3.2c0.3,1.1,0.4,2.2,0.4,3.1
			c0,3.9-3.6,4.3-5,4.3c-1.3,0-7.4-0.5-8.5-0.5c-0.4,0-2.4,0.1-3,0.1c-1.2,0-2.4-0.1-3.6-0.1c-0.5,0-3,0.1-3.5,0.1
			c-1.2,0-7.5-0.5-9-0.5c-1.8,0-3.6,0.3-5.4,0.4c-0.4,0-6.1,0.7-6.2,0.7c-1.8,0-4.4-1.2-5.1-1.9c-1.2-0.8-2.3-1.9-2.3-7.1
			c0-0.4,0-1.3,0.3-2.7c0.3-1.9,0.5-2.7,0.5-3.4s-0.7-6.7-0.7-8c0-0.1,0.3-6.7,0.3-6.9c0.1-1.2,0.4-2.4,0.5-3.6v-1.9
			c0-2-0.3-11.3-0.3-12.8c0-1.1,0.3-6.5,0.3-7.7c0-1.5-0.1-5.4-0.3-6.9c-0.1-0.8-0.4-4.6-0.4-5.5c0-1.2,0.4-7.1,0.4-8.5
			c0-1.9-0.9-11.2-0.9-11.7c0-3.8,2.3-5.9,6.1-5.9c0.9,0,6.1,0.1,7.3,0.1C414.2,476.1,418.5,475.9,419.5,475.9z"/>
		<path class="st0" d="M490.9,475.9c0.5,0,2.3,0.1,3.9,0.1c1.8,0.1,3.5,0.3,4,0.3h3.6c0.8,0,4.7,0.3,5.7,0.3h4.4
			c0.9,0,5.3-0.3,6.3-0.3c2.4,0,4.3,1.5,4.3,4.3c0,1.6-0.4,3-0.4,4.4c0,0.4,0.4,2.6,0.4,3.1c0,0.4,0.1,2.3,0.1,2.8
			c0,1.5-0.9,2.7-2.6,2.7c-0.8,0-1.1-0.1-2.6-0.5c-2.2-0.7-3-0.7-5.7-0.7c-0.5,0-3.4-0.3-4-0.4c-0.4,0-2.6,0.1-3.1,0.1
			c-0.4,0-2.7-0.4-3.2-0.4c-0.5,0-2.6,0.3-3.1,0.3s-2.8-0.1-3.4-0.1c-1.3,0-3.1,0.4-3.6,0.7c-2.6,1.2-3.2,4.6-3.2,7.1v0.9
			c0.1,0.8,0.5,3.1,0.8,3.8c0.8,2.3,4.3,2.8,5.8,2.8c1.1,0,2.2-0.1,3.1-0.1c0.4,0,0.8,0,1.2,0.1c0.9,0,1.9,0.3,2.8,0.4
			c0.9,0.1,5,0.4,4.6,0.4c0.9,0,3.5-0.3,4.2-0.3c0.8,0,5.9,0.4,6.5,0.5c3.2,0.5,3.4,3.1,3.4,3.2c0,0.8-0.3,1.5-0.5,2.2
			c-0.1,0.7-0.1,1.2-0.1,1.9c0,0.8,0.5,4.7,0.5,5.5c0,4-3.5,4-5.3,4c-0.5,0-0.7,0-2.4-0.5c0,0-4-0.9-5.1-0.9c-0.5,0-2.6,0.4-3.1,0.4
			c-0.4,0-2.2-0.3-2.7-0.3c-0.4,0-2.3,0.1-2.7,0.1c-1.5,0-3-0.3-4.3-0.3c-4.4,0-5.5,2.6-5.7,3.1c-0.5,0.9-0.5,3.5-0.5,4.7
			c0,1.1-0.3,6.6-0.3,7.8c0,2.2,1.1,9,1.6,10.2c1.5,3.1,5.1,4,6.7,4.2c0.9,0.1,7.4,0.1,8.6,0.1c7.5,0,8.2-0.3,10.4-0.9
			c0.9-0.4,2-0.8,3-0.8c1.6,0,3.6,1.3,3.6,3.5c0,0.7-0.7,3.8-0.7,4.4c0,0.4,0.4,2.6,0.5,3.2c0.3,1.1,0.4,2.2,0.4,3.1
			c0,3.9-3.6,4.3-4.9,4.3c-1.3,0-7.4-0.5-8.5-0.5c-0.4,0-2.4,0.1-3,0.1c-1.2,0-2.4-0.1-3.6-0.1c-0.5,0-3,0.1-3.5,0.1
			c-1.2,0-7.5-0.5-9-0.5c-1.8,0-3.6,0.3-5.4,0.4c-0.4,0-6.1,0.7-6.2,0.7c-1.8,0-4.4-1.2-5.1-1.9c-1.2-0.8-2.3-1.9-2.3-7.1
			c0-0.4,0-1.3,0.3-2.7c0.3-1.9,0.5-2.7,0.5-3.4s-0.7-6.7-0.7-8c0-0.1,0.3-6.7,0.3-6.9c0.1-1.2,0.4-2.4,0.5-3.6v-1.9
			c0-2-0.3-11.3-0.3-12.8c0-1.1,0.3-6.5,0.3-7.7c0-1.5-0.1-5.4-0.3-6.9c-0.1-0.8-0.4-4.6-0.4-5.5c0-1.2,0.4-7.1,0.4-8.5
			c0-1.9-0.9-11.2-0.9-11.7c0-3.8,2.3-5.9,6.1-5.9c0.9,0,6.1,0.1,7.3,0.1C485.8,476.1,489.9,475.9,490.9,475.9z"/>
	</g>
	<g>
		<g>
			<path class="st0" d="M397,270.6c-1.1,0.4-3,0.7-3.2,1.2c-0.1,0.5-1.1,1.2-1.6,1.6c-0.5,0.4,0.1,1.2,0.7,0.9
				c0.5-0.4,7.1-3.8,7.5-4.2c0.4-0.4,0.7-1.1,0.3-0.8C400.7,269.3,398,270.1,397,270.6z"/>
			<path class="st0" d="M399.2,273.8c0,0-0.7-0.4-0.4,0.5c0,0-1.6,1.2-3.1,1.1c-1.5-0.1-3.4,1.2-3.1,1.6c0.4,0.4,4.6-0.1,5.4-0.9
				c0.7-0.8,0.7-1.3,0.7-1.3S400.5,274.7,399.2,273.8z"/>
			<path class="st0" d="M401.3,264.1c0,0-1.6,0.4-2.2,0.9c-0.5,0.5-0.9-0.1-1.5,0.5c-0.5,0.5-4.9,3.4-4,3.8c0.8,0.3,1.5-0.3,1.8-0.5
				c0.3-0.4,0.8,0,1.3-0.4c0.5-0.4,3-2.7,3.5-2.8C400.7,265.4,402.3,264.3,401.3,264.1z"/>
			<path class="st0" d="M241.7,156.3c1.6-0.9,2-2.6,3.2-2.8c1.2-0.4,2.2-0.5,2.7-1.3c0.5-0.9,1.6-1.5,0.9-2s-1.5-0.1-1.5-0.1
				s-2.6,1.6-3.9,2.4c-1.3,0.9-3.1,2.7-3.1,3.2C240.2,155.9,240.2,157.3,241.7,156.3z"/>
			<path class="st0" d="M238.9,162.2c0.5-0.7,0.8-0.8,1.8-1.2c1.1-0.4,1.1-0.5,1.8-1.5c0.5-0.9,2.2-3.5,0.7-2.8c0,0-1.3,1.1-2,1.9
				c-0.8,0.8-3,2.7-2.8,3.1C238.5,162.2,238.2,162.9,238.9,162.2z"/>
			<path class="st0" d="M395.7,295.1c0.8,0.5,2.8,2.6,3.6,1.8c0.8-0.7,1.5-2.4,1.5-2.6c0-0.3-0.4-0.5-0.4-0.7c0-0.3,1.1-1.9,0.7-1.6
				c0,0-0.3,0.7-1.2,0.9c-0.9,0.1-2.8,0.4-3.4,0.9C396,294.2,394.9,294.5,395.7,295.1z"/>
			<path class="st0" d="M468.9,155.9c-0.5-0.7-1.3,0.1-1.5,1.8c-0.1,1.6,0.3,3.2-0.8,2.8c-1.1-0.4-1.9-5.5-0.8-6.6
				c1.1-1.1,1.2,0,2-0.9c0,0,0.7-0.3,0.5-2.3c-0.1-2-1.8-3.9-1.3-4.6c0.3-0.5,1.1-2.8,0.4-4.3c-0.7-1.5-1.2-4-1.1-4.4
				c0.1-0.5,0.5-1.6,0.1-2.3c-0.4-0.5,0.3-2.7-0.3-3.9c-0.5-1.2-2.7-4-2.8-4.7c-0.3-0.8-5.4-4.9-4.6-5.5c0.8-0.7,1.1-1.1,2-0.4
				c0.8,0.8,3.8,3.9,3.9,3.6c0.1-0.3-1.6-8.5-2.6-9.3c-0.9-0.8-1.1,2.8-2.2,3.4c-0.9,0.5-2.4,1.3-3.6-2.7c0,0,1.8-0.5,1.8-2.2
				c-0.1-1.6-2.7-2.4-2.8-3.1c-0.1-0.7,1.2-0.3,1.2-0.9c0,0-2.3-2.8-3.5-4.3c-1.1-1.5-1.5-8.2-3.5-10s-3.4-2.7-4.2-3.6
				c-0.9-0.9-5.7-4.6-8.6-4.2c-3.1,0.3-5.4,0.4-3.8-1.3c1.6-1.8,6.1-1.6,5-3.1c-1.1-1.5-2.4-2.7-4-1.5c-1.8,1.2-4.7,1.9-4.4,3.4
				c0.3,1.5,1.1,1.9-0.3,2.8c-1.5,0.9-6.2,3.4-6.2,7c0,0-0.9,1.2-1.5-0.5c-0.7-1.8,1.5-6.5,1.9-8.1c0.3-1.8-0.5-2.7,0.4-3.1
				c1.1-0.4,3.4-3.5,2.4-4c-0.9-0.5-2.8-1.1-4.3,3.1c-1.5,4.2-1.5,3.6-1.3,4.9c0.1,1.1-0.1,1.5-0.3,2.4c0,0.9,0.3,2.2-0.5,2
				c-0.8-0.1-1.8-1.1-1.6-4.4c0-3.4,0.5-3.4,0-3.9c-0.5-0.5-3,0.3-1.3-1.8c1.6-2,3-4.6,1.1-4.4c-1.8,0.1-2.4,1.2-2.2-0.5
				c0.3-1.8,2.2-2.2,0.5-2.6c-1.9-0.5-3.4-0.9-4.7-0.4c-1.3,0.4-2.3-1.1-3-0.3s-1.3,3.2-2.4,3.2s-0.9,0.3-1.5,1.2
				c-0.5,0.9-3.4,1.5-3.8,2.8c-0.3,1.2,1.5,3.5,3.2,5.4c1.6,2,3,4.4,1.6,5c-1.5,0.5-1.5,1.1-2-0.7c-0.7-1.8-1.2-3.5-2-3.9
				c-0.8-0.5,0.9,5,0.8,5.7c-0.1,0.8-1.9,3.2-2.4,2c-0.4-1.3-0.8-6.5-1.8-7.3s-2,0.7-3.1,1.6c0,0-3.1-2.7-5-1.9
				c-2,0.8-2.4,4.6-4.2,7.4c-1.9,2.8-0.8,5-5,5.3c-4.2,0.3-6.1-0.3-6.9,1.9c-0.8,2-4.7,3.1-4.6,4.7c0.1,1.6-0.1,0.9-1.2,1.6
				s-3.9,3.9-4,5.1c-0.1,1.2,0,0.9-0.4,1.3c0,0-3.2,3.5-2.8,4.7c0.4,1.1-2.6,2.6-1.2,3.2c1.2,0.7,2.3-0.4,3-0.1
				c0.5,0.1,1.5,0.7-0.4,1.8c-1.8,1.1-9.4,3.5-8.9,4.4s4.3,2.2,3.6,2.6c-0.8,0.4-3.1,1.8-0.4,2.3c2.7,0.5,5.9-2,7.4-2
				c1.5,0,0.7,1.1,1.6,0.7c0.9-0.4,1.9-2.7,3.4-2.8c1.5-0.1,2-0.1,1.5,1.3c-0.4,1.5-0.5,3.2-0.5,3.2s-3.2,4.6-3.6,5.4
				c-0.3,0.8-1.2,3.8-5.3,3.6c0,0-2.7-0.4-1.2-1.1c1.5-0.7,3.9-1.5,4.2-2c0.1-0.7,0.8-2.7,1.3-3.2c0.5-0.5,1.2-4-0.1-3.5
				c-1.3,0.7-3.9,4.6-5.5,3.2c-1.6-1.5-0.7-0.4-2.2-0.8c-1.6-0.4-5.9-2.7-5.5-0.8c0.3,2,3.5,2.3,1.6,3.4c-2,1.1-3.2,2.8-4.2,2.3
				c-0.9-0.4-15.6,4.2-17.3,3.6c-1.8-0.5-3.5-0.4-4.2-0.4c0,0-7.8-3.1-8.6-2.8s-5.3-1.9-5-1.2c0.1,0.7-6.2-3-5.3-1.5
				c0.9,1.5-6.5-4.4-21.8-5.5c-15.4-1.1-17.8,0.5-17.8,0.5s-7.3,1.8-12.8,2c-5.5,0.3-16.8-0.1-16.8-0.1s-2.2,0.5-3.1,0
				c-0.9-0.5-1.8,0-3,0.5c-1.3,0.5-3.6,0.4-3.6,0.4s-0.4,0.7-1.9,0.7c-1.5,0-2.3,0.5-4.6,1.2c-2.3,0.5-3.6,0.1-5.3,0.9
				c-1.8,0.8-4.4,0.9-7.3,3.2s-6.3,5-7.8,6.6c-1.5,1.8-3.6,3.2-4.2,5.1c-0.5,1.9-1.9,3.1-2.8,3.2c0,0-0.4,4.3-1.3,5.7
				c-0.9,1.3-2.7,5.7-3,9.3c-0.4,3.6-0.8,10.6-1.3,11.1c-0.5,0.4-1.1,9.4-0.1,10.6c0.9,1.1,0,1.9,0,3.1c0,1.1-0.5,7.4-0.5,8.5
				c0,1.1-0.4,1.3-0.4,1.9v5.5c0,1.3-0.5,6.1-0.9,6.9c-0.4,0.8,0.4,1.9-0.4,3.2c-0.8,1.3-0.5,3.6-1.5,5c-0.9,1.3-3,2.3-2.8,4.3
				c0,0-10.1,9.2-12,10.1s-2.8,2.7-4.2,3.2c-1.3,0.5-2.8,3.6-3.4,4.3c-0.5,0.8-4.2,2.3-4.6,5.3c0,0-1.9,2.3-2,3.6
				c0,0-3.4,2.8-3.1,4.2c0,0-6.6,10.1,6.1,7.1c0,0-0.4,3.8,5-1.1c0,0,2,2.3,4.6-3.6c0,0,1.8,3.8,4.6-6.5c0,0,3.4,0.8,3.8-4.6
				c0,0,2.3-2.7,3.6-3.8c0,0,0.5-2.7,2.8-2.7c0,0,8.2-8.4,10.2-17.3c2.2-8.9,4.7-30.6,4.3-33.6c0,0,0.8-0.9,0.8-3.4
				c0-2.4,0.9-5,0.9-5s-0.4-2.7,0-4c0.4-1.3,1.9-1.9,1.8-3.2c-0.1-1.3,0-3.8,0.8-5.1c0.8-1.3,0.5-3.6,0.9-4.6
				c0.4-0.9,5.5-14,15-18.1c0,0,14-2.3,15.6-1.8c1.5,0.5,1.9,0.1,0.8,2.7c-1.1,2.4-2,1.9-2.3,6.6c0,0-3.2,8.5-2.2,11.2
				c0,0-4.7,4.6-3.1,5c1.1,0.3,1.9,0.7,2.6,1.2c-0.1,1.6-0.3,3.2-0.8,3.6c-0.9,0.7-3,1.1-1.5,1.9c1.5,0.8,1.5,0.3,1.5,1.6
				c-0.1,1.3-2.2,4.7-1.6,6.2c0,0-3.2,2.4-2.8,4.2c0.4,1.6,0.9,1.9,0.3,2.2c-0.5,0.4-1.5,1.2-1.5,1.8c0,0.5-2.7,1.6-2.2,3.6
				c0.4,1.9,0.1,2.7,4.3,5.7c0,0-0.5,2.8,0.4,3.2c0.9,0.4,0.1-1.1,1.2-1.8c0.9-0.5,1.8-2,3.2-1.3c1.6,0.7,1.8,1.2,1.1,1.8
				c-0.8,0.5-3.5,1.6-3.1,3c0.4,1.3,1.8,0.7,2.4,0.8c0.7,0.1,1.3,0.5,1.1,1.1s-2.3,1.8-1.6,3.1c0.7,1.2,1.5,1.2,1.1,3
				c-0.4,1.6-3.9,8.9-8.8,12.8c0,0-2.7,6.6-2.3,8.5c0.3,1.9,0.9,2,0.8,3.4c0,1.3,0.1,2.8,0.4,3.8c0.3,1.1-0.8,7.8-0.7,9.7
				c0.1,1.9,0.1,2.6-0.3,3.9c-0.4,1.3-1.5,4.9-1.3,6.5c0.1,1.5,1.6,5.5,1.3,6.1c-0.3,0.7-1.8,0-1.1,1.1c0.8,1.2,7.7,7.8,8.9,9
				c0,0,8.5,4.2,9.7,4.2c1.1,0,0.3-1.8,2.8-0.8c2.6,0.9,4,2.2,5,2.2c1.1,0,1.2,1.2,2.4,1.8c1.1,0.5,1.9,0.9,6.5-1.1c0,0,0,1.9,0.8,2
				c0.8,0.3,4.7-1.5,4.3-1.9c-0.4-0.4-1.6-0.8-0.7-1.1c0.9-0.3,1.6-1.1,2-1.2c0.5-0.1,0.3,0.9,0.8,0.8c0.5-0.3,2-2.3,1.6-3.5
				c-0.3-1.1-1.6-7.4-2.2-7.5c-0.5-0.3-2.6,0-1.8-0.4c0.8-0.5,1.5-0.3,1.1-0.8c-0.4-0.7-3.9-6.1-5.8-7c-1.9-1.1-9.2-3.8-9.6-5.1
				c-0.4-1.2-0.5-5.4-0.4-5.9c0.1-0.5,0.1-1.8,0-2.2c-0.1-0.5,0.4-3.5,0.4-3.9c0-0.3-0.3-1.2,0-2.2c0.3-0.9,2.3-2.2,2.8-1.8
				c0.4,0.4,1.6-1.2,1.6-1.5c0-0.4-0.9,0.5-1.6,0.5s-1.3-0.1-0.8-1.3c0.5-1.2,3.4-3.8,4.9-4.7c0,0,0.7-2,1.6-3.2
				c0.9-1.1,2.2-2.4,3.8-2.8c1.6-0.4,6.9-3.8,9.7-7.3c0,0,1.8-2.3,2-4c0.4-1.8,0.8-3,1.6-3.2c0.8-0.4,1.6-0.1,2.3,1.5
				c0.8,1.6,1.8,2.4,2.4,4.2c0.7,1.8,1.8,5.4-1.5,10.1c-3.1,4.7-6.3,7.7-4.3,12.7c2,5,3.8,5.5,4.7,7.4c0,0,3.2,4.3,3.6,5.3
				c0.3,0.9,3.5,14.4,5.8,17.8c2.4,3.2,3.2,7,4.3,7c0.9-0.1,4.4-2.3,6.2-1.1c1.6,1.2,1.5,2.4,7.8,1.6c6.2-0.8,13.5-1.6,13.9-2.3
				c0.5-0.8-1.8-1.9-0.7-1.9s2.3,0.9,2.4,0.5c0-0.4,0.4-0.3,0.4-0.1c0,0.3,0.8,0.9,1.1,0.7c0.3-0.3,3.2-5,2.7-5.1
				c-0.5-0.1-1.1-0.4-0.9-0.7c0.1-0.4,0.8-1.6,0.3-2.6c-0.5-0.9-4.9-7.7-7.3-8.9c-2.4-1.2-9.2,0-10.2-0.3c-1.2-0.3-1.6-0.5-1.5-1.9
				c0.1-1.3,1.3-1.2,0.5-2.3c-0.9-1.2-1.5-1.3-2.3-3.2c-0.7-1.8-3.6-8.8-2.7-12.9c0,0,0.4-5,0.3-5.7c0-0.7,1.2-3,3-3.8
				c0,0,1.8-2.4,2.3-3.9c0.5-1.6,2.7-8.9,2.7-10.1c0-1.1-0.7-2.3,0.1-2.8c0.8-0.7,1.2-0.9,1.3-1.5c0.1-0.5-0.4-3.8,0.1-3.2
				c0.4,0.5,2.2,6.5,3,5.9c0.7-0.5,3-3.5,3.2-3c0.4,0.5,0.8,4,2,4.4c1.3,0.4,1.5,0.1,2.2,0.1c0.8,0,1.3,0.8,1.9,0.8
				c0.4-0.1,2.3-3.5,2.6-3.4c0.3,0,0.8,0,0.5,1.9c-0.3,1.8-0.3,4,0.8,3.8c1.2-0.3,1.8-2.4,1.8-3.1c0.1-0.8,0.4-2,1.1-1.5
				c0.5,0.5,1.1,3.6,1.1,4.2s0.7-3.8,1.8-4.2c0.9-0.4,1.8,0.1,2,1.8s-0.5,2.6-0.4,3.2c0.1,0.8,1.1,1.3,2.2,1.2s1.6-0.5,1.5-1.2
				c-0.1-0.7-0.4-2,0.7-2.2c1.2-0.1,1.8,0,1.3,2c-0.3,2-0.5,2.3,0.3,2.6c0.9,0.3,2.8-0.4,3.5,0.3c0.7,0.5,0.8,1.2,1.6,0.8
				c0.8-0.3,0.9-0.5,1.5-0.4c0.4,0,1.2-0.5,2-0.5c0.8,0,1.2,0.1,1.3,1.3c0.1,1.2,3.1,5.5,3.8,6.9c0,0-0.3,1.1,2.4-0.1
				c2.7-1.3,2-0.9,3.4-1.1c1.3,0,2-1.1,2.7-0.8c0.8,0.3,1.1,0.9,0.3,1.8c-0.8,0.8-2,1.2-2.8,0.8c-0.9-0.4-1.8-1.3-1.9-0.7
				c-0.3,0.7-3.2,4.2-1.8,5.1c1.5,0.8,1.6-0.1,2.4,1.3c0.7,1.3,0.8,3,2,3.4c0,0,1.5,3.8,1.9,3.8c0,0,0.1,3.1,0.9,3.2
				c0,0-1.5,3.1-0.5,3.5c0,0-0.7,4.7-0.8,5.3c0,0.5,1.3,0.8,1.2,1.8c-0.1,0.9-0.4,5.4,0.3,5.9c0,0-2.7,5.8-2.4,8
				c0.3,2.2,0.9,4.2,0.3,4.6c-0.8,0.4-2,0.7,0.3,2c2.2,1.5,1.3,1.6,1.3,1.9c0,0,5.3,7.3,5.7,8c0.4,0.7,0-0.5,0.9-0.8
				c0.9-0.1,3.6,1.9,4.4,1.9c0.8,0,1.1-0.5,1.5-0.3c0.4,0.3,1.2,0.9,3.1,0.3c1.8-0.7,5.1-1.6,5.5-0.8c0.4,0.7,1.1,1.8,2.6,2.4
				c1.6,0.5,0.4-0.1,1.1-0.1c0.7,0.1,0.1,0.8,0.8,1.1c0.8,0.3,1.2,1.2,3.4,2.2c2,0.9,2.6,1.3,4.2,2.3c1.6,0.9,2.2,0.1,2.3,0.5
				c0,0.4,2.8,2.6,3.5,2.4s0.9-0.5,0.9,0c0.1,0.5,3.9,3,5.8,2.6c2-0.3,5.9-1.8,4.2-2.6c-1.8-0.8-2.2-1.2-2.2-2
				c0-0.7-0.4-1.9-0.4-3.1c0-1.3,0.5-2.7,0.8-3.2c0.3-0.5,2.6-5.5,4-5.4c1.5,0.3,2.7,8.5,4,8.9c1.3,0.3,0.7-0.8,1.5-0.8
				c0.7,0.1,2,0.1,1.9-0.3c-0.1-0.5-0.5-1.1,0.3-1.2c0.7-0.1,2.3-0.9,1.8-1.6c-0.7-0.5-0.9-1.1-0.7-1.6c0.3-0.5,1.1-1.8,0.7-2.3
				c-0.3-0.5-0.3-1.1-0.3-1.3c0-0.1-0.7-1.1-1.2-1.5c-0.7-0.4-9-6.5-10.8-5.5c-1.5-0.7-8.2-3.2-6.7-5.9c1.5-2.7,3-5.1,3.5-8.8
				c0.7-3.6,1.9-4.6,2-6.5c0.1-1.8,1.1-3.2,1.8-4.2c0.8-0.9,3.9-7.5,3.9-8.4c0-0.9,0.4-1.6,0.9-2.2c0,0,1.9-2.4,3-4s1.8-0.7,2.2-0.8
				c0.4-0.1,2.6-1.5,1.5-3.8c0,0,0.3-1.6,0.8-2.3c0.7-0.7,0-2.3,0.7-2.8s2.4-1.3,2.8-2.7c0.4-1.3,0-5,1.6-5.7
				c1.6-0.7,1.9-0.4,2.2,1.6c0.3,2.2-1.5,5.8-0.5,6.2c1.1,0.5,2.6-1.8,2.8-5.3c0,0,1.2-0.5,0.9-2.3c-0.3-1.8-1.6-5.3-0.9-5.7
				c0.8-0.3,3,0.3,3.5,3.9c0.5,3.6-0.4,5-0.3,6.2c0.3,1.2,0.5,3.1,1.8,2.2c1.2-1.1,2.2-3,1.6-5c-0.5-2-0.5-3.6-0.5-4.2
				s-1.1-0.5-1.2-2.2s-0.1-4.2,1.2-2.4s3.1,6.1,3.5,6.1c0.4,0,1.1,0.7,0.1-1.6c-0.9-2.3-3.6-8.1-3.5-8.9c0-0.8,1.9-4.2,3-1.3
				c1.1,2.7,1.9,5.9,2.6,5c0.7-0.9-0.8-4.3-0.8-5.7c0-1.3-0.3-7.5,0.9-8c1.2-0.4,1.9-0.5,2.2,1.9c0.1,2.4,0.5,6.5,0.9,7.1
				c0.4,0.7,3.1-3.9,3.1-5.8c-0.1-1.8,0.1-4,0.1-4.3c0.1-0.4,1.1-3.4,1.2-5.1c0,0-0.7-2.2,4.2-4.3c0,0,3.4-3.4,2.2-4.4
				c-1.2-1.1-3.9-2.8-2.7-3.5c1.2-0.7,1.8,0.7,2.8,0.3c1.1-0.4,1.9-2,0.4-3.5c-1.5-1.3-4.7-4.9-3.2-5c1.3-0.3,3.9,3.4,4.9,2.6
				c0.9-0.7,0.7-1.8-0.8-3.1c-1.6-1.3-6.5-4.7-5-5.8c1.6-1.1,2,0.5,3.9,2.4c1.8,2,3.4,3.1,3,1.3c-0.4-1.8-1.2-2-0.4-2.6
				c0.8-0.7,3.2-0.4,2.2-2c-1.1-1.6-2.2-2-1.9-2.8c0.1-0.8,1.2-1.3,1.9-1.5c0.7-0.1,0.8-0.1,0-1.2c-0.8-1.1-0.8-7.3,0.9-6.1
				c1.6,1.3,1.2,2.2,2.6,1.5C468.1,162,469.5,156.6,468.9,155.9z M170.5,247.7c-0.3,0.3-0.9,0.3-1.3-0.1c-0.5-0.4-0.7-0.9-0.4-1.3
				c0.3-0.3,0.9-0.3,1.3,0.1C170.7,246.8,170.8,247.4,170.5,247.7z M192.9,223.7c-0.4-0.1,0-1.3,0.4-1.5c0.4-0.1,0.7-0.8,0.7-0.8
				c0.4-0.1,0.1,0.9,0.3,1.8C194.4,224,193.3,223.8,192.9,223.7z M195.2,218.4c-0.4,0-0.7-0.4-0.7-0.8c0-0.4,0.3-0.8,0.7-0.8
				c0.4,0,0.7,0.4,0.7,0.8C195.9,218.2,195.5,218.4,195.2,218.4z M196.1,207.7c-0.1,0-0.4-0.3-0.4-0.5c0-0.3,0.1-0.4,0.4-0.4
				c0.3,0,0.3,0.3,0.3,0.4C196.4,207.5,196.3,207.7,196.1,207.7z M203.3,155.8c-0.3,0-0.5-0.3-0.5-0.7c0-0.4,0.1-0.7,0.5-0.7
				c0.3,0,0.5,0.3,0.5,0.7C203.8,155.4,203.5,155.8,203.3,155.8z M212,148.5c-0.3,0.7-1.2,0.8-1.8,0.4c-0.5-0.3-0.4-1.6,0.4-2.3
				c0.8-0.7,2.2-0.4,2.2-0.4C213.5,146.3,212.3,147.8,212,148.5z M212,143.2c-0.8-0.3-0.9,0.8-1.3,0.8c-0.4,0,0-0.3,0.9-1.3
				c0.8-1.1,1.9-0.4,1.9-0.4c0.4,0,0.4,0.4,0.4,0.9C213.9,143.9,212.8,143.5,212,143.2z M220.8,143.9c-1.1,1.2-3.2,2.4-4.9,2.7
				c-1.6,0.4-0.4-0.3,0.9-2.8c1.3-2.4,5.1-2.6,5.1-2.6C222.8,141.4,221.7,142.7,220.8,143.9z M227.9,143.6c-0.9,0.7-1.8,1.2-2.7,1.8
				c-0.8,0.4-1.1,0.5-1.8-0.7c-0.8-1.1,1.9-2.2,2.8-2.8s0.1-0.5,0.5-1.3c0.4-0.8,0.8-0.4,1.9-0.3c1.1,0.1,1.8-0.5,1.8-0.5
				c0.4-0.3,0.9,0.7,1.2,1.2c0.3,0.7-0.8,0.8-1.6,0.8C229.2,141.9,228.9,143,227.9,143.6z M235.4,141.9c-0.7,0.7-2.4,1.2-3.5,1.5
				c-1.1,0.3-0.5-1.1,0-1.5c0.4-0.4,0.5-0.7,0.7-1.5s2.6,0.1,2.6,0.1C235.5,140.5,236,141.2,235.4,141.9z M228.1,196.2
				c-0.4,0-0.8-0.4-0.8-0.8c0-0.4,0.4-0.8,0.8-0.8c0.5,0,0.9,0.4,0.9,0.8C228.9,195.8,228.5,196.2,228.1,196.2z M313.1,282.1
				c-1.9,0.7-2.2,0.1-3.6-0.3c-1.5-0.5-1.5-2.2-0.9-3.2c0.5-1.1,0.9,0,1.8,0.9c0.7,0.9,0.8,1.1,1.5,1.2c0.7,0,0.3-0.7-0.3-2.2
				c-0.7-1.6,1.2-0.9,1.2-0.9s0.9,0.3,2.2,1.6C316,280.6,315,281.5,313.1,282.1z M316.1,272.9c0.5-0.4,0.8,0.4,1.8,1.8
				s1.3,2.4,1.2,3.4c-0.1,0.8-1.6,0.5-2.6-0.7C315.4,276,316.1,272.9,316.1,272.9z M312.7,269.4c1.2,0,1.8,0.8,2.6,2.2
				c0.7,1.3-0.4,0.9-1.3,1.1c-0.9,0.3-1.5-0.8-2.7-2.2C310.2,269.3,312.7,269.4,312.7,269.4z M306.9,274c0.3-1.1,1.9-1.1,1.9-1.1
				c0.8,0,0.8,0.1,1.8,0.7c0.9,0.4,0.8,1.1,0.1,1.8c-0.7,0.7-1.1,0.3-1.3,0.3c-0.3-0.1-0.9,0.1-1.9,0.1
				C306.4,275.9,306.7,275.1,306.9,274z M299.6,281c0.7,0.1,0.3-0.1,0.4-0.5c0.1-0.5-0.4-1.3-0.1-2.4c0.4-1.1,1.2-1.1,2.4-1.2
				c1.2-0.1,1.3,0,2.7,0.5c1.3,0.7,2,5.8,2,6.9c0,1.1-0.5,0.8-1.3,0.7c-0.8,0-1.1-2.3-1.6-3.5c-0.5-1.2-1.2-1.5-2.3-1.8
				c-0.9-0.3-0.8,1.1-0.8,1.3c0,0.4,0.1,1.5,0,1.9c-0.3,0.4-0.9-0.3-1.9-0.7C298.3,281.8,299.5,281,299.6,281z M345.1,174.8
				c0.8,0.5-0.3,0.1-0.7,5.5c-0.4,5.4-3.1,5.9-2.6,7.3c0.4,1.3-2,5.4-2,5.4s0,1.3-0.1,3c0,1.5-2.2,2.6-2.2,2.6
				c-1.9-0.3,0.7-3.5,0.9-4.3s-0.1-2.2-0.1-3c0-0.8,0.5-1.2,0.4-2.2c-0.1-0.9,1.5-2.7,1.9-2.7c0.4-0.1,2.3-5.5,2-5.7
				c-0.3-0.1,0-2.3,0.5-2.3s-0.5-1.8-0.5-2.8C342.6,174.6,344.3,174.1,345.1,174.8z M332.8,186.6c2.4,1.1-0.4,3-0.8,3
				c-0.5,0,0.3-0.9,0.3-0.9C331.6,186.2,332.8,186.6,332.8,186.6z M335.9,176.7c0,1.6-1.2,2.2-1.8,2.8c-0.5,0.7,0,2-0.7,3.1
				c-0.7,1.1-0.8-1.8-0.8-2.3s0.4-1.6,0.7-2.2c0.4-0.4,1.2-2,1.2-3.8c0-1.8,0.9-0.9,0.9-0.9C336.3,173.7,336,174.9,335.9,176.7z
				 M337.7,166.6c0,0,0.3,1.5,0,2.7c-0.3,1.2-0.9,2.2-1.6,0.3C335.5,167.5,337.7,166.6,337.7,166.6z M335.1,190c0.5-1.3,2-2.4,2-2.4
				c0.8,0.1,0,2-0.5,2.6c-0.5,0.5-1.1,2.7-1.1,3.6c-0.1,0.9-2.2-0.5-2-2C333.6,190.3,334.7,191.5,335.1,190z M343.4,166
				c1.2,0-1.9,8.1-2.2,8.5c-0.3,0.3-1.1,0-1.5,2.3s-0.3,6.5-0.9,6.9s-0.3,2.4-1.1,3c-0.9,0.5-0.7-2.4-0.7-2.4
				c-1.1,0-0.3-2.2,0.3-2.3c0.5-0.1,0.4-2.4,0.4-2.4s0.7-4.2,0.8-5.7c0.3-1.5,2.7-4.9,2.7-4.9S342.2,166,343.4,166z M339.9,153.9
				c0.1-2.8,2.4-3,2.4-3c0.3-0.3,0.3,2.3,0,3c-0.1,0.7-1.8,2.3-2.2,2.8C339.5,157.3,339.8,156.9,339.9,153.9z M336.2,153.5
				c0.7-0.8,0.5-0.5,0.5-2.2c0-1.5,2.3-1.1,2.3-1.1c0.5-0.3-0.5,2.4-1.2,3c-0.8,0.5-1.3,1.8-1.3,3s-1.2,1.5-2,0.4
				C333.3,155.5,335.4,154.3,336.2,153.5z M334.7,164c0.8-0.5,0.9,2.2-0.4,3.9c-1.3,1.8-0.4,1.5-0.1,2.3c0.3,0.8-0.7,3.6-1.8,4.2
				c-1.1,0.7-1.2,3.4-1.1,4c0.1,0.8,0.1,2-0.4,2.4c-0.4,0.5,0,0.8,0.1,2c0,1.2-1.1,0.8-1.5,1.2c-0.4,0.3-0.3,2.2-1.5,3
				c-1.2,0.8-0.1-2.4,0.1-3.4c0.3-0.9-0.1-1.1,0.4-1.9c0.5-0.9,0.3-1.1,0.4-2.8c0.1-1.9,1.1-3,1.5-3.5c0.4-0.7,0.9-1.3,1.3-2.4
				c0.4-1.1,0-1.1,0.3-2c0.3-0.9,0.9-1.1,1.1-4C333.3,164.1,334.7,164,334.7,164z M330.1,167.4c-0.9,0.5-1.3,0-0.5-2.2
				c0.8-2.2,2.7-2.2,2.7-2.2c0.5-0.1,0.1,1.2-0.5,1.6C330.9,165.1,331,167,330.1,167.4z M332.7,150.9c0,0,0.8,0.4,1.2,0.7
				c0.4,0.3-0.7,3.2-1.3,4.7c-0.7,1.5-0.9,1.1-1.6,0.3c-0.8-0.8,0.3-1.9,0.4-4.3C331.3,150,332.7,150.9,332.7,150.9z M331.6,145.8
				c1.2,0-0.3,1.9-0.8,2.7c-0.5,0.8-1.6,0.5-1.9-0.5C328.9,147,331.6,145.8,331.6,145.8z M326.5,152.1c0-0.8,1.6-2,1.6-2
				c0.7-0.1-1.1,3.5-1.5,4.3C326.3,155.1,326.5,152.9,326.5,152.1z M326.7,155.9c2.3,1.1-0.8,3.6-0.8,4.4c0,0.9-1.3,2.7-2.2,3.6
				c-0.8,0.9,0.1,3.6-2.2,3.2c-2.3-0.5,0.1-1.9,0.8-2.6c0.8-0.5,0-2.2,0.5-3.9c0.5-1.6,1.9-0.8,2.3-2.8
				C325.8,155.9,326.7,155.9,326.7,155.9z M324.3,147.6c0.8,0,1.5,0.4,1.5,0.9s-0.7,0.9-1.5,0.9c-0.8,0-1.5-0.4-1.5-0.9
				S323.5,147.6,324.3,147.6z M317.7,152.8c0.9-3.2,2.7-2,2.7-2c0.5,0,0.1,1.6,0,2.7C320.3,154.3,316.8,155.9,317.7,152.8z
				 M315.1,162.1c0.5,0,0.9,0.4,0.9,0.8s-0.4,0.8-0.9,0.8c-0.5,0-0.9-0.4-0.9-0.8C314.3,162.5,314.7,162.1,315.1,162.1z
				 M313.1,148.6c0.5,0,0.9,0.5,0.9,1.1s-0.4,1.1-0.9,1.1c-0.5,0-0.9-0.5-0.9-1.1C312.3,149.2,312.7,148.6,313.1,148.6z
				 M312.2,160.4c0.4,0,0.7,0.3,0.7,0.7c0,0.4-0.3,0.7-0.7,0.7s-0.7-0.3-0.7-0.7C311.5,160.8,311.8,160.4,312.2,160.4z M311.4,165.9
				c0,0.5-1.2,2.7-2,3.6c-0.8,0.8-1.2,2-2.4,3.4c-1.3,1.5-0.3,0.7-0.1,1.8c0,1.1-0.5,1.8-1.3,2.3c-0.8,0.5-0.9-0.8-0.9-1.8
				c0-0.9,0.9-1.9,0.8-2.3c-0.1-0.4,0.4-0.8,0.5-1.3c0.3-0.5,0.8-1.6,1.5-2.6c0.7-0.9,2-2.4,2-3.2c-0.1-0.7,1.6-2.3,1.6-2.3
				C311.4,162.8,311.4,165.3,311.4,165.9z M302.5,177.3c-0.5,4-1.8,1.2-2.4,0.4c-0.7-0.8,0.7-0.4,0.4-1.2c-0.4-0.9,0-1.8,0.3-2.4
				c0.3-0.7,0-2.7,0.5-3.8c0.5-1.1,2.3-2.7,2.7-3.2c0.5-0.5,1.8-4.7,3.5-7.1c1.8-2.3,2.6-2.3,2.6-2.3c1.6-0.3-0.4,1.2-0.4,1.8
				c0.1,0.5-1.2,2.3-2,3.1c-0.7,0.7-0.1,1.9-0.8,2.4s-1.6,3.1-2.3,3.8s0.1,0.8-1.5,2.6C301.5,173,303.1,173.3,302.5,177.3z
				 M299.2,172.6c0.3,0.7-0.9,3-1.6,3.8c-0.5,0.9,0.8,2,0.1,2.4c-0.7,0.5-0.1,1.1-0.3,1.9c0,0.9-1.5-0.3-2.4-1.2
				c-0.9-1.1,0.9-2.6,1.5-3.1c0.5-0.7-0.3-3.9,0.1-5.8c0.3-1.9,2.4-1.9,2.4-1.9c0.8,0,0.3,1.3-0.1,2.2
				C298.4,171.8,298.8,172,299.2,172.6z M298.8,162.2c-0.9,0.8,0.5,2-0.5,3.2s-2.4,2.8-3.2,4.2c-0.9,1.2-0.4,1.8,0,2.4
				c0.3,0.8-1.5,3.6-2.6,4.2c-1.2,0.4,0-4.6,0.5-5.7c0.4-1.1,0-2,0.7-2.6c0.7-0.4,3.1-5.9,3.6-6.6c0.4-0.7,0.3-0.9,0-1.5
				c-0.1-0.7,3.1-2.7,4.2-3.2c1.2-0.5,1.1-1.9,1.1-1.9c1.8,0,0.3,1.8-0.7,3.2C301,159.6,299.8,161.4,298.8,162.2z M292.2,166.6
				c0.1,0.8-0.3,3.2-0.8,3.6c-0.5,0.4-2,3.4-2.4,4.9c-0.4,1.5-1.3,3.2-2.3,3.2c-0.9-0.1,0-3.8,0.1-4.2c0.1-0.4,3-5.7,3.2-6.2
				c0.4-0.5,0.9-2.8,0.9-4.3c0-1.3,2.3-3.5,3.2-4.4c0.9-0.9,1.6-2.6,1.6-2.6c0.4-1.1,4.3-4.3,4.6-4.9c0.4-0.4,1.3-2.2,1.9-3
				c0.5-0.8,1.9-1.5,2.2-1.8c0.3-0.1,0.3-1.2,1.1-1.6c0.8-0.4,1.3,0.7,0.9,1.2c-0.5,0.5-2.4,2.8-3.6,4.2c-1.2,1.3-3,3.4-3.5,4.3
				c-0.7,0.9-3.1,3.9-3.5,4.6s-2.6,4.2-2.8,4.6C292.6,164.7,292,165.6,292.2,166.6z M302.6,159.3c0.9-1.8,4-2.6,4-2.6
				c1.3-0.3-3.1,4.7-3.9,5.3c-0.8,0.4-0.9,3.5-0.9,4.4c0,0.9-1.6,1.1-2-0.3s1.6-4,2.2-4.3C302.5,161.4,301.5,161,302.6,159.3z
				 M310.6,145.8c1.6,0.9-1.3,3.1-1.9,1.8C308.3,146.3,310.6,145.8,310.6,145.8z M305.4,151.7c-1.6-0.9,2.8-3.9,2.8-3.9
				C309.5,148.5,307.1,152.8,305.4,151.7z M303.7,142c1.5-1.2,3-2,3-2c1.6,1.2-2.2,2.8-3,3.1c-0.8,0.3-1.8,5.3-3.9,3.6
				C297.6,145,302.1,143.2,303.7,142z M295.7,143c0.8-0.8,1.8-1.3,2-0.9c0.3,0.3-0.1,1.2-0.9,2c-0.8,0.8-1.8,1.3-2,0.9
				C294.5,144.7,294.9,143.8,295.7,143z M295.5,152.3c2.2,0.4-1.1,1.9-1.2,2.7c-0.3,0.9-1.6,2.4-2.2,2.7c-0.5,0.3-0.5,0.5-0.5,1.8
				s-2.3,4-3.1,4.7c-0.8,0.7,0,2.2,0,3.5c0,1.3-3,5.8-3.8,6.2c-0.8,0.4-0.4-2.2,0.1-3.4c0.5-1.1,2.4-8,2.6-8.8c0.1-0.8,1.2-1.8,2-3
				c0.8-1.2,0.3-1.5,0.8-1.9s2-1.6,2.8-3.1C293.7,152.7,295.5,152.3,295.5,152.3z M278.1,189.6c-0.7-0.3-0.4,0.5-0.4,0.5
				s-0.3,1.8-0.4,2c-0.1,0.3-0.7,0.7-1.2-0.7c-0.5-1.3,1.3-1.6,1.3-1.6s0.3-0.1-0.1-0.5c-0.4-0.4,0.4-2.3,0.9-2.6
				c0.7-0.3,1.2-0.9,1.2-0.9c0.4-0.4,0.9,0.5,1.6,1.5c0.7,0.8,0,1.9-0.3,2.3s-0.5,3.9-1.3,4.4c-0.8,0.5-1.2-0.9-1.2-2
				C278.1,191.1,278.9,189.9,278.1,189.6z M275,190.7c0.3,0.8-0.4,2.3-0.9,2.8c-0.7,0.5-1.3,1.6-2,2s-1.6,0.8-2,0.9
				c-0.4,0.3-1.5,2.6-2,3.2c-0.7,0.7-0.4-0.4-0.5-1.1c-0.3-0.5,1.3-3,1.5-3.4c0.1-0.4,0.1-1.1,0.5-1.3c0.4-0.3,1.2-1.5,1.6-1.9
				c0.4-0.3,3-2.2,3-3.2c0-0.9,1.2-1.1,1.2-1.1c0.5,0,0,1.1-0.1,1.6C275,190,274.8,189.9,275,190.7z M261.1,183.5
				c-1.1-0.7,0.4-3.8,0.8-4c0.4-0.3,0-0.1,0.4-1.5c0.4-1.2,2.7-2.3,2.7-2.3c0.4,0,0.3,0.4,0.4,0.4c0.1,0.1-0.4,2.2-1.1,3.1
				c-0.7,0.9-0.9,2.2-1.3,2.8s0.9-0.4,1.5-0.8c0.5-0.4,0.8-0.8,0.9-1.8c0.1-0.9,2.6-1.5,3.4-1.5c0.9,0-0.3,1.3-1.1,1.8
				c-0.8,0.4-3.9,4.7-4.7,5.4c-0.8,0.5-1.2,0-1.3-0.5C261.6,184.5,262.3,184.2,261.1,183.5z M263.3,166.6c0-1.1,1.2-1.8,1.8-2
				c0.5-0.3,0.4,0,0.7-1.3c0.3-1.3,2.2-1.8,2.2-1.8c0.3-0.1,0.3,0.8,0.3,0.8c-0.3,2.4-1.6,3.4-2.6,3.9c-0.9,0.5-0.9,3.4-1.9,4
				c-0.9,0.7-0.8,0.4-1.6-0.1c-0.8-0.4-0.1-1.2,0.8-2C263.8,167.2,263.1,167.5,263.3,166.6z M268.9,168.7c0,0.4-1.1,1.3-1.9,0.9
				c-0.8-0.4-0.3-1.6,0-2c0.4-0.5,0.1-0.4,0.5-1.6c0.3-1.3,1.8-0.9,1.8-0.9c1.1,0.3,0.7,1.3-0.3,1.6
				C268.1,167.1,268.9,168.3,268.9,168.7z M265.8,172.1c0-1.2,1.8-1.5,1.8-1.5c0.7-0.3,0.7,1.2,0.7,1.9s-1.2,1.8-1.8,1.8
				C265.8,174.4,265.8,173.3,265.8,172.1z M266.4,175.5c0,0.3-0.9,0.4-1.2-0.1c-0.4-0.5,0.9-0.7,0.9-0.7
				C266.4,174.5,266.4,175.2,266.4,175.5z M268.6,189.6c1.1-1.2,1.2-1.8,1.9-2.3c0.5-0.4,2.2-0.8,2.2-0.8c0.7-0.1-0.9,2.6-1.2,3.1
				c-0.4,0.5-2.2,1.3-2.2,1.3c-0.4,2.6-2,3.6-2.7,4.2s-0.1,1.2-0.1,2c0,0.8-0.9,2.7-1.9,3.6c-0.8,0.9-1.2,2-2.3,2.2
				c-1.1,0.3-0.8-0.9-0.8-1.6c0-0.8,1.3-1.9,2.2-2.3c0.7-0.4,1.2-3.2,1.6-3.8c0.4-0.5,0.1-2,0.4-2.7
				C265.8,191.9,267.6,191,268.6,189.6z M276.1,179.9c-0.1,0.8-0.5,0.4-1.1,1.2c-0.5,0.7-1.5,4.2-1.9,4.7c-0.4,0.7-1.1-0.1-1.5-1.1
				c-0.5-0.9,1.3-3,1.6-3.1c0.1-0.1,0.5-0.5,0.5-1.8c0-1.2,0.9-1.2,1.5-2.4c0.5-1.2,2-0.9,2-0.9c0.5,0,0,1.5-0.9,2
				C275.4,179.2,276.2,179.1,276.1,179.9z M262.2,206.5c1.3-2.3,3.4-2.6,3.4-2.6c1.5,0-0.8,2.8-1.3,3.5c-0.5,0.7-1.6,2.4-1.9,2.8
				s-1.9,2.8-2.6,4c-0.7,1.2-0.8,2.2-1.1,2.8c-0.3,0.8-4.6,3.9-6.2,4.2c-1.6,0.3-0.7-0.5,0.1-1.6c0.8-0.9,5.3-5.5,6.1-6.5
				C259.5,212.2,260.8,208.7,262.2,206.5z M261.6,214.4c0.8-0.7,5.1-8.6,5.5-9.6c0.3-0.9-0.4-0.9-1.2-1.9c-0.8-0.9,0.8-1.8,0.8-1.8
				c0.4-0.3,1.3,0,2.4,0.4c1.1,0.4-0.3,2.8-0.5,3.5c-0.3,0.5-1.5,4.9-1.5,5.7c0,0.7-2.2,2.6-3.1,3c-0.9,0.4-1.2,1.8-2,2.2
				C261.4,216.3,261,215.1,261.6,214.4z M275.1,187.3c-0.5,0,0.1-1.2-0.1-1.8s1.3-2.6,1.3-2.6c0.5-0.5,0.9,0.1,0.8,1.2
				C277,185,275.7,187.2,275.1,187.3z M279.8,184.4c0-0.3,0.3-0.5,0.5-0.5c0.3,0,0.5,0.3,0.5,0.5c0,0.3-0.3,0.5-0.5,0.5
				C280.1,184.9,279.8,184.6,279.8,184.4z M280.6,170.5c0-0.7,0.4-1.2,1.1-1.2c0.5,0,0.9,0.5,0.9,1.2c0,0.7-0.4,1.2-0.9,1.2
				C281.2,171.8,280.6,171.1,280.6,170.5z M282.3,167.4c-0.8,1.2-0.9-2.2-0.9-3.4c0.1-1.1,2.4-3.2,2.4-3.8c0-0.5,1.2-3.5,2.8-5.5
				c1.6-2,4.6-3.6,4.6-3.6c1.3,0.1-1.1,2-2,2.8c-0.9,0.8-1.8,3.6-1.8,4.7s-2.3,3.5-3.4,5.4C282.9,165.9,283.2,166.2,282.3,167.4z
				 M291.7,141.6c1.5,0.4-1.8,4.4-2.3,2.6C288.3,139.7,291.7,141.6,291.7,141.6z M286.7,138.9c1.3-0.1,0.9,1.9,0.5,1.9
				c-0.5,0,0.3,0.9-1.5,0.7C284.1,141.2,286.7,138.9,286.7,138.9z M286.6,149.8c0.3-0.3,0.4,0.1,0.8,0.8c0.4,0.7-1.5,2.3-2.3,3.1
				c-0.8,0.8-3.6,5.9-4.9,7.5c-1.2,1.6-0.4,5.5-0.8,5.8c-0.4,0.4-1.3,2.8-1.2,3.9c0,1.1-1.8,1.3-2.2,2.3s-1.5,1.1-1.6,1.8
				c-0.1,0.7,0,1.6-0.4,1.9c-0.4,0.1-0.4,0.4-0.5,1.5c-0.1,0.9-2.6,1.2-3.1-0.3c-0.7-1.5,3.5-3.5,3.8-4.7c0.1-1.2,1.2-0.7,0.9-1.6
				c-0.3-0.9,1.1-2.7,1.6-3c0.4-0.3,0.9-3.6,1.1-5.7c0.1-2.2,3.4-7.4,3.8-8.2c0.3-0.7,2.7-2.3,2.7-2.3
				C285.8,149.7,286.6,149.8,286.6,149.8z M278.1,148.1c0.5-1.8,2.6-2,2.6-2c0.7-0.3,0.3,0,0.7,0.5c0.4,0.4-2.4,3.4-2.8,3.5
				c-0.4,0.3-0.1,0.1-0.3,0.5c0,0.4-0.5,1.1-1.2,1.5c-0.7,0.4-1.5,2.2-1.9,2.6c-0.4,0.5-0.3,1.1,0,2c0.3,0.8,0.3,0.4,1.1,0
				c0.8-0.4,1.1-0.7,1.9-2.3c0.8-1.5,1.2-1.8,1.5-2.3c0.3-0.4,1.6-1.9,3-2.8c1.3-0.9,0.8,0.5,0.9,0.9c0.1,0.4-1.3,1.3-1.8,2.2
				c-0.3,0.9-2.6,4.2-3.4,4.6c-0.8,0.4,0,1.2-0.4,1.5c-0.4,0.3-2.2,4.2-2.4,4.7c-0.3,0.5-0.1,2.8-0.1,3.4c0,0.4-2.4,3.4-3.2,4.4
				c-0.7,1.1-0.8,0.7-1.2-0.3c-0.5-0.9,0.7-2,1.1-3c0.5-0.9,0.4-1.6,0.9-3c0.4-1.3,1.3-1.5,1.3-1.5s-0.3-1.5,0.1-2.6
				c0.3-1.1,0.1-1.6-0.5-1.8c-0.7-0.3-0.1,1.6-0.3,2.2c-0.1,0.5-0.9,1.9-2.4,1.8c-1.5-0.3,0-2.4,0.4-3.1c0.5-0.7,1.1-3.2,1.6-4.3
				c0.5-0.9,1.1-1.1,1.6-2.7c0.4-1.6,2-2.7,2.4-3.1C277.8,149.4,277.5,149.8,278.1,148.1z M275.1,137.7c0.8,0,1.3,0.4,1.3,0.9
				c0,0.4-0.5,0.8-1.3,0.8c-0.8,0-1.3-0.4-1.3-0.8C273.8,138.1,274.3,137.7,275.1,137.7z M272.8,136.6c0.1,0,0.3,0.1,0.3,0.4
				c0,0.3-0.1,0.4-0.3,0.4s-0.4-0.1-0.4-0.4C272.6,136.9,272.7,136.6,272.8,136.6z M275.1,146.9c0.5-0.4,0.5,0.4,0.7,0.8
				c0.1,0.3-0.8,1.9-1.2,2c-0.4,0.1-0.7,1.9-1.1,2.4c-0.4,0.5-1.1,1.1-1.6,1.9c-0.7,0.7-0.9,3.1-1.6,3.8c-0.7,0.8-0.7,1.6-1.2,1.5
				c-0.5,0,0.1-0.5,0.3-1.8s0.8-4.2,1.6-6.2C271.5,149.2,275.1,146.9,275.1,146.9z M261.8,145.3c0.3-1.5,1.9-0.7,2-1.6
				c0.1-0.9,1.1-1.2,1.1-1.2c0.3-0.3,0.8,0.3,1.1,0.7c0.3,0.4-1.1,1.2-1.9,1.5c-0.8,0.3-0.8,1.1-1.8,2.7c-0.9,1.5-1.8,2-2.3,3.1
				c-0.5,1.1-1.6,3-1.9,3.8c-0.4,0.8,0.1,1.8-0.4,2.4c-0.5,0.8-0.8,0.5-1.3,0.9c-0.5,0.4-1.2,0.4-1.9-0.5c-0.7-0.9,2-3.6,2.6-4.6
				c0.7-0.9,0.8-2.6,0.8-2.6C260.6,144.3,261.5,146.7,261.8,145.3z M256.2,141.6c0.3,0,0.5,0.3,0.5,0.5c0,0.3-0.3,0.5-0.5,0.5
				c-0.3,0-0.5-0.3-0.5-0.5C255.6,141.9,255.8,141.6,256.2,141.6z M255.4,147c0.7-0.1,2.8-2.7,2.7-3.6c-0.1-1.1,2.7-1.8,2.7-1.8
				c0.7-0.1,0.5,0.4,0.3,1.6c-0.3,1.2-1.8,1.6-2.7,2.3c-0.9,0.7-3.8,6.5-4.6,8c-0.8,1.5-1.2,3.5-1.2,4.6c0,1.1,0.5,0.5,1.2,0.9
				c0.8,0.4-1.9,3-2.8,3.9c-0.9,0.8-0.9-0.3-1.5-1.1c-0.7-0.8-0.3-0.1-0.8,0.3c-0.5,0.4-0.8-0.9-0.3-2c0.4-1.1,3.2-5,3.2-5
				C251.5,151.7,254.9,147.2,255.4,147z M246.1,145.4c0.5,0,0.9,0.1,0.9,0.1c0,0.1-0.4,0.1-0.9,0.1s-0.9,0-0.9-0.1
				C245.3,145.5,245.7,145.4,246.1,145.4z M233.6,169.1c-0.1-0.9-0.4-2.4-0.1-3.2c0.1-0.8,0.5-4.9,2.3-7.8s2.7-6.6,4.6-7.8
				c1.9-1.1,2.7,1.2,3.4,0.4c0.8-0.8,8.8-6.3,9.6-5.4c0.7,0.9-2.2,4.6-2.2,5.7s-3.8,7.4-5.3,8.8c-1.5,1.3-6.9,4.2-5.7,5.1
				c1.2,0.9,6.6-3.6,6.6-1.9s-7.8,5-8,7.5c0,0-2,1.8-2.4,2.8c0,0-0.8,2.4,1.1,1.9c0,0,0.7-1.9,1.2-2.4c0.7-0.4,0.1-1.1,0.5-1.2
				c0.4-0.3,3.4-2.6,3.4-0.8c0,0-1.1,1.5-2.4,2.7c-1.3,1.2-3.6,3.8-3.4,4.9c0,0-3.2,1.3-3.1,0.3c0.1-1.1,0.9-3.2,0.9-3.2
				s-0.8-0.4-1.6-0.8c0-0.3,0-0.5,0-0.8C232.8,172.9,233.7,170.1,233.6,169.1z M242.1,285.6c-1.1,0-1.1-1.1-1.2-2.2
				c-0.1-1.1,0.3-1.9-0.5-2.3c-0.9-0.5-0.7,0.7-0.5,1.6c0.1,0.9,0.1,1.3-0.9,1.9c-0.9,0.5-2.4-1.3-2.8-3.5c-0.4-2.2,3.8-4.2,3.8-4.2
				s0,0,1.3,0.3c1.3,0.3,2.4,1.8,3,3.4c0.5,1.6,0.4,3.2,0.4,4.4S243.2,285.6,242.1,285.6z M253.8,282.2c-0.9,0.3-0.9,0.5-0.9,1.5
				s-0.5,1.2-2.2,0.8s-0.1-1.6-0.5-3.6c-0.4-2-0.8-0.8-2.3-0.9c-1.5-0.1,0,1.6,0.7,2.4c0.5,0.8,1.3,3.1,1.2,3.8
				c-0.1,0.7-2.6-0.9-4.3-3.4c-1.6-2.4,0.1-2.4,0.8-3.5c0.7-1.2,0.1-0.9,0.8-2.7s1.8-0.3,1.8-0.3s0.9-0.3,2.3,0.3
				c1.3,0.5,0.5,0.7,0.7,1.8s0.1,1.1,0.5,1.2c0.4,0.1,0.4-0.7,1.6-1.5c1.2-0.8,0.8,1.1,0.9,2.6C255,282.1,254.8,281.9,253.8,282.2z
				 M249.9,271c2.2,0.1,1.6,1.1,2.4,2c0.8,0.9,1.3,0.4,3.2,0.9c2,0.5,0.9,1.5,1.5,2.2c0.5,0.7,1.9,2.3,2.7,3.9
				c0.7,1.6-0.4,2-1.9,2.2c-1.5,0.1-1.6-4.3-2-5c-0.4-0.7-0.3-0.3-1.2-0.5c-0.9-0.3-0.7-0.4-1.1-1.2c-0.4-0.8-2.6-0.8-3.6-0.9
				c-1.1-0.1-0.3-0.1-1.5-0.4c-1.2-0.3-1.5,0.4-2.6,0.3c-1.1-0.1-2.4-0.1-4,0.4c-1.8,0.4-1.5-0.1-2.3-0.8c-0.9-0.7-1.8-0.8-2.8-2.2
				c-1.1-1.2,1.2-1.3,1.6-2s2-1.6,2-1.6c0.7-0.3,0.3,0.9,0,1.2c-0.3,0.4,0,0.7-0.4,2.3c-0.4,1.6,0.8,0.9,2.2,1.2
				c1.3,0.3,1.3-1.9,2.2-2.3c0.8-0.4,1.6,0.4,1.6,0.4C246.4,270.6,247.8,270.9,249.9,271z M243.7,259c0.4-0.3,0.3,2.3,0,2.8
				c-0.3,0.5-0.5,1.5,0.3,3.2c0.8,1.8,0.3,1.9-0.9,2.2c-1.1,0.3-1.5-2.6-1.2-4.4c0.3-1.9,0.4-0.9-0.1-1.9
				C241.2,260,243.7,259,243.7,259z M243.3,257.1c0-0.3,0.1-0.5,0.4-0.5s0.4,0.3,0.4,0.5c0,0.3-0.1,0.5-0.4,0.5
				C243.4,257.7,243.3,257.4,243.3,257.1z M270.9,215.9c-1.1,0,1.5-2.3,1.5-2.3C273.6,213.7,272,215.8,270.9,215.9z M272.6,206.5
				c-0.8,0.7-0.1,0.7-0.3,1.9c-0.1,1.2-1.1,2.2-1.1,2.2c-1.1,4.7-1.6,3.5-2.6,4.4c-0.9,0.9,0.5,1.8,1.8,1.9c1.2,0.1-0.1,3.1-1.1,3.6
				c-0.8,0.5-1.1,3.4-1.8,5.1s-9.2,6.7-9.8,7c-0.5,0.3-0.5-0.1-0.7-0.7c-0.3-0.7-4,1.1-5.5,1.9c-1.5,0.8-0.8,0.1-1.9,0
				c-1.2-0.1-3.2,2.8-3.2,2.8c-0.1,0.7,0.8,0.1,1.8,0c0.8-0.1-2,3.4-2.3,4c-0.3,0.7,0.9,0.8,1.8,1.6c0.7,0.8-3.2,3.8-4.4,5.7
				s-1.6,1.5-3,1.2c-1.3-0.4,4.3-6.1,4.4-6.7c0.1-0.7-6.5,4.7-8.1,5.4c-1.6,0.8,0.8,4.9,1.5,6.3c0.7,1.5-5.1,5.5-4.4,6.5
				c0.8,0.9,5.1-5.3,6.1-5.7c0.9-0.4,0,2.7-0.5,3.5c-0.4,0.8,0.5,0.8,1.1,1.6c0.5,0.8-2,3.5-2.6,4.2c-0.7,0.7,1.9,0.1,2.4,0.7
				c0.5,0.5-0.7,0.7-0.8,1.2c-0.1,0.5-1.2,2.6-2.3,3.1c-1.1,0.5-1.6,1.5-2.4,2.6s-1.2,0-1.6-0.8c-0.4-0.8,2.6-3.8,3-4.3
				c0.4-0.5-1.5-0.4-2.7-0.3c-1.2,0.3-1.1-2.2-0.8-3.2c0.3-1.1-1.1-0.5-2.8-0.8c-1.8-0.4,0.5-2.4,1.5-3.4c0.9-0.9-0.7-0.8-1.6-1.3
				c-0.8-0.7,1.1-2.3,1.8-2.6s-0.1-0.5,0.1-1.3c0.3-0.8,3.6-6.9,3.6-6.9c0.4-0.7,1.8-0.7,2.4-1.2c0.8-0.5,3-2.4,3.1-2.8
				c0.1-0.4-4.2,2.3-5.5,2.8c-1.3,0.5-0.1-1.6,0.7-2.2c0.7-0.5,5.9-5,6.7-5.3c0.8-0.3,7.4-7.1,8.2-7.7c0.7-0.5,1.6-1.1,0.9-1.9
				c-0.7-0.8-2.6,2.3-3.8,3.4c-1.2,1.1-4.2,3.6-5.4,5c-1.2,1.3-3.8,2.8-4.7,3.4c-0.9,0.5-3.6,1.5-4.6,2.3c-0.9,0.8,0.1,1.8,0.4,2
				c0.3,0.3-0.3,0.8-0.9,1.3c-0.8,0.5-1.1-0.3-1.6-2.3c-0.5-1.9,0.7-3.1,1.2-3.9c0.5-0.8,3.6-6.1,4.6-7c1.1-0.9,3-2.4,4-3
				c0.9-0.5,3.6-2.6,4.4-3c0.8-0.4,3-3.1,3.5-3.8c0.5-0.7-0.3-0.7-0.9-1.8c-0.7-1.1-1.9-5.3-2.2-6.3c-0.3-0.9-0.4-1.2-1.2-0.7
				c-0.7,0.5-2.2,2.4-2.4,3.6c-0.3,1.2-2.2,2.4-2.3,3.2c-0.3,0.9-0.4,2.7-1.3,3.9s-0.9,2-0.4,2.7c0.4,0.7,1.1-0.7,1.8-1.5
				c0.5-0.8,1.5-2.3,2.6-3.1c1.1-0.9,1.6-0.8,3.4,0.3c1.6,1.1-4.7,5-4.7,5c-2.8,0.9-2.4,1.5-3,1.9c-0.5,0.3-3.1-0.7-3.1-0.7
				c-3.1,5.9-6.7,6.6-7.5,6.6c-0.8,0,0.1-1.1,0.5-1.8c0.4-0.5-0.7-0.5-1.6-0.7c-0.9-0.1-0.4-0.8,0.7-1.6c0.9-0.8,6.7-6.6,6.7-6.6
				h0.1c1.5-0.5,0.8,0,1.5,0.3c0.7,0.3,0.8-1.2,1.9-3.8c1.1-2.6,1.8-3,1.1-3.5c-0.7-0.4-1.2,2.4-2.6,2.2c-1.3-0.3,0.8-4.4,1.3-5.7
				c0.5-1.2-0.9,0.5-2.3,0.4c-1.3-0.1,0.4-5,1.1-6.3c0.7-1.3-0.7-0.4-1.6-1.6c-0.9-1.1,0.7-2.3,1.6-3.2c0.8-0.9,1.2-3.4,1.2-3.4
				c0.4-0.3,1.2-1.5,1.6-2.2c0.4-0.7,3-2.7,3.6-3.4s1.3-0.9,0.7-1.3c-0.8-0.5-1.9,0.5-2.4,1.1c-0.5,0.5-0.7,1.3-0.8,1.8
				c0,0.3-2.7,2.3-3.4,3c-0.7,0.7-1.1,2.8-1.6,3.5c-0.5,0.7-1.9,0.7-2.2,0c-0.4-0.7,0.3-1.9,0.8-2.2s1.2-0.9,1.3-1.5
				c0-0.5-0.5-0.3-1.9-0.3c-1.2,0-1.8-2-1.3-3.5c0.5-1.5,2.2-1.1,3.2-1.2c0.9-0.1,0.4-2,0.3-2.6c-0.1-0.7-1.1-0.9-0.5-1.9
				c0.5-0.9,4.7-5.8,4.7-5.8c0.5-0.8,0.7-0.8,1.3-0.7c0.7,0.1,3.1-1.8,3.6-1.9c0.7-0.3-1.9-0.5-3-0.4c-1.1,0.1-4.3,3.4-5.3,3.4
				c-0.9,0-0.7-2.3-0.1-2.6c0.4-0.3-0.7,0-1.1-1.3c-0.4-1.3,2.8-0.1,3.5,0.1s2.4-0.8,3.1-1.9c0.8-0.9,3.4-2.6,3.9-3.8
				c0.5-1.1-1.5-0.5-2.2,0.1c-0.8,0.5-1.2,1.2-2.7,1.8c-1.5,0.4-0.1,0.8-1.1,1.2c-0.9,0.4-0.9-0.3-0.5-1.3c0.4-1.1,5.7-5.5,6.5-6.2
				s0.3-1.9,0.3-2.7c0-0.7,2.7-2,3.8-2.3c1.1-0.3,0.8-0.3,1.2-0.8c0.4-0.7,3.6-2.6,3.6-2.6s0.7-0.1,0.8,0.4c0.1,0.4-0.7,0.9-1.3,1.6
				c-0.7,0.7-1.1,1.6-2.2,2.6c-1.1,0.9-0.5,1.9-1.6,3.5c-1.2,1.6-0.3,0.8,0.3,0.8s3-4,3.8-4.9c0.9-0.9,2.3-3.4,3-4.4
				c0.7-1.1,4.7-8.1,5.3-9c0.5-0.9,0.7-2.3,1.1-3.2c0.4-0.9,3.2-3.8,4.2-3.6c0.9,0.3-0.7,1.6-0.7,2c0,0.4-1.3,4.4-2.6,5.1
				c-1.1,0.7-1.1,3.1-2,4.7c-0.8,1.6-1.2,2.7-2,3.4c-0.7,0.5,0.1,1.6-1.1,2.4c-1.2,0.7-1.5,2.2-2.4,3.5c-0.9,1.3-2.4,1.9-2.6,2.6
				c-0.1,0.8-2.8,4-3.8,5.1c-0.9,1.1,0.7,0,2-1.1s0.8-0.8,1.6-2.2c0.8-1.2,2.7-1.5,3.1-1.6c0.5-0.1,0.5-0.8,1.1-2
				c0.7-1.3,2.4-3.5,3.8-4.6c1.2-1.1,0.5-1.3,1.5-3.5c0.9-2.2,2.4-3.8,2.6-5.7c0.1-1.9,0.8-2.6,1.6-3.9c0.8-1.3,2.3-2.2,2.7-2.4
				c0.4-0.4,0.4-1.2,0.9-1.8s0.7-0.1,1.2,0.1c0.4,0.1,0,0.8-0.4,0.9c-0.4,0.1-0.8-0.1-1.2,1.8c-0.4,1.9-3,5.5-3.2,5.9
				c-0.1,0.4-0.3,1.2-0.4,2.6c-0.1,1.5-1.3,1.1-2.4,3.1c-1.2,2-0.9,2.4-0.9,2.4c-0.3,3.9-3.2,4.2-3.8,5.7c-0.4,1.5-2.6,2.3-2.6,2.3
				c-1.1,2-3.4,3.2-3.4,3.6c0,0.4-2.3,3.9-3.5,4.9s-0.5,2.2-0.5,2.2c-0.1,1.5,0.9-1.1,3-2.8c2-1.9,4.3-3.6,5.4-4.3
				c0.9-0.7,1.2-0.5,1.1,0.7c-0.3,1.2-0.5,1.2-1.3,2.2c-0.9,0.9-2.4,3.1-3.9,4.3c-1.5,1.1-3.1,3.4-3.8,4.7c-0.8,1.2-2.6,6.9-2.7,8
				c-0.1,1.1,0.9-0.1,1.2-0.3c0.4-0.1,0-1.6,0.4-2.6c0.4-0.9,1.8-3.1,2.4-4.2c0.7-1.1,0.8-1.6,1.8-2.4c0.9-0.7,3.5-3.4,4.3-4.3
				c0.9-0.9,2.3-3.4,2.8-3.6c0.5-0.3,0.7,0,0.9,0.3c0.3,0.3-0.1,0.9-0.5,1.5c-0.4,0.5-0.8,1.9-1.5,2.8c-0.7,0.8-0.4,0.7-1.8,1.2
				c-1.3,0.5-0.9,0.9-1.9,2.4c-0.9,1.5-0.7,0.9-2.2,1.9c-1.5,0.8-1.1,3.5-2.3,4.9c-1.2,1.3-2.6,4.3-2.6,6.3c0,2,0.3,1.1,1.1,1.3
				c0.8,0.3,0.7-1.6,1.3-4.6c0.7-3,4.3-5.4,5.3-6.6c0.9-1.2,1.8-1.3,2.4-1.2c0.7,0.1-1.3,3.1-1.9,3.9c-0.5,0.8-3.9,4.7-4.2,6.3
				s-3,5.1-3.9,5.9c-0.9,0.8-0.5,2-0.1,2.8c0.4,0.8,0.7-0.4,1.1-1.3c0.4-0.9,2.8-5.1,3.8-6.7c0.9-1.6,2.2-2,3-2.2
				c0.8-0.1,0.1,1.2-0.5,2.3c-0.7,0.9-3.1,6.5-3.9,7.3c-0.8,0.7,0.3,0.8,0.5,0.7c0.1-0.1,3.4-5.7,4-7c0.8-1.3,1.9-1.2,2.3-2
				c0.4-0.9,2.3-3.6,3-4.7c0.7-1.1,2.6-4,3.9-5.4c1.3-1.2,1.5-0.5,1.9,0c0.4,0.5-2.2,2.7-2.2,2.7c-0.9,0.5-0.9,2.4-1.5,3.6
				c-0.5,1.2-0.3,0.9-0.8,1.9c-0.5,0.9-2.4,2.3-2.8,2.4c-0.4,0.1-2.2,2-2.7,2.4c-0.4,0.5-0.9,2.7-1.1,3.9c-0.1,1.2-0.5,1.2-0.1,1.5
				c0.3,0.1,2.8-3.1,3.4-3.4c0.5-0.3,0.1,1.1-0.5,1.5c-0.7,0.4-1.5,3-1.6,4.2c-0.3,1.2-0.4,1.1-1.3,2c-0.8,0.9-2.7,3.5-3.6,4.2
				c-0.9,0.8-2,2.4-2.7,3.2c-0.7,0.8,0.7,0.8,1.1,0.5c0.4-0.3,0.9-2,2.2-3c1.1-0.9,3.5-3.8,4.2-4.2c0.5-0.4,0.1,1.3,0,2.4
				c-0.1,1.1-2.4,3.4-3.5,4c-0.9,0.5-3,3.4-3.2,4.6s-1.8,3.6-2.7,5.3c-0.9,1.6-2.6,3.6-3.9,4.7c-1.3,1.1,1.6-0.4,2.2-0.7
				c0.5-0.1,1.8-2,2.4-2.2c0.7-0.1,3-3.2,4.6-4.7c1.6-1.5,3.4-3.1,4.3-3.5c0.9-0.5,2.3-2.4,3.1-2.8c0.7-0.4,0.8,0.7,1.8,1.3
				c0.9,0.7,2.8-1.6,3.8-3c0.9-1.3,4-7.7,5.5-10.4c1.5-2.7,3.1-4.7,4.7-4.6C277.7,201.1,272.6,206.5,272.6,206.5z M276.7,207.7
				c-1.8,1.3-1.9,2.2-2.8,2.3c-0.9,0.1,0.3-2.2,0.8-2.4c0.7-0.4,0.8-1.3,2-3.4c1.2-2,3.6-2.4,3.6-2.4
				C282.9,202,278.5,206.3,276.7,207.7z M277.8,244.1c-0.7,1.1-2.3,2.7-3.5,3c-1.2,0.3-0.1-1.5,0.9-3.6c1.1-2,3.8-3,3.8-3
				c0.5-0.3,0.1,0.4,0.4,0.7C279.8,241.1,278.5,243,277.8,244.1z M280.9,247.3c0.3-0.9,1.6-0.3,1.8-1.1c0.1-0.7,1.8-2,1.8-2
				c0.3-0.3,0.5,0.3,0.8,0.5c0.3,0.3-0.7,1.5-1.3,1.8c-0.7,0.3-0.9,0.5-0.5,1.2c0.3,0.7-0.3,1.8-0.7,2.2c-0.4,0.4-0.3,0.8-0.5,1.5
				C281.7,252,280.6,248.4,280.9,247.3z M284.1,255.9c-0.4-0.5,1.6-2,2.3-2.6c0.5-0.5,0.7-1.5,0.8-2.3c0.1-0.7,1.3-1.9,1.9-3
				c0.7-0.9-0.4-1.3-0.8-1.8c-0.5-0.3-1.3,1.9-2.2,2.8c-0.8,0.9,0,1.2-0.1,1.9c-0.1,0.7-0.8,1.1-1.6,1.3s-0.3,1.1-1.1,1.3
				c-0.9,0.3-0.9-1.1-0.5-1.6c0.4-0.4,0.7-0.8,0.8-1.8c0.1-0.9,1.6-2,2.2-2.6c0.5-0.5,0.8-2,1.5-2.4c0.7-0.4,2.7-2.2,2.7-2.2
				c0.5-0.3,0.1,0.7-0.1,1.1c-0.3,0.3,0.5,0.8,0.9,1.5c0.4,0.5,0.7,0.1,1.3,0c0.7-0.3,0.5,0.1,0.7,0.9c0.1,0.8-0.4,0.7-1.3,1.2
				c-0.9,0.5-1.1,1.1-1.8,2.6c-0.7,1.5-3.1,4.7-3.9,5.7C285.1,257.1,284.5,256.3,284.1,255.9z M288.3,199.7c0-0.3,0.4-0.5,0.9-0.5
				s0.9,0.3,0.9,0.5s-0.4,0.5-0.9,0.5C288.7,200.3,288.3,200,288.3,199.7z M291.6,236.8c0,0,0.1-0.1,0.4-0.1c0.3,0,0.4,0,0.4,0.1
				s-0.1,0.1-0.4,0.1C291.7,236.9,291.6,236.8,291.6,236.8z M290.3,253.9c-0.5,0.5-0.9,0.1-0.9-0.8c0.1-1.1,1.1-0.7,1.1-0.7
				C291,252.3,290.9,253.2,290.3,253.9z M287.5,256.6c1.1-2,1.6-2.2,1.6-2.2c0.4-0.3,0.1,0.3,0.5,0.8c0.3,0.5,0.3,1.8-0.4,2.2
				c-0.7,0.4-0.3,0.4-0.7,1.1c-0.4,0.7-0.8,0.7-1.5,0.8C286.4,259.4,286.4,258.6,287.5,256.6z M291,259c-0.5,0.4,0,0.7-0.1,2.2
				c-0.3,1.5-1.1,1.2-2.7,0.5c-1.6-0.7,0.5-1.6,1.3-2.6c0.8-0.9,0.7-0.8,0.8-1.6c0-0.8,1.1-0.3,1.1-0.3
				C291.8,257.4,291.6,258.6,291,259z M292.5,262.8c-0.3,0-0.4-0.1-0.4-0.4c0-0.1,0.1-0.4,0.4-0.4c0.3,0,0.4,0.1,0.4,0.4
				C293,262.7,292.8,262.8,292.5,262.8z M295.6,265.2c-0.3,0.5-1.3,1.6-1.9,2c-0.5,0.4-0.9-1.2-0.8-2.3c0-1.2,2.7-1.5,2.8-1.6
				C296.5,263.2,295.9,264.7,295.6,265.2z M293,229.1c0-0.4,0.3-0.7,0.5-0.7s0.5,0.3,0.5,0.7s-0.3,0.7-0.5,0.7S293,229.5,293,229.1z
				 M296.3,236.9c-0.3,0-0.5-0.3-0.5-0.5c0-0.3,0.3-0.4,0.5-0.4c0.3,0,0.5,0.3,0.5,0.4C296.8,236.6,296.5,236.9,296.3,236.9z
				 M316.6,217.2c-0.8,0-1.3-0.5-1.3-1.2s0.5-1.2,1.3-1.2c0.7,0,1.3,0.5,1.3,1.2C317.8,216.7,317.3,217.2,316.6,217.2z M335.8,202.3
				c0.1,1.2-0.1,6.3-0.3,8c-0.3,1.6-0.5,7.3-1.9,7.8c-1.2,0.5-0.5-1.3-0.5-1.9c0.1-0.5-0.7-0.3-1.6,0.1c-0.9,0.4-0.8-0.9-0.4-2
				c0.4-1.1,0.1-4.7-0.5-4.9s-0.3,0.8-0.3,1.9c0,0.9,0,1.6-1.2,1.8c-1.2,0.3-1.3,1.6-3,2.2s-0.4-0.4-0.8-1.2
				c-0.5-0.9-0.5,0.1-1.2,0.8c-0.7,0.8-3.2-0.7-4.3-1.1c-1.2-0.4,1.1-2.2,1.8-2.3c0.7-0.1,1.1,0.7,1.5,0.4c0.5-0.3-0.3-1.6-0.5-1.6
				c-0.3,0-1.2-1.2-0.9-2c0.3-0.8-2,1.5-3.2,1.5s-0.8-2.3-1.6-3s0.4,2,0.5,2.8c0.1,0.8-0.9,0.9-1.8,0.5c-0.8-0.5-0.7,0.3-2-0.1
				c-1.3-0.4,0.4-2.6-0.1-3.6c-0.5-1.1-1.9,3.6-3.1,3.1c-1.2-0.5-0.1-2-0.4-2.6c-0.3-0.7-0.5,0-1.5,0.8s-3.2-0.7-3.5-1.6
				c-0.3-0.9-0.1-0.9-1.6-0.9c-1.5,0.1-4.3-4.9-5.5-5.5c-1.2-0.5,0.3,2.2-0.5,2.6c-0.8,0.5-2.2-1.5-2.4-3c-0.3-1.3-0.9-2.4-2.3-3.5
				c-1.3-1.2-10.6,1.3-12,0.9c-1.3-0.4,0.1-1.1,0.7-1.5c0.5-0.4,1.2-1.6,1.3-3c0.1-1.5,1.2-4.9,2-5.7c0.9-0.8,0.9,1.9,0.7,2.8
				c-0.1,0.9,0.4,1.5,1.1,1.1c0.7-0.5,1.6-3.6,1.2-4.7c-0.4-1.1,0.8-1.8,1.9-2c1.1-0.3,0.4,5.4,0.1,6.7c-0.1,1.5,0.4,0.9,1.2,0.1
				c0.8-0.8,0.4-1.3,0.1-2.7c-0.1-1.3,0.7-4.9,1.8-5.8s0.5,1.2,1.3,2.6c0.8,1.2,1.3-2.3,2.6-3c1.2-0.5-0.3,4-0.8,5.5
				c-0.7,1.5-0.9,0.5-2.3,0c-1.2-0.4-0.9,2.8-0.7,4c0.3,1.3,0.9-0.1,2.3-0.8c1.3-0.8,1.1,1.6,1.2,2.6c0.1,0.9,1.1,0.5,1.2-0.4
				c0.1-0.9-0.5-3.4-0.1-4c0.4-0.8,0.8-2.7,0.8-4.3c0-1.6,3-3.2,3.8-3c0.8,0.3-0.9,3.9-1.5,4.7c-0.5,0.9-0.3,3,0.1,4.2
				c0.5,1.2-1.8,2.8-1.8,4s1.8,0.4,2.2-0.8c0.4-1.2-0.1-3.9,0.5-5.3c0.5-1.2,2-4.3,2-5.7s1.3-4.6,2.3-4c0.8,0.5-0.8,3.4-0.5,5
				s-1.2,3.2-1.8,3.9c-0.5,0.7,0.7,1.5,0.8,2.6c0.1,1.1-1.6,2.4-1.3,3c0.3,0.5,0,3.4,0.5,4s0.4-1.2,0.5-2c0.1-0.9,2.3-3,1.9-4
				c-0.3-1.1-0.5-1.8-0.8-2.7c-0.3-0.8,3.1-6.6,3.2-7.3c0.1-0.7,0.7-4.7,1.3-5.4c0.7-0.5,3.2-6.9,3.2-6.9c0.1-2.8,0.7-4,1.6-4
				c0.9,0-0.8,3.8-0.8,3.8s0.4,3.6-0.1,4.7c-0.5,1.1-4,7.4-4.2,8.5c-0.1,1.1,0.3,2.3-0.1,3.4c-0.3,1.1-1.6,4.3-0.8,5
				c0.8,0.8,1.2-0.4,1.5-3.2c0.3-2.8,3.6-7.1,4.2-8.8c0.4-1.6,0.7-5.4,0.9-6.9c0.3-1.5,1.9-3.2,2.3-4.3c0.4-1.2,0.9-1.5,0.9-2.6
				c0-1.1,1.5-3.1,2.2-4.2c0.5-1.1,1.3-6.1,1.3-7.8s1.6-1.2,2.6-0.8c0.9,0.4-0.8,3.5-0.9,4.9c-0.1,1.3,0.3,1.2-0.9,2.6
				c-1.2,1.2-2.3,4.2-3.2,6.5c-0.8,2.3-1.6,5-2.3,6.3s-0.5,2.4-0.5,3.5c0,1.2-0.9,1.6-1.3,4.3s-2.6,6.7-3.2,8.1
				c-0.7,1.2,0,1.2,0,2.6c0,1.3-0.8,2.2-0.1,3.4s1.2-0.9,2.6-2.6c1.3-1.6,0-3.2,0-4.4c0-1.1,3.6-7.7,3.5-8.2
				c-0.1-0.5,0.9-5.5,2.4-7.4c1.6-1.9,0,5.3,0,5.3s-4,8.1-3.9,11.3c0.1,3.2-0.8,5.7-1.2,6.5c-0.4,0.8,0.3,1.8,0.7,2.4
				c0.4,0.7-1.6,3.2-0.8,4.3c0.8,1.1,1.9-2.3,2-3.6c0.1-1.5-0.4-1.3-1.1-2c-0.7-0.5,1.3-1.5,2.3-3.5c0.9-1.9,0.1-2.6-0.4-3.9
				c-0.5-1.3,2.8-6.2,3-6.7c0.1-0.5,1.3-2.6,1.1-3.6c-0.3-1.1,0.7-1.6,1.6-2.7c0.8-1.2,0.8-2.7,0-3.8c-0.8-1.2,3.6-8,3.6-8
				s0.8,0.3,0-1.2c-0.9-1.5,2.2-2,2.2-2c1.2-0.3,1.2,1.6,0.5,2c-0.5,0.4-1.9,1.6-1.6,2.6c0.1,0.8-2.3,4.6-3.1,5.9
				c-0.9,1.3-0.5,3.9-1.1,4.6c-0.5,0.8-0.1,2.3-0.5,3.2c-0.4,0.9-0.4,0.9-0.3,1.8c0.1,0.8-1.5,3.6-2.4,5.7c-0.9,2-0.8,3.2-0.4,4.6
				c0.5,1.3-0.1,3.2-1.2,4.7c-1.2,1.5,0.5,1.1,1.2,2c0.7,0.9-1.2,2.4-1.5,4.2c-0.3,1.8,2.7,2.3,3.4,2c0.7-0.1-0.3-1.2-0.8-2.6
				c-0.5-1.3,0.5-2.4,0.1-3.1c-0.4-0.7-0.8-2.6-0.1-3.8s1.3-4.7,1.3-6.1c0-1.2,0-3.2,0.8-4.9c0.8-1.5,1.1-1.8,0.9-2.6
				c-0.1-0.7,1.9-4.4,3-6.5c1.2-2,0.7-3.4,1.2-4c0.5-0.7,1.1,1.2,1.1,2.3c-0.1,1.1-0.9,3.6-2.3,5.7c-1.3,2-1.2,2.3-0.8,4.6
				c0.4,2.2-1.9,3.6-2.2,4.9c-0.4,1.2,0.3,4.3,0.3,5.8c0,1.3-0.9,1.6-1.3,3.6c-0.4,2,2-0.8,3.1-3c1.1-2.3,0.1-4.2,1.9-4.7
				c1.6-0.5,1.8,2.4,2.8,2.4h0.3c0,0,0.4,1.2-0.1,1.8c-0.5,0.5,0,0.9,0.4,1.6c0.4,0.5,0.1,1.2,0,1.9c-0.3,0.7-1.3,1.9-0.8,3
				c0.5,1.2,0.9,3,1.2,5.1c0.1,2,0.5,2.4,1.3,1.5c0.9-1.1-0.1-8.1,0.1-9.2c0.3-1.1,1.2-0.7,2.3-0.8c1.2-0.3-0.1,1.6-0.8,2.6
				C334.4,199,335.8,201.1,335.8,202.3z M338.5,218.9c-0.1,0.9-1.6,0.5-2.2-0.1c-0.5-0.7,0.5-3.6,0.8-4.6c0.1-0.9-0.1-3.1,0-4
				s0.5-1.9,0-3.1s-0.4-2.8,0-3.4c0.3-0.5,0.5-3.9,0.5-3.9c0.9-0.8,1.1,0.9,1.1,1.5c0,0.4,0.7,0.9,0.4,1.3c-0.3,0.3-0.7,1.1-0.3,1.5
				s0,2.3-0.3,3.1c-0.3,0.8,0.7,3.6,1.1,4.7c0.5,1.1-0.1,1.8-0.4,3.1C339.1,216,338.7,217.8,338.5,218.9z M340.3,227.9
				c-0.3,0-0.5-0.4-0.5-0.8s0.3-0.8,0.5-0.8c0.3,0,0.5,0.4,0.5,0.8C340.9,227.5,340.6,227.9,340.3,227.9z M340.8,215.2
				c-0.9-0.1,0.3-3.9,0.3-4.2s0.5,0,0.1-0.9s0.5-0.9,0.5-0.9c1.1-0.1,0.5,1.6,0.3,1.9c-0.4,0.3,0.1,1.1,0.5,2.4
				C343,215.1,341.8,215.3,340.8,215.2z M342.1,201.9c-0.7,0.8,0.3,2.7-0.1,3.6c-0.3,1.1-0.5,0.7-1.5-0.1c-0.9-0.8-0.4-2.6,0.1-3.5
				c0.5-0.9,0.8-2.7,0.8-3.8c0-1.1,1.3-0.3,1.3-0.3C344.3,198,342.6,200.9,342.1,201.9z M343.2,194.1c-0.4,0.7-1.1,1.1-1.5,0.8
				c-0.4-0.3-0.4-1.1,0-1.8c0.4-0.7,1.1-1.1,1.5-0.8C343.6,192.6,343.6,193.4,343.2,194.1z M345.2,213.5c-0.4,0-0.8-0.3-0.8-0.8
				c0-0.4,0.4-0.8,0.8-0.8s0.7,0.3,0.7,0.8S345.6,213.5,345.2,213.5z M345.3,199.4c-0.5,0-0.8-0.8-0.8-1.8c0-0.9,0.4-1.8,0.9-1.8
				s0.8,0.8,0.8,1.8C346.3,198.6,345.9,199.4,345.3,199.4z M454.6,148.6c0,0.1-0.1,0.3-0.3,0.3c-0.3,0-0.3-0.1-0.3-0.3
				s0.1-0.3,0.3-0.3C454.4,148.2,454.6,148.4,454.6,148.6z M451.3,106.9c1.2-0.1,2.7,1.8,3,2.7c0.3,0.9-2.8-0.5-3.8-0.9
				c-0.8-0.4-1.1,0.1-2.7-0.9C446.1,106.6,451.3,106.9,451.3,106.9z M451.4,169.5c-0.1,0.4-1.3,1.1-2.8,0.4
				c-1.3-0.8,1.6-3.8,1.6-3.8c0.7-0.7,2.4,2.8,2.4,2.8S451.7,169.1,451.4,169.5z M451.7,177.5c-0.4,0.4-1.6-1.1-2-2
				c-0.4-0.9,0.5-1.9,0.5-1.9C452.2,173,452.1,177.1,451.7,177.5z M447.8,177.6c0.9,0,0.9,2.3,0.8,3.2c0,0.9,0.5,2.3,0.5,3.5
				s-0.9,0.4-1.8-0.5c-0.7-0.9-1.1-1.2-1.3-3.9C445.9,177.2,447.8,177.6,447.8,177.6z M449.8,147.8c1.6,0.7,0,3.2-0.4,4.4
				c-0.3,1.2-1.3-0.8-2-3.1C446.7,146.7,449.8,147.8,449.8,147.8z M445.3,96.5c2-0.3,1.9,1.3,1.9,2c0,0.5-1.1,1.1-3-0.1
				C442.4,97.3,445.3,96.5,445.3,96.5z M445.1,114.5c-0.1,0.7-3.1-1.6-4.2-3.1c-1.1-1.5,1.3-1.1,1.3-1.1
				C443.5,110.6,445.1,113.9,445.1,114.5z M441,92.6c0.5-0.1,0.1,0.4,0.5,0.5c0.4,0.1,1.9,1.1,1.6,1.8c-0.3,0.7-1.6-0.3-2-0.7
				c-0.4-0.5-0.9,0-1.8-0.7C438.9,92.7,441,92.6,441,92.6z M435.8,91.1c0.4-0.4,0.5,0.1,0.3,0.5c-0.3,0.3-3.4,4-5,2.8
				C429.6,93.2,435.8,91.1,435.8,91.1z M435.2,99.8c0,0.3-0.9,0.3-1.2,0c-0.3-0.4,0.8-0.5,0.8-0.5S435.2,99.6,435.2,99.8z
				 M430.2,118.8c0.7-0.7,0.1-2.3,1.2-6.2s2-4.9,2-4.9c-1.1-4.6,2-4.3,2-4.3c0.9-1.1,3.6,0,3.6,0c1.9,0.5,2.8,3.2,1.8,3.4
				c-1.2,0.1-1.5-0.8-2.2-0.1c-0.7,0.7,1.9,2.4,0.8,2.4c-1.1,0-2.2-0.8-3-0.1c-0.8,0.7,1.2,1.2,1.6,2.3c0.3,1.1,4.4,11.2,3.2,11.5
				c-1.1,0.1-2.4-1.8-4.2-3.6c-1.8-1.9,1.2,3.1,1.2,4.3c0,1.1-0.8,1.6-2.4-0.7s-1.3-0.9-1.3,0.5c-0.1,1.5,4.6,7.5,5.8,8.9
				c1.2,1.3,6.3,6.3,6.3,7.3c0.1,0.8,0.4,1.6,0.4,1.6c1.8,4.6,0.4,5-1.8,3.6c-2.2-1.3-5.9-6.6-7-6.5c-1.2,0.1,0.5,4,2.7,6.3
				c2.2,2.2,1.6,4.3,1.3,4.6c-0.3,0.3,0,0.5,0.3,1.3c0.3,0.7,0.1,1.3,0.1,1.3l0.8,0.5c0,0,0,1.3-1.1,1.1c-1.1-0.1,0-2.2-0.4-2.2
				c-0.3,0-1.1-0.8-1.3-2.6c-0.3-1.6-1.9-4.2-2.4-5.5c-0.5-1.3-2-2.3-3.1-3.9c-1.1-1.6-0.5-2.8,0.1-4c0.7-1.1-3.4-4.7-4.9-6.1
				c-1.5-1.3-1.1-2.2-0.7-3c0.5-0.8-0.5-1.8-0.7-3.8C429.3,120.7,429.6,119.5,430.2,118.8z M444.9,153.6c-0.3,0.3-0.4-0.8-0.4-1.1
				s-0.3-0.7-0.3-1.3s0.8-0.1,0.8-0.1c0.3,0.1,0,1.2-0.1,1.5C444.9,152.5,445.2,153.4,444.9,153.6z M431.2,164.8
				c-0.7-2.6,0.9-3.4,0.9-3.4c1.5-0.8,1.6,3,1.8,4.6c0.1,1.6,1.8,3.1,2.2,3.5c0.4,0.3,0.4,2,1.2,3.8c0.8,1.8-0.5,2.7-1.9,2
				s-1.2-3.8-2-5.3c-0.8-1.3-1.3-1.9-1.3-2.3C432,167.1,431.9,167.2,431.2,164.8z M437.1,155.5c-1.3-0.4-0.1,3.2-0.4,3.8
				c-0.3,0.5-1.2-0.1-1.3-1.5c-0.1-1.3-1.6-9.3-1.9-10.9c-0.3-1.6,1.9-1.2,2.3-2c0.4-0.8-0.7-0.4-0.7-0.4c0-2.6,0.9-1.6,0.9-1.6
				s3.5,5.1,4,5.8c0.5,0.8,0.1,1.3,0.1,5.5c0,4-1.3,2.6-1.6,2.6C438.1,156.6,438.5,155.8,437.1,155.5z M444,155.2
				c1.9-0.1,0.1,2.7,0.1,2.7l-1.6,0.3c0,0-0.7,4-2.7,3.4C437.7,161,444,155.2,444,155.2z M444,162.2c1.2,0.5,0.8,2.6,0.8,2.6
				s-1.2-0.4-1.9-1.1C442.5,163.2,444,162.2,444,162.2z M431.7,138.9c0,1.8-1.5,2.2-2.4,2.2c-0.9,0-3.2-2-3.6-3.1
				c-0.4-1.1,2.4-2.3,2.4-2.3C431.6,137.3,431.7,137.3,431.7,138.9z M429,170.9c-1.2,0,0.1-0.9,0.1-0.9c0.4-0.4,0.7-0.3,1.3,0.1
				C431.2,170.6,430.2,170.9,429,170.9z M426.2,147c2.2,1.8,0.1,2.4-0.8,2.7c-0.8,0.3-2.7-2.4-2.6-3.2c0.1-0.8,1.9,0.1,2.3-0.1
				c0.4-0.1-0.3-1.1-2.4-2.7c-2.2-1.6-0.3-1.9-0.3-1.9c0.5,1.6,3,1.9,4.4,2.4c1.5,0.4,0.7,2,0.7,2C425.1,146.6,426.2,147,426.2,147z
				 M417.7,148.6c-0.7-0.8,1.5-2,1.5-2c0.7-0.4,3.5,3.1,3.5,3.5s-1.5,0.5-1.5,1.3c0,0.8-0.3,2.2-1.6,2.2c-1.3-0.1-0.4-1.2,0-1.9
				S418.4,149.4,417.7,148.6z M417.7,151.1c0,0.3-0.1,0.4-0.4,0.4s-0.4-0.1-0.4-0.4c0-0.3,0.3-0.4,0.4-0.4
				C417.6,150.7,417.7,150.8,417.7,151.1z M426.7,142.7c-2.3-1.2-1.9-2.4-1.9-2.4s0.1-0.3,0.4-0.3c0.3-0.1,0.7,0.7,1.2,1.2
				c0.5,0.7,2.2,1.1,2.6,1.8C429.7,143.5,429,143.9,426.7,142.7z M428.5,94.9c0,0,1.6,1.9-0.8,3c-2.3,1.1-3.1-0.4-3.1-0.4
				C424.4,94.3,428.5,94.9,428.5,94.9z M420,114.7c1.6-0.5,2.8,1.9,3,3.2c0.1,1.3-0.1,0.7-1.6,2.3s-3.6,2.2-5.3,2
				c-1.6,0-2.6-1.1-2.2-1.5c0.3-0.4,0-0.4,1.8-3.4C417.3,114.3,420,114.7,420,114.7z M418.8,91.9c0.5,0.1,0.3,1.1-0.5,1.2
				c-0.9,0.1-0.4,0.5-1.6,0.4c-1.1-0.1,0.1-1.3,0.1-1.3C417.2,91.5,418.2,91.8,418.8,91.9z M415.8,83.8c1.6-0.3,1.1,2.2,1.1,2.8
				c0,0.5-0.5,1.2-0.5,1.2c0.8,3.2,0,3-0.7,3.4c-0.7,0.4-1.2-0.7-1.2-1.3c0-0.7-0.4-2.2-1.1-3.6C412.5,84.7,415.8,83.8,415.8,83.8z
				 M413.1,95c1.1,0.7-0.9,2-1.8,1.3C410.6,95.5,413.1,95,413.1,95z M410.3,86.1c0.5-0.3,0.8,0.1,1.1,0.4c0.3,0.3,0,0.8-0.8,0.5
				C409.8,86.8,410.3,86.1,410.3,86.1z M408.5,129.4c1.1-0.9,1.5,0.4,1.9,1.1c0.4,0.7,0.8,1.2,0.8,1.2s0,0,0.8-0.8
				c0.8-0.8,3.2-3.2,3.2-3.2c1.8,0.1,0.5,3-0.3,4.4c-0.7,1.5-3.6,0.7-4.7,0.9c-1.1,0.3,0.3,1.2,0.9,0.8c0.7-0.5,2.3,0.4,2.4-0.1
				c0.1-0.5,1.5-0.4,2.7-1.1c1.2-0.8,1.8-3.5,2.2-4.3c0.4-0.9,1.5-3,4-3.6c2.4-0.8,0.9,3.8,0.5,4c-0.4,0.3-0.9,0.1-1.8,2.8
				c-0.8,2.7-5,5.1-8.9,5.5c-3.9,0.4-3.5-1.9-4.2-2.8c-0.7-0.9-1.2-0.5-1.9-1.6C406.1,131.2,407.6,130.3,408.5,129.4z M409.4,143.4
				c-1.2-0.5,1.2-1.9,1.2-1.9c2.3,0.1,1.1,1.8,1.1,1.8S410.6,144.1,409.4,143.4z M410.2,152.5c0,0-1.5,0-1.9-0.7
				c-0.4-0.5,1.6-0.1,1.6-0.1C410.6,151.7,410.2,152.5,410.2,152.5z M407.7,147.4c3.4,1.5-0.1,2.6-0.9,2.8c-0.8,0.3,0,3.6,1.2,4.4
				c1.2,0.8,2.4,1.9,2.4,1.9s0.3-1.6,1.5-1.8c1.2-0.1,1.1,1.1,0.8,1.6c-0.3,0.5,0.3,1.1,0.9,1.6c0.5,0.5,1.5,0.4,2.7,0.8
				c1.3,0.5,1.6-0.5,1.8-1.5c0.1-0.9-0.5-0.8-2.3-0.9c-1.9-0.3-0.3-1.2,0.4-1.5c0.8-0.3,2,0.5,2.8,0.4c0.8-0.1,2.2-0.3,2.2-0.3
				s1.1,0.8,1.6,1.3c0.7,0.5,0.8,0.3,2.6,0.5c1.6,0.3,2.6,1.8,2.6,1.8s1.3-0.4,2.2-0.8c0.8-0.4,0.3,3.5,0.3,3.5s-0.9,0.7-0.4,1.3
				c0.4,0.7-0.3,5-0.8,5.3c-0.5,0.3-0.9-0.7-1.2-2.4c-0.3-1.6-0.1-2.3,0.5-2.8s-0.9-3.1-1.3-3.5s-1.2,0.4-1.2,0.4s-0.9-0.7-2.6-1.2
				c-1.6-0.5-1.2,0.1-1.2,0.1s-1.2-0.7-2.4-0.5c-1.2,0-1.6-0.8,0.9,1.9s0.1,2,0.1,2c-3.4-1.3-3.8-0.8-4.9-0.4
				c-1.2,0.4,0.3,4-0.4,4.4c-0.7,0.4-1.3-3.4-1.9-4.4c-0.4-1.1-1.9-0.8-2.8-0.7c-0.8,0.1-1.6-1.2-2.3-1.6c-0.5-0.4-1.8-0.4-4.7-1.6
				c-3-1.2-2.8-1.2-2.8-1.6c-0.1-0.4-1.8-1.6-2.8-2.7c-1.1-1.1,3.9-4.9,5.9-6.1C406.1,146.1,407.7,147.4,407.7,147.4z M425.5,162.2
				c0,0.5-0.5,1.1-1.2,1.1s-1.2-0.4-1.2-1.1c0-0.5,0.5-0.9,1.2-0.9C425,161.2,425.5,161.6,425.5,162.2z M421.6,186.9
				c0,1.3-2-0.1-2.7-0.7c-0.7-0.5,0.1-1.1,0.4-2.7c0.3-1.5-0.4-0.9-0.8-1.2c-0.4-0.3-0.7-4-0.3-4.7c0.4-0.5,0.9-4,0.9-4.7
				c0-0.8,2.2-1.6,2.4-1.9c0.1-0.3,0.4-1.8,0.4-1.8c1.6,3.9-0.9,4.7-0.9,5.5c0,0.8-0.5,7.5-0.5,8.2
				C420.3,183.8,421.5,185.7,421.6,186.9z M422.6,205.8c0.1,0.7,0.1,2.8,0.3,4.2c0.3,1.3-1.8,1.9-3,0.9c-1.2-0.9,0.1-1.5,0.5-2.3
				c0.4-0.8,0.7-3.2,0.7-3.2C421.1,204.8,422.4,205.2,422.6,205.8z M422.6,201.9c0-0.3,0.3-0.4,0.5-0.4s0.5,0.1,0.5,0.4
				s-0.3,0.4-0.5,0.4S422.6,202,422.6,201.9z M416.9,208.5c-0.1-1.1,0-3.5-0.4-4.7c-0.5-1.2,0.7-2,1.2-2.8c0.5-0.8,1.5,6.6,1.5,6.6
				c0,0.5-0.1,2-0.5,2.4C418.1,210.4,417,209.6,416.9,208.5z M417.6,213.3c-0.1,0.8-2.2,0.9-2.7,0.7c-0.5-0.3,1.1-2,1.1-2
				C417.4,210.8,417.7,212.5,417.6,213.3z M419.1,195.9c-0.3,0-0.4-0.1-0.4-0.4c0-0.3,0.3-0.4,0.4-0.4c0.3,0,0.4,0.1,0.4,0.4
				S419.3,195.9,419.1,195.9z M419.9,202.7c0-0.5,0.3-0.9,0.5-0.9c0.3,0,0.5,0.4,0.5,0.9s-0.3,0.9-0.5,0.9
				C420.1,203.6,419.9,203.2,419.9,202.7z M400.9,244.3c0.3,0.3,3-1.5,3.9-2.3c1.1-0.8,4.9-4.6,5.9-4.6s-0.1,1.1-0.7,1.8
				c-0.5,0.5-1.1,0.8-1.5,1.8c-0.3,0.9-2.7,3-2.7,3.5s-4.3,3.1-6.9,4.4c-2.6,1.3-2.3,1.3-2.8,0.9c-0.5-0.4,3.8-4.6,4-4.9
				c0.1-0.4,0-0.7-0.9-0.7c-0.9,0-4.3,0.7-4.4,0.1c-0.1-0.7,1.8-1.1,1.8-1.1c0.1-0.1,0.8-0.9,0.8-1.2c0-0.4,3.1-1.8,4.2-2.6
				c1.1-0.8,5-4.7,6.6-5.5c1.6-0.8,2.8-1.9,3.6-1.8c0.8,0.3-1.1,2.2-1.6,2.8c-0.7,0.7-2.6,1.2-3.5,2.7s-5,4.3-5.5,5.3
				C400.5,243.8,400.6,244.1,400.9,244.3z M384.4,204.2c-0.1-0.7,0.3-0.3,0.7-2.7s1.2-2.4,1.2-2.4c2.2-0.1,0.5,3.2,0,4
				c-0.4,0.8,0.4,1.2,0.4,1.9c0,0.7-0.5-0.1,0,0.9c0.5,1.1-0.5,2.6-1.6,2.4c-1.1-0.1-0.3-2.2-0.3-2.8C385,205,384.6,205,384.4,204.2
				z M384.8,188.7c-0.4-0.3-1.1,0.5-2,0.4c-0.8-0.1-0.1-0.9-0.7-1.6c-0.5-0.5-2.4,3-2.8,3.5c-0.5,0.5-1.2,0.4-1.6-0.8
				c-0.4-1.1,1.1-2.2,1.2-2.7c0.3-0.5,0.3-1.6,1.1-3.2c0.8-1.5,1.5-7.7,2-8.6c0.7-0.9,2.6,0.4,1.8-0.5c-0.8-0.9,0.1-2.4,0.1-2.4
				c0.4-0.5,2.2,1.6,3.2,2.8s0.5,2.8,0.5,2.8s0.4-0.1,0.8,0.5c0.4,0.7-0.4,5.1-0.4,6.3s-1.6,2.8-1.9,3.5c-0.3,0.7-0.7,2.8-1.5,3.1
				c-0.8,0.4-1.2-0.5-1.1-1.1C384.1,190.3,385.1,188.9,384.8,188.7z M381.7,193.6c-0.8,0.5-0.5-1.6-1.1-2.4
				c-0.5-0.8,1.8-0.7,1.8-0.7C383.2,190.5,382.5,193.1,381.7,193.6z M377.3,199.6c0.1,0.8-1.2,3.1-1.2,3.1c0,1.2,0.8,3.5,0.3,4.2
				c-0.7,0.7-2.3-1.1-2.6-1.8c-0.3-0.7,0.3-1.5,0-2c-0.3-0.5,0.9-3.4,1.5-4c0.5-0.7,1.3-2.7,1.6-4.7c0.3-2,1.8-2.2,1.8-2.2
				c0.7-0.5,1.2,0.8,1.3,2c0.1,1.1-2.2,2.7-2.8,3.2C376.5,198,377.1,198.9,377.3,199.6z M386.7,132.9c1.1-1.3,2,0.9,2.3,1.1
				c0,0,1.8,0.5,2.4,1.5c0.7,0.9-2.4,0.8-4.2,0C385.5,134.6,385.8,134.2,386.7,132.9z M387.1,126.4c1.1-0.3,1.1,1.1,1.3,2.3
				c0.3,1.2,1.1,0.7,1.9-0.4c0.8-0.9,2.2-0.4,2.2-0.4c2.4,2.3-1.1,3.4-1.5,3.8c-0.3,0.3-0.9,0.1-1.3,0.1c-0.4,0-0.9,0.4-2.8-2
				C384.8,127.2,387.1,126.4,387.1,126.4z M409.9,179.5c1.2,5,0.1,4-0.3,4c-0.4,0-0.7-0.4-0.4-1.3c0.3-0.8-0.8-2-1.9-3.9
				c-1.1-1.9,0.1-2.2,0.1-2.2C408.7,176.1,409.9,179.5,409.9,179.5z M408.3,172.9c0-0.1,0.1-0.1,0.1-0.1c0.1,0,0.1,0,0.1,0.1
				c0,0.1-0.1,0.1-0.1,0.1C408.3,173,408.3,173,408.3,172.9z M394.4,216.3c0.4-0.3,1.5,2.8,1.6,3.9c0.1,1.1,0.1,1.6-0.4,1.8
				c-0.5,0.1-1.2-0.4-1.6-1.3c-0.4-0.9-0.3-1.2-0.9-2.3C392.4,217.1,394.4,216.3,394.4,216.3z M393.7,201.5c2.4,1.8,1.1,2.7,0.1,2.7
				c-0.9,0-0.4-1.5-0.8-1.9C392.6,201.9,393.7,201.5,393.7,201.5z M395.7,191.1c-0.3,0-0.5-0.3-0.5-0.7c0-0.4,0.3-0.7,0.5-0.7
				c0.3,0,0.5,0.3,0.5,0.7C396.3,190.8,396,191.1,395.7,191.1z M395.2,188.8c-0.8,0.3-1.2-1.8-1.3-2.2c0-0.4-0.5-0.1-0.8,0.4
				c-0.4,0.5-0.8,1.3-2,0.4c-1.2-1.1,0.7-6.2,0.8-8.2c0.1-2,0.3-1.5-0.8-2.7c-1.2-1.2,0.4-3.6,0.4-3.6c0.7-0.7,1.5,1.2,2.3,2
				c0.8,0.8,1.2,2.4,1.8,1.9c0.5-0.7,2.2-0.9,2.4-0.1c0.3,0.8-1.5,8.6-1.6,10.2C396.4,188.7,396,188.7,395.2,188.8z M391.2,206.9
				c-0.1,0.5-1.2-0.3-1.9-1.1c-0.5-0.8,0-0.5-0.9-2.8c-0.9-2.3-0.3-1.8,0.3-2.7s1.3-1.1,1.3-1.1c0.5-0.3,0.5,2.7,0.7,3.9
				C390.9,204.7,391.4,206.5,391.2,206.9z M405.3,203.9c0,0-1.6,0.1-2.2-2.3c-0.5-2.4,1.2-2.3,1.2-2.3c0.8,0,0.8,1.1,1.2,2.7
				C406.3,203.8,405.3,203.9,405.3,203.9z M406.9,212.2c0.7-0.1,1.3,1.3,1.1,2.2c-0.1,0.8-1.3,0.3-2.3-0.8
				C404.9,212.5,406.9,212.2,406.9,212.2z M400.9,221.7c-0.3-1.1,1.1-0.3,1.1-0.3s2.6,2.4,2.6,4.4c0.1,1.9-1.2,3-2.2,2.8
				c-0.9-0.1,0.1-2.4,0.4-3.2C402.9,224.5,401.1,222.8,400.9,221.7z M400.1,219.5c-0.8,0-1.5-0.8-1.5-1.3c0-0.7,1.3-0.9,1.3-0.9
				c0.1-0.3,0.8,0.4,1.2,0.7C401.5,218.2,400.9,219.5,400.1,219.5z M404.4,186.8c-0.5,0.9-0.4,1.3-1.5,2c-1.1,0.7-0.7-1.1-0.3-1.8
				c0.3-0.5-0.1-3-0.8-4.2s0.4-0.9,0.4-1.5c0-0.7,0.4-0.9,0.4-0.9C403.6,179.8,404.9,186,404.4,186.8z M401.5,202.5
				c0.1,0.8,1.9,4.3,1.9,4.3l-1.3,0.8c0,0-2-1.3-2.4-5.1c-0.4-3.8,1.3-3,1.3-3C402.3,199.7,401.4,201.7,401.5,202.5z M400.9,181.3
				c-0.3,0.3-0.9,4.2-0.9,4.2s-0.1,1.3-1.3,0.3c-1.3-1.1,1.1-6.9,1.1-6.9C400.9,177.9,401.1,181,400.9,181.3z M398.3,212.9
				c0.4,0,1.9,3.1,1.1,3.2c-0.8,0.1-1.8-2.8-1.8-2.8C397.4,212.8,398,212.9,398.3,212.9z M398.2,236.9c0-0.3,0.5-1.1,1.5-1.2
				c0.9-0.1,3.2-2.2,3.6-3c0.4-0.8,1.8-1.8,2.2-1.8c0.5,0,0.3-4,0.4-4.3c0.3-0.3,1.2-1.6,1.2-1.9s-0.7-0.5-1.1-0.8
				c-0.4-0.4,0.4-1.9,0.4-1.9c0.5-0.1,0.8,0.4,1.1,0.8c0.4,0.4,0.3,3,0.3,3.8c0,0.8,0.7,1.2,0.5,1.8c-0.1,0.5-2.2,3.6-2.7,4.6
				c-0.5,0.8-3.5,4.2-4.3,4.6c-0.8,0.3-3.1,2-4.4,2.4C395.3,240.1,398.2,237.2,398.2,236.9z M408,207.1c-0.4,0,0.4-2.2,0.4-2.2
				C409.4,205,408.3,207.1,408,207.1z M408.8,216.2c0.1,0,0.3,0.1,0.3,0.3c0,0.1-0.1,0.3-0.3,0.3c-0.1,0-0.3-0.1-0.3-0.3
				C408.5,216.2,408.7,216.2,408.8,216.2z M407.7,183.4c0.3,0.9-0.7,2.2-1.2,1.9c-0.5-0.4-1.9-5.3-1.9-5.7c0-0.4-0.1-0.8-1.1-1.5
				c-0.9-0.5-0.7-1.3-1.2-2.2c-0.7-0.7,1.2-0.8,1.2-0.8c1.2-0.3,2,2.2,2.3,2.8C406.1,178.6,407.6,182.5,407.7,183.4z M403.6,164.7
				c-0.5,0.3-1.3-0.7-1.9,0c-0.7,0.7,0,2.3-0.8,3.4c-0.8,1.1-2.7,0-4-1.1c-1.3-0.9-3.2-2.3-4.2-2.4s-1.8-1.3-0.8-3.2
				c0.8-1.9,3,0,3,0c0.7,0.4,0.4,0,0.4-0.8c0.1-0.7-0.1-2.2,1.3-3.5c1.3-1.2,3.5,0.7,6.1,3.2C405.2,162.9,404.1,164.4,403.6,164.7z
				 M395.1,154c-0.9,0.1-3,2.3-4.4,2.6c-1.6,0.3-1.1-0.9-0.5-2.2c0.5-1.2,0.4-2.2-0.3-3.4c-0.8-1.3-1.1-4.9,0-5.5
				c1.1-0.5,3.2,2.2,3.2,2.2s0.1,0.8,0.7,1.8c0.5,0.9,1.1,0.7,2,1.2C396.5,151.2,396,153.9,395.1,154z M386.3,154.8
				c0,0.1-0.1,0.3-0.4,0.3c-0.1,0-0.4-0.1-0.4-0.3s0.1-0.3,0.4-0.3C386.2,154.6,386.3,154.7,386.3,154.8z M386.6,220.6
				c1.2-0.7,1.8,1.3,2.2,1.8c0.5,0.5,3.2,3.2,3.5,3.9s-1.8,0.7-2.4,0.7c-0.8,0-1.6-1.8-1.6-2.4c0-0.8-0.7-1.3-2.3-2.4
				C384.3,221.1,386.6,220.6,386.6,220.6z M391.4,221.8c-0.7-1.3,0.4-1.9,0.4-1.9c0.5-0.3,2.6,3.2,3.1,3.9c0.5,0.7,1.1,2,1.1,2.6
				c-0.1,0.7-1.2,0.1-1.9-0.8C393.3,224.6,392,223.3,391.4,221.8z M411.4,179.6c0-0.4,0.3-0.7,0.7-0.7c0.4,0,0.7,0.3,0.7,0.7
				c0,0.4-0.3,0.7-0.7,0.7S411.4,180,411.4,179.6z M412.7,228.6c0.3,0.3,0.5,1.1-0.3,1.1C411.5,229.5,412.7,228.6,412.7,228.6z
				 M402.1,135.4c2-0.7,2.3,0.7,2.3,0.7c0.4,1.1,1.6,2.4,1.3,2.8c-0.1,0.4-0.1,0.8-0.3,1.5c-0.1,0.8-2,2.3-2,2.3
				c-0.5,4.6-2.7,3.2-2.7,3.2c-3.1,1.3-4.6,0.3-4.6,0.3c-4.7,0.3-4.9-1.3-5.5-2.4c-0.7-0.9,0.7-0.9,0.9-1.8c0.3-0.8,0.4-2.7,0.9-3.4
				c0.4-0.7,0.4-0.8-0.3-1.9c-0.7-1.1,0.7-1.5,1.3-2.7c0.7-1.3,1.5-0.4,1.5-0.4c0.1,0-0.5,1.1-0.7,1.3c-0.1,0.3,0,0.9,0,1.8
				c0,0.8-0.1,0.8-0.4,1.5c-0.3,0.8,2.4,1.5,2.8,1.2c0.4-0.3,0.5-3.4,0.5-4c0-0.7-0.7,0.1-1.6,0.1c-0.9,0,0.1-1.6,0.7-2.3
				c0.7-0.8,0.8,0.3,1.2,0.7s1.1-0.4,2-0.4C401,133.5,402.1,135.4,402.1,135.4z M392.8,89.2c1.1-0.3,2.4,3.2,2.4,3.6
				c0.1,0.5-0.5,0.7-0.5,0.7c0.3,3.8-1.6,2.8-2.2,2.4c-0.4-0.4-0.1-1.6-0.4-1.6c-0.3,0-0.1-0.8,0.1-1.9c0.3-1.1-0.7-1.3-1.3-2
				C390.3,89.7,392.8,89.2,392.8,89.2z M387.1,108.7c2-0.9,2.6,1.1,2.6,1.1c0.3,0.7-0.8,4.7-0.7,6.2c0.3,1.5,1.2,0.7,2-0.4
				c0.8-1.1,0.5-3.9,1.9-4.3c1.3-0.4,0.9,2,1.3,3c0.4,0.9,2.7,1.6,3.6,2.6c0.9,0.9-0.4,6.2-1.2,7.7c-0.8,1.5-2.8,0.3-5.1-0.4
				c-2.3-0.7-0.8-2.4-1.9-3.8c-1.1-1.3-5-2-4.7-3c0.1-0.9-0.9-1.8-0.9-2.6s0.8-0.4,0.5-1.9C384.6,111.3,385.1,109.7,387.1,108.7z
				 M378.8,102.9c1.1-1.6,4.3-2.4,4.3-2.4c3.5,0.1-2.2,2.7-3.1,3.4c-0.9,0.7-1.8,1.3-2.3,0.7C377,103.9,377.7,104.6,378.8,102.9z
				 M371.8,109.3v0.4c-3.1,3-4.3,0.7-4.3,0.7C367.2,108.3,371.8,109.3,371.8,109.3z M363.1,118.6c-1.8-0.7,1.6-1.9,1.6-1.9
				s0.7-0.1,0.9,0.8C366.1,118.3,364.9,119.3,363.1,118.6z M366.6,121.4c-1.1-0.7,1.2-1.3,1.2-1.3s0.4,0.8,0.4,1.2
				C368.1,121.8,367.7,122.2,366.6,121.4z M368.2,119.1c-0.5-0.8,1.5-2.3,1.5-2.3C371.2,118.3,368.8,119.8,368.2,119.1z
				 M369.6,124.8c-1.3,0.3-0.3-2,0.4-3.6c0.7-1.8,2.3-3.2,2.6-4.9c0.1-1.6,2.8-2.6,3.4-3.4s-0.1-0.3-0.9-1.3
				c-0.8-1.2,1.5-1.3,2.8-2.4c1.3-1.1,4.3-2.2,4.3-2.2c2,0.3,0.1,2.3-0.8,3.1c-0.9,0.8-0.9,1.8-1.1,3.1c-0.1,1.5-2,1.6-4.4,2.7
				c-2.4,0.9-2,1.2-1.2,1.9c0.7,0.7,0.8-0.3,3-1.1c2.2-0.8,2,0.5,2.8,1.5c0.8,0.9-1.2,3.8-2.7,4.3c-1.5,0.5-4.6,6.2-5.7,6.1
				c-1.1,0-0.1-3.6,0-4.4C371.9,123,371.1,124.5,369.6,124.8z M360.3,144.7c3.8-0.7,8.2-5.7,9.2-7c0.9-1.3,0.4-2.3,1.2-3.1
				c0.7-0.7,1.9-1.6,2-2.6c0-0.9,1.9-2.7,2.7-3.9c0.8-1.1,1.3-3,2-4c0.5-1.1,1.5-0.5,2.2-0.9c0.7-0.4,1.1-0.9,1.1-0.9
				c3.1-1.2,1.2,4,0.8,4.9c-0.5,0.7-0.1,2.7-0.1,2.7s-1.8,4.4-1.3,5.3c0.4,0.8,0.5,1.8,0.3,3.6c-0.3,1.8,3.2,4.6,4.3,7.1
				c1.1,2.4-0.3,3.1-0.3,3.1c-0.5,0.8,0.3,2.6-0.4,3c-0.8,0.3-0.7,1.5-0.7,1.9c0,0.5,1.1,0.8,0.9,1.3c-0.1,0.5-1.1,1.2-1.3,2.4
				c-0.3,1.2,0.9,0.7,1.6,1.2s0,1.8,0.5,3.6c0.5,1.9-1.3,6.7-1.9,7.5c-0.5,0.8,0,1.1-0.3,2c-0.3,0.9-1.8,2.7-2.3,3.8
				c-0.5,1.1-5.5,7-6.2,8.4c-0.7,1.2-0.1,1.5-0.1,2.7s-1.5,0.8-2.4-0.1c-0.8-1.1,0.1-6.2,0-6.7c-0.3-0.5,0.9-2.4,2.3-4.3
				c1.3-1.9,2.7-3.9,2-4.3c-0.7-0.4-2,2.4-2,2.4s0,0-0.1,0.1c-3.6,2.3-2.7,4.4-2.8,5c0,0.7,0.3,1.1-0.1,1.2
				c-0.5,0.1,0.1,0.5,0.1,0.5c-2,4.6-2.4,0.9-2.4,0.9c-0.7-6.3,2.2-7.5,2.2-7.5l1.1-0.8c0,0-0.5,0.3,0.9-2.4c1.5-2.7,3.4-8,4.9-8.4
				c1.3-0.4,0.3,3.6,1.1,3.9c0.8,0.4,0.9-3,0.9-3c0.3-1.1,0.1-0.7-0.7-1.1c-0.8-0.4,0.1-1.8,0.8-2s0.5-1.9,0.5-2.6
				c0-0.5-1.5-0.5-2.4-1.3c-0.9-0.8,2.4-3.5,2-3.9c-0.4-0.5-2,1.6-2,1.6c-3.5,0.4-3.9,1.5-4.4,2.2c-0.5,0.7-1.2,0.3-1.5-1.1
				c-0.3-1.3,2.2-1.6,2.4-1.9c0.3-0.3,1.5-1.8,2.2-1.9s2.2-1.8,1.8-2.6c-0.4-0.9-2.4,1.3-2.4,1.3c-3.9,1.1-5.4,4.2-5.9,5
				c-0.5,0.8-0.7,3.6-1.1,4.6c-0.4,0.9-2.4,1.2-3.9,0.8c-1.5-0.4,2.4-4.4,3.1-4.7c0.7-0.4,1.2-3.8,1.6-4c0.4-0.3,3.8-2.7,4.3-3
				s-0.1-0.8-0.8-0.8c-0.7,0.1-0.3,0.7-1.2,1.1c-1.1,0.4-5,4.2-5.8,4.9c-0.9,0.7-1.1-0.3-1.2-0.9c-0.1-0.8,3.2-3.5,3.9-4.4
				c0.7-0.9,5.1-3,5.8-4.6c0.7-1.8-4.6,1.9-5.3,2.3c-0.8,0.4-0.5-0.8,0-2.3c0.5-1.3-0.7-0.9-0.7-0.9c-7.5,4.3-10.9,3.9-11.9,3.4
				C355.6,145.7,356.4,145.4,360.3,144.7z M356.9,175.3c0.5-0.1,0.8,0,0.9,0.7c0.1,0.7-1.8,2.3-3.4,1.3
				C352.9,176.5,356.9,175.3,356.9,175.3z M355.3,170.2c-1.2-1.6,2.2-1.9,2.2-1.9c0.3-0.1,0.9,0,0.7,1.2
				C357.9,170.9,355.3,170.2,355.3,170.2z M359.1,181.7c0.3,0-0.3,1.9-1.2,2c-0.9,0.3-0.4,1.3-1.5,1.8c-1.1,0.4-1.5-0.1-1.6-1.9
				C354.8,181.9,359.1,181.7,359.1,181.7z M358.3,160.8c-0.9,1.1-0.5,0.3-1.8-1.2c-1.1-1.6,3.8-3.1,3.8-3.1s1.5,0.5,1.6,1.5
				C361.9,159,359.2,159.7,358.3,160.8z M358.4,154.8c-1.1,0.4-2.4,0.4-3.1,1.2c-0.7,0.9-0.8,2.7-1.8,3.5c-0.9,0.8-0.8-1.1-0.8-2
				c0.1-0.9,1.8-2.4,2.6-4.2c0.8-1.8,4-0.8,4-0.8C360.3,152.8,359.5,154.4,358.4,154.8z M355,172.1c0,0,0.9,0,1.1,1.2
				c0.1,1.1-3.9,2-4.2,0.4C351.7,172,355,172.1,355,172.1z M354.4,203.5c0.9-0.4,0.4,0.5,1.1,0.4s2.2,0.5,2.2,0.5
				c-0.8,1.3-3.9,0.1-4.7-0.3C351.9,203.5,353.4,203.8,354.4,203.5z M356.5,200.1c0.3-0.7,2.6,0,2.6,0
				C357.5,201.1,356.3,200.8,356.5,200.1z M356.8,189.7c-1.2-0.8,1.5-3.5,2.2-4.4c0.7-0.9,1.9-0.1,1.9-0.1c0-0.8,1.2-1.2,1.2-1.2
				c0.3-0.3,0.4,0.8,0,0.8s-0.4,0.5-0.8,0.9C360.8,186.2,356.8,189.7,356.8,189.7z M361.6,178.7c0.3-0.9,0.9-0.3,1.6,0.4
				c0.7,0.7-0.4,1.1-0.4,1.3s-0.9,1.2-1.6,0.7s0.5-1.2,0.5-1.2L361.6,178.7z M363.9,187c1.8-1.2,1.1,0.3,1.1,0.3s-1.9,0.9-0.4,0.4
				c1.5-0.5,1.1,0.5,0.8,0.5c-0.3,0,0.4-1.1-1.5,1.8c-1.9,2.8-3.4,2-3.4,2C358.8,190.7,362.2,188.3,363.9,187z M366.4,190.3
				c0.4,0,0.9,0.4,0.9,0.9s-0.4,0.9-0.9,0.9s-0.9-0.4-0.9-0.9C365.4,190.7,365.8,190.3,366.4,190.3z M366.9,167.6
				c-1.1,0.4-2.7,2.8-3.2,3.4c-0.5,0.7-1.2,3.9-2.3,2.8c-1.1-1.1-0.3-3.5-0.5-5.5c-0.4-1.9,1.3-2.8,1.8-2.8c0.4,0,1.1-2.2,1.8-2.4
				c0.8-0.3,2.6,1.3,2.6,1.3c1.3,0.4,1.1-0.1,2.2,0C370.3,164.7,368,167.2,366.9,167.6z M354.8,149.6c2-1.3,2,0,4,0
				c2,0.1,3.5-1.1,3.5-1.1c2.8,0.8-2.6,2.8-3.2,2.6c-0.7-0.3-2.3-0.1-3.8,0.3c-1.3,0.4-2,2.3-3.1,1.8
				C351,152.5,352.7,150.9,354.8,149.6z M350.5,203.5c0.8-1.3,1.9,0,1.9,0c-0.1,0.8-0.5,1.5-1.6,1.6
				C349.6,205.2,349.5,204.8,350.5,203.5z M349.5,209.1c0.7-1.6,4.7-0.9,4.7-0.9c2.2-0.1-1.2,1.9-3,1.9
				C349.4,210,349.5,209.1,349.5,209.1z M348,189.1c0.4,0,0.7,0.4,0.7,0.9s-0.4,0.9-0.7,0.9c-0.4,0-0.8-0.4-0.8-0.9
				C347.4,189.6,347.6,189.1,348,189.1z M348,197.3c-0.5,0.3-0.1,1.2-0.3,1.6c-0.1,0.5-0.4-0.1-0.7-2s1.3-2,1.3-2
				C349.1,194.7,348.6,197,348,197.3z M349.1,218.7c-1.1,0,0.1-3.1,0.9-4.6c0.8-1.6,4.4-1.2,4.4-1.2c1.1,0-0.4,1.3-1.3,1.3
				c-1.1,0-1.6,0.7-2.3,2C350.3,217.6,350.2,218.7,349.1,218.7z M358.3,240.7c-0.8-1.2,5-1.2,5-1.2c1.6-0.1,0.1,2-0.1,3.2
				C362.7,244.2,359.1,241.9,358.3,240.7z M364.3,246.3c0,0,0,0,0.1-0.3c0.3-0.3,2.3-0.8,2.3-0.8c1.9,0.1-0.4,1.6-1.1,1.9
				s-1.8,0.3-2.4,0.3s-0.4-0.5,0.1-0.9C363.9,246.1,364.3,246.3,364.3,246.3z M363.5,257.7c1.1,0.3,0,1.8-0.9,1.5
				C361.6,258.7,363.5,257.7,363.5,257.7z M375.5,287.7c-1.2-0.7-0.8,2.3-1.6,3.5c-0.8,1.2-2.6,1.2-3.5,0.5
				c-0.9-0.7-0.3-2.4-2.2-3.2c-1.8-0.8-1.2,0.1-3.5,0.9c-2.3,0.8-2.4-3-2-5c0.5-2,2.2-2.7,2-0.4c-0.1,2.3,1.5,3.1,1.5,3.1
				c0.5,0.4,0.5-1.6,0.9-2.4c0.4-0.8,1.1,0.3,1.5,1.3c0.4,1.1,0.5,0.7,0.8,0.1c0.1-0.7,1.6-1.1,2.2-1.1c0.4,0,0.3,1.8,0.7,2.3
				c0.4,0.5,0.3-1.5,0.5-2.7c0.4-1.1,1.8,0.7,2.3,1.5c0.7,0.8,0.7-0.8,1.6-1.6c1.1-0.8,1.6,2.8,1.8,3.6
				C378.8,288.9,376.9,288.4,375.5,287.7z M383.7,289.5c-0.8-0.1-0.1-1.1-1.2-0.9c-1.1,0.1-1.1,4.2-2.3,4.4c-1.2,0.3-2-2.6-2-3.6
				c0-0.9,1.3-1.1,1.9-1.9s-0.8-2.6-1.6-3.2c-0.8-0.8-2.2-1.9-3.9-1.9c-1.6,0-1.5,0.4-1.6,0.5c-1.2,0.5-1.1,0.3-1.2-0.8
				c-0.3-1.1,1.1-3.5,1.6-4.4c0.5-0.9,0.9-1.3-0.3-1.8c-1.2-0.5-1.8,3.5-2.4,4.4c-0.7,0.9-0.9-0.1-0.9-1.3c0-1.3,0.1-1.5-1.2-2.4
				c-1.3-0.9,0-1.1-0.4-1.6c-0.4-0.5-2,3.4-2.7,3.9c-0.7,0.5-1.2-0.3-1.3-1.1c-0.1-0.8,1.1-3.1,0.4-4c-0.7-0.9,0-1.2,0.4-1.9
				c0.4-0.5,0-0.3-0.7-1.6c-0.5-1.3,1.8-2.6,2.4-4.4c0.7-1.9,0.7-2.3,0.7-2.3v-0.1c0.5-0.5,2.4-2.3,1.9-3c-0.5-0.7-1.1,0.1-1.8,0.7
				s-0.8-0.8-0.5-1.6c0.3-0.8,0-2.3-0.5-3.8c-0.5-1.5,2.4-3.1,3.9-3.1c1.5,0,0.5,1.6,0.8,1.6c0.3,0,2.2,1.3,1.2,1.8
				c-0.8,0.5-1.1,1.5-1.3,2.4c-0.1,0.9,1.2,0.3,2.2-0.1c1.1-0.4,3.4-2.8,4.7-3.5c1.2-0.7,2.4-2.2,1.3-2.3c-1.1-0.1-2.8,0.8-3.5,0.5
				c-0.7-0.4-2.8-1.1-3.4-1.8c-0.7-0.7,0.1-1.3,0.3-2.2s0-0.8-0.5-1.9c-0.5-1.1,0-2.6-0.4-3.2c-0.4-0.7-1.5,0.8-2.6,0.5
				c-0.9-0.3-0.3-1.5-0.1-2c0.1-0.5-6.5-6.1-7.1-6.9c-0.7-0.7-3.6,0.3-4.4-0.5c-0.8-0.8,3.6-2.2,3.6-3c-0.1-0.8-4.4,0.8-5.4-0.4
				c-1.1-1.2,1.9-2.7,3-3.5c0.9-0.9-0.7-0.9-2-0.4c-1.2,0.5-1.8,2.2-2.8,1.9c-0.9-0.3,1.6-3.9,2.4-4.4c0.8-0.5,1.8-0.4,0.9-0.9
				c-0.8-0.5-3.6,2.3-4.4,3.4s-1.3,0.5-1.8-1.8c-0.5-2.3,5.8-4.7,5.9-5.7c0.3-0.8-2.7,0.3-3.4-0.5c-0.7-0.9,2.2-1.3,3-2
				c0.9-0.7,0.4-2.3,0.4-2.3c0.3-0.7,0.8-0.5,1.3,0c0.5,0.5,0.9-0.1,1.1-0.8c0.3-0.5,0.3-0.9,0.9-1.8c0.8-0.8,4.3-3.6,5.3-4.6
				c1.1-0.9,0.9-0.1,0.8,0.9s-2.3,3.5-4.2,5.3c-1.9,1.8-1.2,2.4-0.9,3.2c0.1,0.9,0.9-1.6,1.6-2.7c0.7-1.1,3.1-1.6,3.9-2.4
				c0.7-0.8,2.2-0.8,2.3,0.1c0.1,0.9-2.8,3.5-4.4,4.6c-1.6,1.1-2.6,4.4-2.6,5.1c0,0.5,0.7,0.3,0.7,0.3c1.2-4,7.8-8.6,8.2-8.9
				c0.5-0.3,0.8-1.3,0.1-1.9c-0.5-0.5-1.6-1.3-1.8-2c-0.1-0.7,0-1.3-0.1-4.6c-0.1-3.4,3.5-7.7,4.9-8.8c1.2-1.1,1.2,0.4,1.2,0.9
				c0,0.5-2.8,4.9-3,6.3c-0.1,1.3,2.8,10.9,3,11.3c0,0.4-2.6-0.3-3-0.4c-0.4-0.1-7,7.3-7.7,8c-0.7,0.7-0.3,1.2,0.7,1.1
				c0.8-0.1,5-5,5.9-6.1c0.9-1.2,2-0.7,2.3-0.1c0.3,0.7-5.5,6.5-5.9,7.1c-0.5,0.7,0.8,0.3,1.9-0.9c1.2-1.2,2.4-0.8,2.4-0.8
				s0.5-0.3,0.5-0.9c0.1-0.7,3.2-2.4,4.2-3.2c1.1-0.7,0.4,2.2,0.1,2.8c-0.3,0.7-2.2,1.8-2.6,3c-0.4,1.3,1.2-0.4,1.9-0.9
				c0.8-0.5,1.6-1.1,2-0.5c0.5,0.5-1.2,3.9-2,4.4c-0.8,0.5-0.7,1.6-0.1,2.2c0.5,0.4,0.9-1.3,1.9-3c0.9-1.6,2.3-0.8,2.8-0.3
				c0.5,0.5-3.6,5.9-4.7,7.7c-1.1,1.6,0,1.9,0.8,1.5c0.8-0.4,5.5-7.3,5.5-8s-1.2-1.8-0.3-2.7s1.6,1.3,1.5,2c-0.1,0.7,0.8,4,1.6,4.3
				c0.8,0.3,3.8,5.1,4,6.2c0.4,1.1-0.5,1.2,0.1,2.4c0.7,1.3,0.8,2.7,0.4,7c-0.3,4.3-1.5,3.8-1.5,3.8c0.7,3.8-2.7,8.1-2.7,9.2
				s-0.8,3.6-2,4.6c-1.1,0.8-0.4,2,0.3,3.4c0.7,1.3,0.1,1.3-0.4,1.9c-0.5,0.5,2.3,6.1,2.6,6.3c0.3,0.3,1.1,1.5,0.8,2
				c-0.3,0.5-0.1,2.4,0,4c0.1,1.6,0.1,5,0.1,6.1C387.1,288.7,384.6,289.6,383.7,289.5z M369.1,246.9c0-0.4,0.3-0.7,0.7-0.7
				c0.4,0,0.8,0.3,0.8,0.7c0,0.4-0.4,0.7-0.8,0.7C369.3,247.6,369.1,247.3,369.1,246.9z M417.2,238.8c-0.7,1.2,0.1,2-0.7,3.1
				c-0.7,1.1-5,7.5-5.1,9c-0.1,1.3-0.1,3.5-0.8,4.6c-0.7,1.1,0.1,1.1-0.8,2.4s-2.3,3.8-2.8,4.4c-0.5,0.7-2.3,3.8-4.9,4.7
				c0,0-1.3,1.8,0.1,1.5c1.5-0.3,3.4-2.2,3.5-0.9c0.1,1.2-0.4,3-2.7,3.4c0,0-1.9,1.2-1.1,1.5c0.8,0.3,3.1,0,2.4,1.1
				c-0.7,1.1-3.1,5.1-4.2,5.1c-1.2,0-4.7-0.3-4.6,0.5c0.3,0.8,1.2,0.8,2.3,0.7c1.2-0.3,2.8,0.1,2.6,0.8c0,0,0.7,0.5-0.4,0.5
				c-1.1,0-3.9,2.7-2.2,2.2c1.6-0.5,2.6-1.5,2.6-0.8c0,0.5-0.8,1.1-0.1,1.6c0.5,0.4,2.2,0.9,1.3,1.9c-0.9,0.8-2.8,2.3-1.9,2.7
				s2.4-1.5,3.1-1.1s0,1.5,0.7,1.5s2-1.5,3.4-1.5c0.9,0,2.6-0.5,3.2-1.1c1.1,0.7,4,1.6,4.6,1.9c0.5,0.4,0.3,0.8,1.3,1.2
				s3.2,2.3,2.7,3.4c-0.4,1.1-0.7,2.2-1.9,1.2l-5.8-3.6c-0.9,0.1-0.9,2.6-1.3,3.2c-0.5,0.5-6.5,1.2-6.1,2.6c0.4,1.3,2.2,1.9,2.7,2.8
				c0.4,1.1,1.3,5.9,0.3,6.1c-0.9,0.1-2.7,1.1-2.8-3.4c0,0-1.3-2.8-2-1.2c-0.7,1.5,0,1.6-0.8,1.5c-0.9,0-0.3,1.2-1.6-0.3
				s-2.6-2.2-4-2.3c0,0-5.5-4.3-4.6-5.4c0.8-1.1,5.4-3.2,4.4-3.6c-0.9-0.4-2,0.5-1.9-0.1c0-0.8,1.5-2.2,1.2-2.6
				c-0.3-0.4-1.1,1.2-2.2,1.6c-1.2,0.5-3.2,1.2-3-0.1c0.3-1.3,1.1-1.8,1.5-1.9c0.4-0.3,4.3-3.5,3.5-4.3c-0.8-0.7-2.6-0.5-3.1-1.2
				c-0.5-0.7,1.3-2.3,0.4-3c-0.8-0.7-1.8-2.2-1.3-3c0.4-0.8,1.6-1.9,0.4-1.9c-1.1,0-3.6,0.3-2.4-0.7c1.2-0.9,3.2-2.3,2.8-3
				c-0.3-0.7-1.3-0.8-1.1-1.6c0,0-0.8-0.8,2.2-2.2c3-1.5,4.3-3,3-2.6c-1.3,0.3-5.9,3.9-6.1,2.6s1.9-3.8,4.6-4.7
				c2.7-0.9,7.5-3.9,6.1-3.8c-1.5,0-7.4,3.9-8.5,3.6s1.3-3,2.8-3.6c1.5-0.5,3.8-3,4.7-3.2c1.1-0.3,7.1-3.8,7.8-6.3s-0.1-1.8-0.3-0.7
				c0,0-3,3.9-5.3,4.6c-2.3,0.8-2.7,0-3.1,0.1c-0.4,0.1,0,1.1-0.4,1.5c-0.4,0.3-1.5-0.1-2.3,0.5c-0.7,0.7-1.8,2.7-2.7,2
				c-0.9-0.8-1.3-2.3,0.3-3c1.8-0.7,2.3-2,3.2-1.8c0.9,0.4,1.5-0.5,1.5-0.5s4.9-3.4,5.7-3.8c0.8-0.4,6.1-6.9,7-6.9
				c1.1,0,0.4,0.8,1.1,0.8s3.8-4.4,4.6-4.4C417.2,237.3,417.8,237.6,417.2,238.8z M417.8,230.8c-0.8-2,0.8-2.6,0.8-2.6
				c0.7-0.3,1.1,3.9,1.3,5C420.1,234.4,418.7,232.9,417.8,230.8z M418.4,226.5c-0.1,0.5-2.2-1.5-2.6-2.4c-0.4-0.9,2.4-3.1,2.4-3.9
				c0-0.9,3.1-0.8,3.1-0.8c0.9,0-0.1,1.5-1.2,2.6C419.1,223,418.5,226,418.4,226.5z M423.6,228.4c-0.3,0.5-1.9-1.5-2.8-2.4
				c-0.9-0.9,2.6-2.2,2.6-2.2C424.2,223.3,424,227.9,423.6,228.4z M423.5,222.1c-0.7,0.5-1.3,0-1.5-0.4c-0.3-0.4,1.2-1.5,1.2-1.5
				C424.6,219.8,424.2,221.5,423.5,222.1z M427.3,195.7c-0.3,0.5-1.3-0.4-1.6-1.5c-0.3-1.1-3.1-5.7-3.1-5.9c0-0.3,0-4.7-0.5-8.1
				c-0.5-3.4,2.3-6.9,2.3-6.9c-1.3-3,1.3-2.3,1.3-2.3c1.6,0.9-0.3,2.4-0.8,2.8c-0.4,0.5-0.3,10.4-0.3,10.4l0.4,1.5
				c-0.8,1.6,0.4,3.9,0.4,3.9C427.7,194.7,427.5,195.1,427.3,195.7z M428.8,200.7c-0.1-1.1-0.1-1.6,0.3-2.3c0.3-0.7,0-1.3,0-3.1
				c0-1.8-0.5-2-0.5-2.4c0-0.4,0.9-0.7-0.1-1.8c-0.9-1.1-2.3-4.2-2.6-5.4c-0.3-1.1-0.1-2.8-0.1-3.5s0.7-0.3,0-2.8s1.8-3.2,1.8-3.2
				c2-0.5,0.3,3,0.3,3s0.3,2,0.1,3c-0.1,1.1,0.3,3,0.8,3.8c0.5,0.8,1.2,4.7,2.2,5.8c0.8,1.1,0.5,3.2,0.7,3.5c0,0.3-1.3,1.1-1.1,1.5
				c0.4,0.4,0.4,3,0.3,3.9c-0.3,0.9,1.2,1.8,1.9,2.4c0.7,0.8,0,2,0.1,3.4c0.1,1.3-0.9,0.9-1.8,0.9s-0.1-0.7-0.7-1.6
				C429.7,205.4,429,201.7,428.8,200.7z M433.1,220.7c-0.3,0-0.5-0.4-0.5-0.8s0.3-0.8,0.5-0.8c0.3,0,0.5,0.4,0.5,0.8
				C433.7,220.5,433.5,220.7,433.1,220.7z M433.6,212.5c-1.1,0.9,0,0.9,0,2.2s-0.9,1.3-1.8,1.3c-0.8,0-0.1-1.3,0-1.9
				c0.3-0.4-0.4,0-1.3,0.3c-0.9,0.3-0.3-2.4,0-3.4c0.4-0.8,1.6-0.8,2.2-0.9s2.3-1.6,2.3-1.6c0.5-0.5,0.7,0.9,0.7,1.5
				C435.6,210.6,434.6,211.6,433.6,212.5z M435.8,189.6c-0.8-0.5,0.9-2.6,0.8-3c0-0.4-1.5-1.1-0.8-2.8c0.5-1.6,2.2,1.6,2.4,2
				c0.3,0.4,0.5,1.8,0.5,1.8c0.5,0,0.4-2.8,0.4-2.8s-0.7-0.5-0.7-1.2s-0.9-1.3-1.8-2.4c-0.8-1.1,0.5-1.8,1.3-1.6
				c0.8,0.3,1.9,3.8,2.4,4.7c0.5,0.9-0.4,4.6-0.4,4.7c0,0.3-1.1,0.8-2.4,1.3C436.6,190.8,436.4,190.1,435.8,189.6z M440.6,207
				c0,0.8-1.1,2.2-1.8,3.4s-1.2,0.4-1.6,0c-0.4-0.4,0.4-1.2,0.5-2.6c0.1-1.3,2.6-3,2.6-3C441.6,205,440.6,206.2,440.6,207z
				 M439.9,165.5c-0.4-1.9,1.2-1.9,1.2-1.9c1.2,0.1,1.6,3.1,2.2,4c0.5,0.9,0.8,2-0.1,2C442.2,169.5,440.4,167.2,439.9,165.5z
				 M441.8,181.3c-0.8-2.2,1.2-2,1.2-2c2.3,1.3,0.8,3.1,0.5,3.6s0.4,1.3-0.1,1.6C443,184.6,442.6,183.3,441.8,181.3z M444.4,185.2
				c0.7-0.4,3,5.5,2.8,5.9c-0.1,0.4-1.3-0.8-3-2.4C442.8,187,444.4,185.2,444.4,185.2z M447.5,201.9c-0.5-0.9,0.3-1.3,0.4-2.3
				c0.1-0.9-1.9-3.2-2.7-4c-0.8-0.8-0.5-2.2-0.5-2.2c-1.3-0.8-0.4-1.8-0.4-1.8c0.7-0.5,2.3,0.9,3.4,1.5c1.1,0.5,1.9,4,1.8,4.6
				c-0.1,0.7,0.3,4,0.3,4.9C449.7,203.4,448.2,202.7,447.5,201.9z M456.3,191.1c0.7,0.8-0.8,2.2-1.9,1.9c-1.1-0.3-2.3-2.2-3.5-4.6
				s0.8-1.6,0.8-1.6S455.7,190.3,456.3,191.1z M458,171.7c-1.1,0.1-1.3-4.6-1.1-5.1c0.4-0.5,0.1-0.7-0.3-1.3
				c-0.3-0.7,0.3-1.5,0.3-1.5c1.3-0.3,1.5,1.9,1.5,1.9s-0.3,0.9,0,1.3C458.7,167.2,459.1,171.5,458,171.7z M458.8,157.5
				c-0.9-0.9,0-1.3,0-1.3s-0.4-0.7-0.7-1.1c-0.4-0.4,0.8-1.6,0.8-1.6c1.1-0.4,2.2,4,2.2,5C461.1,159.1,459.6,158.5,458.8,157.5z
				 M464.1,149.3c-0.7,0-1.1-0.5-1.1-1.2c0-0.7,0.4-1.1,1.1-1.1c0.5,0,1.1,0.5,1.1,1.1C465.2,148.8,464.6,149.3,464.1,149.3z"/>
			<path class="st0" d="M425.8,85.3c0,0-1.3,1.1-0.9,1.9c0.4,0.8,1.3,1.6,1.3,0.9c0.1-0.5,0-2.3,0-2.3s1.6-2.3,0.5-2.6
				C426.7,83.3,425.4,82.7,425.8,85.3z"/>
			<path class="st0" d="M411.2,300.7c-0.3,1.9-0.3,4.9,0.8,4.7c1.1-0.1,2.3-0.3,2.3-1.2c-0.1-0.9-1.2-3.8-1.2-3.8
				S411.6,298.8,411.2,300.7z"/>
		</g>
		<g>
			<path class="st0" d="M401.9,140c0,0-1.1,1.1-0.4,1.2C402.2,141.5,403,140.3,401.9,140z"/>
			<path class="st0" d="M374.9,133c0,0-0.9,0.3-1.2,1.1c0,0-1.9,0.9-1.1,1.9c0.8,0.9,1.3-1.3,1.3-1.3S376.3,133,374.9,133z"/>
			<path class="st0" d="M374.6,137.6c0,0-3.8,2.8-2.3,3.8c1.3,0.9,2.6-2.8,2.6-2.8S375.1,137.2,374.6,137.6z"/>
			<path class="st0" d="M378.4,137.3c0,0-2.4-0.5,0.3,4.3c0,0,0.9,0.5,0.9-0.8C379.6,139.5,379.3,137.2,378.4,137.3z"/>
			<path class="st0" d="M381.7,143.6c0,0-1.1,1.6-0.4,1.6C382,145.3,382.9,143.5,381.7,143.6z"/>
			<path class="st0" d="M377,144.9c0,0-1.9,0.4-1.1,1.3c0.8,0.8,1.8-0.4,1.8-0.7C377.7,145.4,377,144.9,377,144.9z"/>
			<path class="st0" d="M375,179c0,0-1.8,0.3-0.9,0.7c0.8,0.3,1.3-0.9,1.3-0.9s3.8-3,2.7-3.2c-0.9-0.3-2.7,1.3-3,2
				c-0.1,0.7-0.3,1.3-0.3,1.3"/>
			<path class="st0" d="M437.1,147.4c0,0,0.3,4.6,0.8,4.4c0.7-0.1,0.5-1.5,0.7-2C438.7,149.4,437.5,147.2,437.1,147.4z"/>
			<path class="st0" d="M439,134.8L439,134.8c0.5,0.7,2.4,3.1,2.6,2.4c0.1-0.9-2.4-3.1-2.4-2.8"/>
			<path class="st0" d="M393.4,180.4c0,0-1.2,5-0.5,5.4s1.1,0.3,1.1-1.3s-0.1-1.9,0-2.2C394.3,181.9,394.3,180.2,393.4,180.4z"/>
			<path class="st0" d="M384.4,280.4c0,0-0.3,0-0.9,1.1c-0.7,1.1-0.8,0.8-1.5,1.3s-1.8,1.8-1.1,1.9c0.5,0.1,1.6-0.8,2.2-1.3
				C383.5,283,385.2,280.4,384.4,280.4z"/>
			<path class="st0" d="M375.8,246.8c0,0.4-0.1,0.7-0.4,0.7c-0.3,0-0.4-0.3-0.4-0.7s0.1-0.7,0.4-0.7
				C375.7,246.1,375.8,246.3,375.8,246.8z"/>
			<path class="st0" d="M376.3,244.2c0,0.1,0.1,0.3,0.3,0.3s0.3-0.1,0.3-0.3c0-0.1-0.1-0.3-0.3-0.3
				C376.5,243.8,376.3,243.9,376.3,244.2z"/>
			<path class="st0" d="M372.7,270.7c0,0,3.6-5.7,5-6.6c1.3-0.9,3.2-1.3,3.4-0.9c0.1,0.4,0.1,1.2,0.1,1.8c0,0.7-0.7,3-0.5,3.5
				c0.1,0.7,2.3,3.5,2.3,4.4c0,1.1-0.3,0.9,0.3,1.5c0.4,0.5,0.9,2.4,0.1,2.7c-0.8,0.3-2,1.5-2.3,1.8c-0.3,0.3-0.8,0.8-0.8,0.3
				c0-0.4-0.3-3.1,0.9-3c0,0,0.8-1.1-0.8-0.5c-1.6,0.5-1.3,1.6-2.4,1.6c-0.9,0-1.5-0.7-1.1-1.2c0.5-0.4,0.8-0.8,0.3-1.3
				c-0.5-0.4-1.6-0.7-1.5-1.2c0-0.5,0.4-1.5,2-2.3c1.5-0.8,1.8-2.2,1.8-3.1c0-0.8,0.4-1.9,0.3-2.2c0-0.3-1.9-0.7-2.3-0.3
				c-0.4,0.4-3.2,4-3.2,4.9c0,0.7-0.8,1.6-1.2,1.3C372.8,271.6,372.7,270.7,372.7,270.7z"/>
			<path class="st0" d="M367.7,269.7c0,0-1.5,0.5-1.1,1.2c0.4,0.7,1.1,0.8,1.1,0.4C367.6,270.9,368.8,269,367.7,269.7z"/>
			<path class="st0" d="M371.1,264.8c0,0-3.2,2-3,2.7c0.4,0.7-0.3,1.1,1.1,0.3C370.7,267.2,372.3,264.5,371.1,264.8z"/>
			<path class="st0" d="M374.9,259.4c0,0-1.2,1.9-1.6,1.9c-0.3,0-0.7,0.1-0.7,0.8s0.4,1.9,1.1,1.2c0.7-0.7,3-3.5,3.4-3.8
				c0.4-0.3,1.6-1.3,1.1-1.3C377.5,258.1,375.1,258.5,374.9,259.4z"/>
			<path class="st0" d="M377.7,249.7c0,0-2,1.5-1.3,1.9c0.7,0.4,1.9,0.3,2.6-0.3c0.7-0.5,2.8-2.2,2.3-2.6
				C380.6,248.4,377.8,249.3,377.7,249.7z"/>
			<path class="st0" d="M379.4,244.7c0,0-1.2,0.7-0.8,1.1c0.4,0.4-0.1,1.2,1.2,0.5c1.3-0.7,2.4-1.9,2.4-2.4c0-0.5-0.4-0.3-0.9-0.1
				C380.9,244.1,379.4,244.7,379.4,244.7z"/>
			<path class="st0" d="M363.9,224.6c0,0-0.7,0.4-0.7,1.2c0,0.8-1.8,2.3-1.6,3.2c0.3,0.9,0.7,2.2,1.1,1.3c0.4-0.8,0.3-1.9,0.8-3
				C364.2,226.5,364.9,224.4,363.9,224.6z"/>
			<path class="st0" d="M367.4,225.9c0,0-0.9,0.4-0.9,1.2c0,0.8-1.5,2.7-1.1,3.5c0.4,0.9,1.8-0.7,1.8-0.7s0.1,2.2,0.8,1.6
				s0.9-2.2,1.5-2.7c0.5-0.5,1.3-2.2,0.5-1.5c-0.7,0.7-2.6,3-2.6,2.3C367.4,229,368.2,225.6,367.4,225.9z"/>
			<path class="st0" d="M368.1,233.7c0,0.4-0.3,0.8-0.5,0.8c-0.3,0-0.4-0.4-0.4-0.8s0.1-0.8,0.4-0.8
				C368,232.9,368.1,233.3,368.1,233.7z"/>
			<path class="st0" d="M374,235c0.3-0.5,0.3-1.1,0-1.2c-0.3-0.1-0.8,0.1-0.9,0.7c-0.3,0.5-0.3,1.1,0,1.2
				C373.4,235.8,373.8,235.4,374,235z"/>
			<path class="st0" d="M371.9,230.7c0,0-1.8,2.2-2,3.1c-0.3,0.9-0.9,4.6-0.9,5.5s-0.4,1.9,0,1.5c0.4-0.3,2.2-5.7,2.3-6.3
				C371.2,233.8,372.8,230,371.9,230.7z"/>
			<path class="st0" d="M375.4,237.3c0,0-1.3,0.5-1.5,2.3c-0.1,1.9-1.2,3.9-0.7,4.2c0.5,0.4,1.6-0.3,1.6-1.2c0-0.8-0.1-2.2,0.4-2.7
				C375.7,239.5,376.5,236.8,375.4,237.3z"/>
			<path class="st0" d="M383.2,230.6c0,0-0.8,0.7-0.7,1.6c0.1,1.1,0.1,1.6-0.4,2.2s-0.5,1.6-1.2,2.2c-0.7,0.5-2.6,1.9-3,3.1
				c-0.5,1.1-1.1,3.1-0.8,2.8c0.3-0.3,1.6-2.2,2-2.3c0.4-0.1,0.8,0,0.9-0.5c0-0.7,0.3-1.5,1.3-2.2s2.8-1.6,3-2.3
				c0.1-0.7-0.5-2.8-0.5-3.4C383.9,231.4,383.5,230,383.2,230.6z"/>
			<path class="st0" d="M385.8,235.7c0,0-1.3,0.5-1.2,0.8c0.1,0.3-0.1,0.9-0.1,1.3C384.3,238.3,386.8,236.8,385.8,235.7z"/>
			<path class="st0" d="M383.6,238.5c0,0-2.4,0.4-2.8,1.1s-0.8,2.4-0.1,1.9c0.8-0.5,1.5-1.5,1.9-1.8
				C383.1,239.5,385,238.7,383.6,238.5z"/>
			<path class="st0" d="M285.2,194.1c0,0.4-0.5,0.7-1.1,0.7c-0.7,0-1.1-0.3-1.1-0.7c0-0.4,0.5-0.7,1.1-0.7
				C284.7,193.2,285.2,193.6,285.2,194.1z"/>
			<path class="st0" d="M312,195.8c0,0-2,0.8-1.8,1.9c0.1,1.1,0.4,2.2,1.2,2c0.8-0.3,2.4-1.6,1.8-2
				C312.6,197.3,312.2,195.7,312,195.8z"/>
			<path class="st0" d="M307.1,204.7c0,0.3-0.1,0.5-0.3,0.5c-0.1,0-0.3-0.3-0.3-0.5c0-0.3,0.1-0.5,0.3-0.5S307.1,204.4,307.1,204.7z
				"/>
			<path class="st0" d="M308.8,191c0,0-0.1,1.3-0.7,1.6c-0.5,0.3-0.7-0.1-0.8,1.6c-0.1,1.8-1.3,2.2-1.2,3.4c0.1,1.2,1.6,1.6,1.6,1.2
				c0-0.4-0.9-2.3,0-3c0.9-0.7,0.9-2.4,1.2-3C309.2,192.2,309.5,191,308.8,191z"/>
			<path class="st0" d="M248.4,177.1c0,0-2.7,2.2-2.4,3c0.3,0.8,0.8,0.8,1.1,0.4C247.4,179.9,248.6,177.1,248.4,177.1z"/>
			<path class="st0" d="M246.1,182.7c0,0.4-0.3,0.8-0.4,0.8c-0.3,0-0.4-0.4-0.4-0.8c0-0.5,0.3-0.8,0.4-0.8
				C245.9,181.9,246.1,182.3,246.1,182.7z"/>
			<path class="st0" d="M245.7,189.2c0,0.1-0.1,0.4-0.4,0.4c-0.3,0-0.4-0.1-0.4-0.4c0-0.1,0.1-0.4,0.4-0.4
				C245.6,188.9,245.7,189.1,245.7,189.2z"/>
			<path class="st0" d="M241.8,185.8c0,0-2-0.3-2.6,1.1c-0.4,1.3-1.2,1.2-1.2,2.2c-0.1,0.8,0.7,1.2,1.3,0.9c0.7-0.4,2,0.1,1.5,0.7
				c-0.5,0.5-5,5.4-4.7,5.8c0.3,0.4,0.5,0.9,1.2,0.1c0.8-0.8,4.3-5,5.1-5.4c0.8-0.4,0.1-1.5-0.1-2
				C241.8,188.7,243.3,185.4,241.8,185.8z"/>
			<path class="st0" d="M244.3,196.9c0,0-3.1,3.4-3.9,4.4c-0.7,1.1-1.9,1.8-2.2,2.4c-0.4,0.8,0,1.6,0.7,0.9s2.8-3.5,3.6-3.9
				c0.9-0.4,1.8-1.2,2-2C244.7,198.1,245.9,196.2,244.3,196.9z"/>
			<path class="st0" d="M244.7,202c0,0-1.1,0.9-0.8,1.8c0.3,0.9-0.3,1.3-0.5,2.3c-0.3,0.9,0.4,0.8,1.1,0.1s0.7-1.5,0.7-2.2
				c0-0.7,0.1-0.9,0.3-1.5C245.3,201.9,245.1,201.6,244.7,202z"/>
			<path class="st0" d="M242.5,207.4c0,0-6.1,4.9-5.3,5.3c0.7,0.4,4.6-3.6,5-4C242.5,208.3,243.7,206.9,242.5,207.4z"/>
			<path class="st0" d="M244.1,209.8c-0.1,0-2.4,2.2-1.5,2.2c0.9,0,2-0.8,2-1.2C244.7,210.4,244.1,209.8,244.1,209.8z"/>
			<path class="st0" d="M253.7,207.9c0,0-0.9,1.2-1.6,2c-0.5,0.9-0.7,0-1.6,1.3s-2.2,2.6-1.1,2.2c1.1-0.3,1.3-0.9,1.8-1.8
				c0.4-0.7,0.4-1.2,1.2-1.3c0.8-0.1,1.6,0,1.6-0.9C254.1,208.7,254.5,207.5,253.7,207.9z"/>
			<path class="st0" d="M240.3,234.6c0,0-3.2,2.4-3.9,2.6c-0.7,0.1-2.4,0.1-1.6,1.2c0.7,1.1,0.5,1.8,1.9,0.4
				c1.3-1.3,3.2-2.6,3.5-3.1C240.5,235.2,241,234.4,240.3,234.6z"/>
			<path class="st0" d="M244.5,238.7c0,0-1.3,0.4-1.6,0.8c-0.3,0.4,0,1.1,0.7,0.8C244.4,239.9,245.1,238.5,244.5,238.7z"/>
			<path class="st0" d="M257.7,226.4c0,0-2.3,2.6-1.5,2.3C257.1,228.4,258.5,226.3,257.7,226.4z"/>
			<path class="st0" d="M259.9,229.1c0,0-2.7,1.2-2.4,1.8c0.3,0.7,0.5,0.8,1.3,0.1C259.8,230.3,260.7,228.8,259.9,229.1z"/>
			<path class="st0" d="M253.3,230.8c-0.3,0-2,0-2.2,0.7c-0.1,0.7,0.1,1.2,0.9,0.7S253.8,230.7,253.3,230.8z"/>
		</g>
		<path class="st0" d="M360.3,218.3c0,0-1.9,1.8-1.3,2.3C359.5,221.3,361,219.1,360.3,218.3z"/>
		<path class="st0" d="M373,229.6c0.1,0,0.3,0.1,0.3,0.1c0,0.1-0.1,0.3-0.3,0.3"/>
		<path class="st0" d="M360.3,218.3c0,0-1.9,1.8-1.3,2.3C359.5,221.3,361,219.1,360.3,218.3z"/>
		<path class="st0" d="M379,261.6c0,0.3-0.3,0.5-0.5,0.5c-0.3,0-0.5-0.3-0.5-0.5c0-0.3,0.3-0.4,0.5-0.4
			C378.8,261,379,261.3,379,261.6z"/>
	</g>
</g>
<g>
	<path class="st0" d="M542.8,555.4c4,0,7.3,3.2,7.3,7.4s-3.2,7.4-7.3,7.4c-4,0-7.3-3.2-7.3-7.4C535.4,558.6,538.7,555.4,542.8,555.4
		L542.8,555.4z M542.6,556.5c-3.2,0-5.9,2.8-5.9,6.2c0,3.5,2.7,6.2,5.9,6.2c3.2,0,5.9-2.7,5.9-6.2
		C548.6,559.3,546,556.5,542.6,556.5L542.6,556.5z M541.3,567H540v-8.2c0.7-0.1,1.3-0.1,2.3-0.1c1.2,0,2,0.3,2.6,0.7
		c0.5,0.4,0.8,0.9,0.8,1.8c0,1.1-0.7,1.8-1.6,2l0,0c0.7,0.1,1.2,0.8,1.3,2c0.1,1.2,0.4,1.8,0.5,2h-1.3c-0.1-0.3-0.4-1.1-0.5-2.2
		c-0.1-1.1-0.7-1.5-1.8-1.5h-0.9V567z M541.3,562.4h0.9c1.1,0,2-0.4,2-1.3c0-0.7-0.5-1.5-2-1.5c-0.4,0-0.7,0-0.9,0V562.4z"/>
</g>
</svg>
